<svg width="314" height="339" viewBox="0 0 314 339" fill="none" xmlns="http://www.w3.org/2000/svg">
<g filter="url(#filter0_i_740_1885)">
<path d="M103.775 186H53.75L32 244.486H71.15L53.025 317.5L119 221.711H90L103.775 186Z" fill="url(#paint0_linear_740_1885)"/>
</g>
<g filter="url(#filter1_i_740_1885)">
<path d="M209.775 141H159.75L138 199.486H177.15L159.025 272.5L225 176.711H196L209.775 141Z" fill="url(#paint1_linear_740_1885)"/>
</g>
<g filter="url(#filter3_i_740_1885)">
<path d="M277.747 95.0084C278.549 90.4546 278.967 85.7701 278.967 80.9888C278.967 36.2599 242.369 0 197.223 0C163.661 0 134.823 20.0397 122.234 48.7008C112.035 39.9768 98.801 34.7095 84.3389 34.7095C52.0918 34.7095 25.9504 60.8972 25.9504 93.2014C25.9504 95.0003 26.0315 96.7801 26.1902 98.5376C10.6799 106.065 1.5378e-05 121.858 1.5378e-05 140.124C1.5378e-05 165.683 20.9131 186.403 46.7108 186.403H267.289C293.087 186.403 314 165.683 314 140.124C314 118.126 298.51 99.7132 277.747 95.0084Z" fill="url(#paint2_linear_740_1885)"/>
</g>
<path d="M172.771 6.30762C173.678 6.01642 174.592 5.74078 175.514 5.48145L176.437 5.22754C177.189 5.02553 177.769 4.50109 178.067 3.84277C178.571 4.24084 179.223 4.44452 179.896 4.36816L180.149 4.32617C181.389 4.05659 182.64 3.81585 183.9 3.60449C184.669 3.4756 185.298 3.00824 185.657 2.38086C186.178 2.8817 186.911 3.15434 187.685 3.0625C188.944 2.91289 190.213 2.79255 191.49 2.70215C192.268 2.64714 192.937 2.2421 193.354 1.65234C193.826 2.19997 194.529 2.54062 195.308 2.52246C195.944 2.50752 196.583 2.5 197.224 2.5C197.873 2.5 198.521 2.50805 199.167 2.52344C199.962 2.54228 200.678 2.18612 201.149 1.61816C201.565 2.22832 202.243 2.65104 203.036 2.70801L204.005 2.7832C204.972 2.86438 205.935 2.96286 206.892 3.07812C207.681 3.17322 208.428 2.88818 208.952 2.36816C209.307 3.01497 209.94 3.50053 210.724 3.63379C212.001 3.85093 213.269 4.09904 214.524 4.37598L214.776 4.41797C215.466 4.49824 216.133 4.2841 216.643 3.86816C216.932 4.54691 217.516 5.09272 218.283 5.30176L219.218 5.5625C220.15 5.8287 221.075 6.1113 221.993 6.41016L222.24 6.47656C222.918 6.62363 223.604 6.47645 224.151 6.1123C224.373 6.8157 224.901 7.41534 225.644 7.69824C226.853 8.15851 228.048 8.64759 229.228 9.16406L229.467 9.25488C230.127 9.46752 230.823 9.387 231.404 9.07812C231.557 9.8002 232.023 10.4486 232.735 10.8027C233.893 11.3785 235.035 11.9818 236.159 12.6113C236.853 12.9997 237.652 13.0196 238.334 12.7383C238.415 13.4718 238.816 14.1631 239.49 14.585L240.309 15.1035C241.123 15.6273 241.928 16.1655 242.722 16.7178L242.938 16.8535C243.545 17.1905 244.244 17.2471 244.874 17.0566C244.883 17.7945 245.216 18.5214 245.846 19.0068L246.609 19.6025C247.369 20.2029 248.117 20.8172 248.854 21.4443L249.057 21.6006C249.628 21.9949 250.318 22.1184 250.963 21.9902C250.9 22.7257 251.16 23.4818 251.74 24.0264M172.771 6.30762L172.008 3.92773V3.92871L172.771 6.30762ZM172.771 6.30762C172.029 6.54549 171.258 6.41778 170.651 6.02637C170.418 6.7105 169.892 7.28885 169.162 7.5625C167.967 8.01076 166.786 8.48715 165.619 8.99023C164.904 9.29857 164.125 9.24534 163.482 8.91406C163.317 9.61793 162.848 10.244 162.147 10.5869C161.002 11.1481 159.872 11.736 158.758 12.3496M158.758 12.3496L157.554 10.1621V10.1631L158.758 12.3496ZM158.758 12.3496C158.076 12.7254 157.295 12.7491 156.624 12.4814C156.526 13.1973 156.12 13.8651 155.457 14.2734C154.371 14.942 153.302 15.6362 152.252 16.3545C151.609 16.7943 150.833 16.8917 150.14 16.6895C150.112 17.4119 149.772 18.1165 149.15 18.5869C148.134 19.3563 147.137 20.1497 146.16 20.9658L145.956 21.1201C145.395 21.5 144.722 21.6215 144.091 21.502C144.132 22.2237 143.861 22.9575 143.287 23.4854L142.588 24.1367C141.893 24.7923 141.21 25.4607 140.539 26.1406M140.539 26.1406L138.762 24.3857V24.3867L140.539 26.1406ZM140.539 26.1406C139.992 26.6951 139.25 26.9389 138.53 26.873C138.641 27.5874 138.442 28.3433 137.922 28.9238M137.922 28.9238L136.062 27.2578V27.2588L137.922 28.9238ZM137.922 28.9238C137.072 29.8725 136.245 30.8422 135.442 31.8311C134.951 32.4354 134.237 32.7498 133.515 32.7539C133.693 33.4542 133.568 34.2266 133.106 34.8545C132.353 35.88 131.624 36.9242 130.92 37.9863C130.49 38.6353 129.809 39.0178 129.091 39.0918C129.336 39.7712 129.287 40.5512 128.889 41.2207C128.239 42.314 127.615 43.4245 127.018 44.5508C126.653 45.2383 126.013 45.6852 125.306 45.8291C125.616 46.4811 125.643 47.2619 125.312 47.9668C125.042 48.5428 124.779 49.1226 124.522 49.7061L123.168 52.79L120.608 50.6006C120.108 50.1729 119.601 49.7538 119.086 49.3438C118.44 48.829 118.119 48.0589 118.147 47.292C117.498 47.517 116.765 47.4758 116.13 47.1279L115.912 46.9941C114.829 46.2496 113.717 45.5421 112.581 44.874C111.869 44.4552 111.443 43.7379 111.364 42.9746C110.753 43.2888 110.023 43.3513 109.345 43.0967L109.109 42.9951C107.934 42.4117 106.734 41.8682 105.514 41.3672C104.75 41.0535 104.228 40.4041 104.041 39.6602C103.415 40.1041 102.596 40.2584 101.812 40M101.812 40L102.595 37.626H102.594L101.812 40ZM101.812 40C100.878 39.6925 99.934 39.4083 98.9795 39.1494L98.0225 38.8994C97.2218 38.6976 96.6128 38.1287 96.3223 37.4189C95.8241 37.8923 95.1393 38.1575 94.417 38.1035L94.1631 38.0713C93.1973 37.8998 92.2228 37.753 91.2402 37.6318L90.2549 37.5195C89.433 37.433 88.7492 36.9553 88.3613 36.293C87.885 36.8949 87.1414 37.2728 86.3154 37.2441C85.6596 37.2213 85.0005 37.21 84.3389 37.21C83.6687 37.21 83.0012 37.2217 82.3369 37.2451C81.4971 37.2746 80.7419 36.8842 80.2666 36.2646C79.8833 36.945 79.1902 37.4373 78.3545 37.5264C77.0215 37.6685 75.7023 37.8576 74.3994 38.0918C73.5734 38.2402 72.7713 37.9623 72.2129 37.418C71.9307 38.1453 71.3145 38.7308 70.501 38.9385C69.2054 39.2691 67.9275 39.6449 66.6699 40.0645C65.8731 40.3303 65.0383 40.1702 64.4072 39.7109C64.2328 40.4719 63.7074 41.1402 62.9316 41.4629C61.6991 41.9754 60.4881 42.5313 59.3018 43.1279C58.551 43.5053 57.7022 43.466 57.0117 43.1016C56.9483 43.8803 56.5239 44.6183 55.8018 45.0488C54.6564 45.7317 53.537 46.4541 52.4463 47.2148M52.4463 47.2148L51.0176 45.1641H51.0166L52.4463 47.2148ZM52.4463 47.2148C51.7568 47.6956 50.9104 47.7782 50.1748 47.5156C50.2228 48.2955 49.9076 49.0864 49.2539 49.6152C48.2181 50.4532 47.2123 51.3276 46.2393 52.2363C45.6249 52.8099 44.7986 53.0121 44.0332 52.8564C44.1909 53.6215 43.9901 54.4485 43.418 55.0645L42.7451 55.8018C42.0785 56.5453 41.4313 57.3073 40.8047 58.0859C40.2779 58.7403 39.4893 59.0572 38.71 59.0117C38.9743 59.7466 38.892 60.5936 38.4131 61.2842C37.6551 62.3768 36.9352 63.4983 36.2549 64.6455C35.8262 65.3684 35.0897 65.7939 34.3115 65.8594C34.6776 66.5492 34.7177 67.3987 34.3418 68.1504C33.7477 69.338 33.1949 70.5503 32.6846 71.7842L32.5742 72.0146C32.2249 72.6645 31.6178 73.1037 30.9355 73.2617C31.3961 73.8921 31.5566 74.7279 31.292 75.5254C30.8744 76.7838 30.4999 78.062 30.1709 79.3584L30.0957 79.6035C29.843 80.2959 29.3051 80.8171 28.6533 81.0713C29.1986 81.6293 29.4759 82.4332 29.3281 83.2598C29.0951 84.5631 28.907 85.8825 28.7656 87.2158C28.677 88.0511 28.1855 88.7442 27.5059 89.1279C28.1255 89.6032 28.5148 90.3594 28.4854 91.1992C28.4621 91.8635 28.4502 92.5309 28.4502 93.2012L28.4648 94.4814C28.4753 94.9527 28.3522 95.3951 28.1338 95.7764C28.3857 96.1366 28.5473 96.5666 28.5791 97.0371L28.6797 98.3125L28.835 100.033L27.2812 100.787C26.6675 101.085 26.0613 101.397 25.4639 101.722C24.6912 102.142 23.7956 102.11 23.0762 101.72C23.0884 102.538 22.6996 103.346 21.9688 103.836C20.8348 104.596 19.7383 105.407 18.6826 106.265M18.6826 106.265L17.1084 104.325H17.1074L18.6826 106.265ZM18.6826 106.265C17.9997 106.82 17.1131 106.953 16.334 106.7C16.4964 107.503 16.2628 108.369 15.6338 108.984C14.66 109.937 13.731 110.935 12.8496 111.974C12.2805 112.644 11.4339 112.938 10.6221 112.833C10.9293 113.592 10.8582 114.486 10.3535 115.207C9.57371 116.321 8.84454 117.471 8.16992 118.656C7.73512 119.42 6.95903 119.866 6.14258 119.914C6.58455 120.602 6.68058 121.493 6.31934 122.294C5.76214 123.53 5.26189 124.796 4.82031 126.089C4.53649 126.92 3.8576 127.502 3.06543 127.703C3.6283 128.296 3.88961 129.152 3.68555 130.007C3.37169 131.321 3.11801 132.658 2.92676 134.016C2.80414 134.886 2.24622 135.587 1.50488 135.933C2.16961 136.41 2.58759 137.202 2.54688 138.08C2.5155 138.757 2.50001 139.438 2.5 140.123C2.5 140.767 2.51425 141.408 2.54199 142.045M2.54199 142.045L0.0449219 142.152L0.0458984 142.153L2.54199 142.045ZM2.54199 142.045C2.57661 142.841 2.23374 143.564 1.67383 144.047C2.24051 144.384 2.67071 144.94 2.83105 145.616L2.87695 145.868C3.04581 147.145 3.27049 148.404 3.54785 149.643C3.72167 150.419 3.51213 151.191 3.04688 151.765C3.66303 151.996 4.18294 152.467 4.45996 153.104L4.55078 153.343C4.94146 154.566 5.38522 155.765 5.87891 156.939C6.18754 157.673 6.11784 158.471 5.76074 159.118C6.48725 159.252 7.14825 159.703 7.52051 160.406C7.96996 161.256 8.44707 162.089 8.9502 162.905L9.46191 163.716C9.89478 164.385 9.966 165.182 9.72754 165.882C10.4667 165.886 11.1969 166.215 11.6865 166.843M11.6865 166.843L9.71777 168.377V168.378L11.6865 166.843ZM11.6865 166.843C12.4735 167.853 13.3043 168.828 14.1758 169.766C14.7185 170.349 14.9274 171.124 14.8135 171.854C15.5425 171.731 16.3191 171.927 16.9102 172.462C17.8589 173.32 18.8455 174.138 19.8672 174.912M19.8672 174.912L18.3584 176.901H18.3594L19.8672 174.912ZM19.8672 174.912C20.5021 175.393 20.8404 176.119 20.8545 176.858C21.476 176.638 22.1785 176.662 22.8018 176.972L23.0244 177.097C23.8349 177.607 24.6637 178.092 25.5088 178.55L26.3594 179C27.0679 179.364 27.5274 180.02 27.6689 180.746C28.2427 180.421 28.9385 180.325 29.6055 180.521L29.8477 180.606C30.7323 180.968 31.6315 181.302 32.5439 181.607L33.4609 181.903C34.2216 182.14 34.7877 182.706 35.0527 183.396C35.6235 182.927 36.3947 182.712 37.1729 182.882C38.1044 183.085 39.0471 183.259 40 183.402L40.9561 183.536C41.7474 183.638 42.4035 184.1 42.7832 184.735C43.2651 184.173 43.9891 183.829 44.7861 183.862C45.424 183.889 46.066 183.903 46.7109 183.903H48.6797C49.4801 183.903 50.1918 184.28 50.6494 184.865C51.107 184.28 51.8186 183.903 52.6191 183.903H56.5576C57.3581 183.903 58.0698 184.28 58.5273 184.865C58.9849 184.28 59.6966 183.903 60.4971 183.903H64.4355C65.236 183.903 65.9477 184.28 66.4053 184.865C66.8628 184.28 67.5745 183.903 68.375 183.903H72.3135C73.1143 183.903 73.8257 184.281 74.2832 184.866C74.7408 184.281 75.4522 183.903 76.2529 183.903H80.1914C80.9922 183.903 81.7036 184.281 82.1611 184.866C82.6186 184.281 83.3294 183.903 84.1299 183.903H88.0693C88.8701 183.903 89.5815 184.281 90.0391 184.866C90.4966 184.281 91.2073 183.903 92.0078 183.903H95.9473C96.748 183.903 97.4595 184.281 97.917 184.866C98.3745 184.281 99.0852 183.903 99.8857 183.903H103.825C104.626 183.903 105.337 184.281 105.795 184.866C106.252 184.281 106.963 183.903 107.764 183.903H111.702C112.503 183.903 113.214 184.28 113.672 184.865C114.129 184.28 114.841 183.903 115.642 183.903H119.58C120.381 183.903 121.092 184.28 121.55 184.865C122.007 184.28 122.719 183.903 123.52 183.903H127.458C128.259 183.903 128.97 184.28 129.428 184.865C129.885 184.28 130.597 183.903 131.397 183.903H135.336C136.137 183.903 136.848 184.281 137.306 184.866C137.763 184.281 138.475 183.903 139.275 183.903H143.214C144.015 183.903 144.726 184.281 145.184 184.866C145.641 184.281 146.352 183.903 147.152 183.903H151.092C151.893 183.903 152.604 184.281 153.062 184.866C153.519 184.281 154.23 183.903 155.03 183.903H158.97C159.77 183.903 160.482 184.281 160.939 184.866C161.397 184.281 162.108 183.903 162.908 183.903H166.848C167.648 183.903 168.36 184.281 168.817 184.866C169.275 184.281 169.986 183.903 170.786 183.903H174.725C175.525 183.903 176.237 184.28 176.694 184.865C177.152 184.28 177.864 183.903 178.664 183.903H182.603C183.403 183.903 184.115 184.28 184.572 184.865C185.03 184.28 185.742 183.903 186.542 183.903H190.48C191.281 183.903 191.993 184.28 192.45 184.865C192.908 184.28 193.619 183.903 194.42 183.903H198.358C199.159 183.903 199.871 184.281 200.328 184.866C200.786 184.281 201.497 183.903 202.298 183.903H206.236C207.037 183.903 207.749 184.281 208.206 184.866C208.664 184.281 209.374 183.903 210.175 183.903H214.114C214.915 183.903 215.626 184.281 216.084 184.866C216.541 184.281 217.252 183.903 218.053 183.903H221.992C222.793 183.903 223.504 184.281 223.962 184.866C224.419 184.281 225.13 183.903 225.931 183.903H229.87C230.671 183.903 231.382 184.281 231.84 184.866C232.297 184.281 233.008 183.903 233.809 183.903H237.747C238.548 183.903 239.259 184.28 239.717 184.865C240.174 184.28 240.886 183.903 241.687 183.903H245.625C246.425 183.903 247.137 184.28 247.595 184.865C248.052 184.28 248.764 183.903 249.564 183.903H253.503C254.303 183.903 255.015 184.28 255.473 184.865C255.93 184.28 256.642 183.903 257.442 183.903H261.381C262.182 183.903 262.893 184.281 263.351 184.866C263.808 184.281 264.519 183.903 265.319 183.903H267.289C267.934 183.903 268.576 183.889 269.214 183.862C270.011 183.829 270.736 184.173 271.218 184.735C271.598 184.1 272.253 183.638 273.044 183.536L274 183.402C274.953 183.259 275.896 183.085 276.827 182.882L277.08 182.84C277.771 182.761 278.439 182.978 278.948 183.396C279.213 182.707 279.779 182.14 280.539 181.903C281.768 181.522 282.974 181.089 284.153 180.606L284.395 180.521C285.062 180.325 285.758 180.421 286.332 180.746C286.474 180.02 286.932 179.364 287.641 179L288.491 178.55C289.336 178.092 290.165 177.607 290.976 177.097L291.198 176.972C291.822 176.662 292.525 176.637 293.146 176.858C293.161 176.119 293.498 175.393 294.133 174.912M294.133 174.912L295.642 176.901H295.643L294.133 174.912ZM294.133 174.912C295.155 174.138 296.141 173.32 297.09 172.462L297.288 172.301C297.849 171.888 298.537 171.744 299.188 171.854C299.074 171.124 299.281 170.349 299.824 169.766L300.471 169.056C301.109 168.339 301.723 167.6 302.313 166.843M302.313 166.843L304.283 168.378L304.284 168.377L302.313 166.843ZM302.313 166.843C302.803 166.214 303.534 165.886 304.273 165.882C304.035 165.182 304.105 164.385 304.538 163.716L305.05 162.905C305.553 162.089 306.03 161.256 306.479 160.406L306.61 160.187C306.996 159.608 307.592 159.237 308.24 159.118C307.883 158.471 307.812 157.674 308.121 156.939L308.482 156.055C308.834 155.165 309.156 154.26 309.449 153.343L309.54 153.104C309.817 152.466 310.338 151.996 310.954 151.765C310.489 151.191 310.278 150.419 310.452 149.643L310.65 148.71C310.838 147.773 310.996 146.826 311.123 145.868L311.17 145.616C311.33 144.939 311.76 144.384 312.327 144.047C311.767 143.564 311.423 142.841 311.458 142.045M311.458 142.045L313.955 142.153L313.956 142.152L311.458 142.045ZM311.458 142.045C311.486 141.408 311.5 140.767 311.5 140.123C311.5 139.504 311.487 138.888 311.461 138.275M311.461 138.275L313.959 138.171V138.17L311.461 138.275ZM311.461 138.275C311.429 137.523 311.737 136.835 312.244 136.355C311.663 135.967 311.246 135.341 311.151 134.594C310.995 133.364 310.786 132.15 310.529 130.955C310.371 130.219 310.556 129.49 310.975 128.932C310.337 128.648 309.82 128.102 309.6 127.383C309.328 126.497 309.028 125.622 308.702 124.761L308.367 123.904C308.086 123.206 308.145 122.456 308.462 121.834C307.863 121.682 307.322 121.313 306.97 120.764L306.843 120.542C306.425 119.716 305.981 118.905 305.513 118.109L305.037 117.32C304.641 116.679 304.573 115.93 304.78 115.264C304.084 115.209 303.413 114.867 302.965 114.262C302.415 113.519 301.842 112.793 301.246 112.087L300.643 111.387C300.145 110.821 299.951 110.093 300.045 109.4C299.429 109.456 298.795 109.286 298.281 108.883L298.088 108.715C297.2 107.861 296.277 107.044 295.319 106.266M295.319 106.266L296.896 104.326H296.896L295.319 106.266ZM295.319 106.266C294.735 105.79 294.423 105.106 294.4 104.407C293.802 104.564 293.148 104.502 292.574 104.189L292.355 104.056C291.594 103.536 290.815 103.038 290.02 102.565L289.219 102.101C288.563 101.729 288.143 101.105 288.004 100.42C287.44 100.674 286.786 100.721 286.168 100.509L285.93 100.414C285.094 100.028 284.243 99.6673 283.38 99.333L282.512 99.0078C281.804 98.7506 281.285 98.2057 281.034 97.5537C280.454 97.9429 279.716 98.0897 278.988 97.8926M278.988 97.8926L279.643 95.4795H279.642L278.988 97.8926ZM278.988 97.8926C278.395 97.7319 277.797 97.5829 277.194 97.4463L274.871 96.9199L275.284 94.5752L275.428 93.7344C275.474 93.4539 275.519 93.1731 275.562 92.8916L275.613 92.6406C275.756 92.089 276.079 91.6226 276.506 91.293C276.13 90.8011 275.934 90.1715 276.006 89.5078L276.094 88.6611C276.177 87.8139 276.245 86.9625 276.301 86.1074L276.331 85.8525C276.425 85.2906 276.706 84.7983 277.103 84.4326C276.685 83.975 276.434 83.3643 276.448 82.6963L276.462 81.8438L276.467 80.9893C276.467 80.3401 276.459 79.6922 276.443 79.0469C276.424 78.2521 276.779 77.5363 277.346 77.0645C276.802 76.6954 276.406 76.1183 276.285 75.4355L276.253 75.1807C276.181 74.2114 276.092 73.2471 275.985 72.2881L275.873 71.3301C275.775 70.5413 276.058 69.794 276.575 69.2686C275.998 68.9551 275.547 68.4202 275.359 67.7529L275.302 67.5029C275.079 66.2279 274.825 64.963 274.541 63.71C274.365 62.9352 274.572 62.1642 275.034 61.5898C274.354 61.3047 273.806 60.725 273.592 59.96C273.243 58.7145 272.863 57.4814 272.455 56.2617C272.203 55.5083 272.331 54.7202 272.733 54.1025C272.029 53.8867 271.425 53.3647 271.136 52.625C270.782 51.7223 270.412 50.8277 270.026 49.9414L269.636 49.0586C269.31 48.334 269.358 47.5367 269.697 46.8818C268.974 46.7372 268.322 46.2777 267.96 45.5703C267.372 44.4202 266.755 43.2867 266.112 42.1699M266.112 42.1699L268.279 40.9229H268.278L266.112 42.1699ZM266.112 42.1699C265.716 41.4809 265.686 40.6825 265.959 39.9971C265.305 39.9327 264.68 39.6148 264.248 39.0723L264.1 38.8643C263.401 37.7783 262.675 36.71 261.925 35.6611C261.462 35.0146 261.355 34.2234 261.559 33.5146C260.901 33.5151 260.248 33.2593 259.765 32.7617L259.596 32.5693C258.794 31.5577 257.968 30.5656 257.118 29.5947C256.595 28.9966 256.408 28.2196 256.542 27.4941C255.808 27.5664 255.049 27.3168 254.497 26.7451C253.601 25.8169 252.681 24.9103 251.74 24.0264M251.74 24.0264L253.452 22.2041H253.451L251.74 24.0264Z" stroke="black" stroke-opacity="0.23" stroke-width="5" stroke-linecap="round" stroke-dasharray="4 4"/>
<g filter="url(#filter4_di_740_1885)">
<path d="M118.5 145C100.012 169.333 74.1281 218 118.5 218C162.872 218 136.988 169.333 118.5 145Z" fill="#00BCFF"/>
</g>
<g filter="url(#filter5_di_740_1885)">
<path d="M264.5 136C246.012 160.333 220.128 209 264.5 209C308.872 209 282.988 160.333 264.5 136Z" fill="#00BCFF"/>
</g>
<g filter="url(#filter6_di_740_1885)">
<path d="M200.5 227C182.012 251.333 156.128 300 200.5 300C244.872 300 218.988 251.333 200.5 227Z" fill="#00BCFF"/>
</g>
<defs>
<filter id="filter0_i_740_1885" x="30" y="186" width="89" height="131.5" filterUnits="userSpaceOnUse" color-interpolation-filters="sRGB">
<feFlood flood-opacity="0" result="BackgroundImageFix"/>
<feBlend mode="normal" in="SourceGraphic" in2="BackgroundImageFix" result="shape"/>
<feColorMatrix in="SourceAlpha" type="matrix" values="0 0 0 0 0 0 0 0 0 0 0 0 0 0 0 0 0 0 127 0" result="hardAlpha"/>
<feOffset dx="-2"/>
<feGaussianBlur stdDeviation="4.5"/>
<feComposite in2="hardAlpha" operator="arithmetic" k2="-1" k3="1"/>
<feColorMatrix type="matrix" values="0 0 0 0 1 0 0 0 0 1 0 0 0 0 1 0 0 0 0.5 0"/>
<feBlend mode="normal" in2="shape" result="effect1_innerShadow_740_1885"/>
</filter>
<filter id="filter1_i_740_1885" x="136" y="141" width="89" height="131.5" filterUnits="userSpaceOnUse" color-interpolation-filters="sRGB">
<feFlood flood-opacity="0" result="BackgroundImageFix"/>
<feBlend mode="normal" in="SourceGraphic" in2="BackgroundImageFix" result="shape"/>
<feColorMatrix in="SourceAlpha" type="matrix" values="0 0 0 0 0 0 0 0 0 0 0 0 0 0 0 0 0 0 127 0" result="hardAlpha"/>
<feOffset dx="-2"/>
<feGaussianBlur stdDeviation="4.5"/>
<feComposite in2="hardAlpha" operator="arithmetic" k2="-1" k3="1"/>
<feColorMatrix type="matrix" values="0 0 0 0 1 0 0 0 0 1 0 0 0 0 1 0 0 0 0.5 0"/>
<feBlend mode="normal" in2="shape" result="effect1_innerShadow_740_1885"/>
</filter>
<filter id="filter3_i_740_1885" x="0" y="0" width="314" height="196.403" filterUnits="userSpaceOnUse" color-interpolation-filters="sRGB">
<feFlood flood-opacity="0" result="BackgroundImageFix"/>
<feBlend mode="normal" in="SourceGraphic" in2="BackgroundImageFix" result="shape"/>
<feColorMatrix in="SourceAlpha" type="matrix" values="0 0 0 0 0 0 0 0 0 0 0 0 0 0 0 0 0 0 127 0" result="hardAlpha"/>
<feOffset dy="11"/>
<feGaussianBlur stdDeviation="5"/>
<feComposite in2="hardAlpha" operator="arithmetic" k2="-1" k3="1"/>
<feColorMatrix type="matrix" values="0 0 0 0 1 0 0 0 0 1 0 0 0 0 1 0 0 0 1 0"/>
<feBlend mode="normal" in2="shape" result="effect1_innerShadow_740_1885"/>
</filter>
<filter id="filter4_di_740_1885" x="75" y="145" width="87" height="112" filterUnits="userSpaceOnUse" color-interpolation-filters="sRGB">
<feFlood flood-opacity="0" result="BackgroundImageFix"/>
<feColorMatrix in="SourceAlpha" type="matrix" values="0 0 0 0 0 0 0 0 0 0 0 0 0 0 0 0 0 0 127 0" result="hardAlpha"/>
<feOffset dy="20"/>
<feGaussianBlur stdDeviation="9.5"/>
<feComposite in2="hardAlpha" operator="out"/>
<feColorMatrix type="matrix" values="0 0 0 0 0.283785 0 0 0 0 0.178889 0 0 0 0 0.933333 0 0 0 1 0"/>
<feBlend mode="normal" in2="BackgroundImageFix" result="effect1_dropShadow_740_1885"/>
<feBlend mode="normal" in="SourceGraphic" in2="effect1_dropShadow_740_1885" result="shape"/>
<feColorMatrix in="SourceAlpha" type="matrix" values="0 0 0 0 0 0 0 0 0 0 0 0 0 0 0 0 0 0 127 0" result="hardAlpha"/>
<feOffset dy="9"/>
<feGaussianBlur stdDeviation="1.5"/>
<feComposite in2="hardAlpha" operator="arithmetic" k2="-1" k3="1"/>
<feColorMatrix type="matrix" values="0 0 0 0 1 0 0 0 0 1 0 0 0 0 1 0 0 0 0.21 0"/>
<feBlend mode="normal" in2="shape" result="effect2_innerShadow_740_1885"/>
</filter>
<filter id="filter5_di_740_1885" x="221" y="136" width="87" height="112" filterUnits="userSpaceOnUse" color-interpolation-filters="sRGB">
<feFlood flood-opacity="0" result="BackgroundImageFix"/>
<feColorMatrix in="SourceAlpha" type="matrix" values="0 0 0 0 0 0 0 0 0 0 0 0 0 0 0 0 0 0 127 0" result="hardAlpha"/>
<feOffset dy="20"/>
<feGaussianBlur stdDeviation="9.5"/>
<feComposite in2="hardAlpha" operator="out"/>
<feColorMatrix type="matrix" values="0 0 0 0 0.283785 0 0 0 0 0.178889 0 0 0 0 0.933333 0 0 0 1 0"/>
<feBlend mode="normal" in2="BackgroundImageFix" result="effect1_dropShadow_740_1885"/>
<feBlend mode="normal" in="SourceGraphic" in2="effect1_dropShadow_740_1885" result="shape"/>
<feColorMatrix in="SourceAlpha" type="matrix" values="0 0 0 0 0 0 0 0 0 0 0 0 0 0 0 0 0 0 127 0" result="hardAlpha"/>
<feOffset dy="9"/>
<feGaussianBlur stdDeviation="1.5"/>
<feComposite in2="hardAlpha" operator="arithmetic" k2="-1" k3="1"/>
<feColorMatrix type="matrix" values="0 0 0 0 1 0 0 0 0 1 0 0 0 0 1 0 0 0 0.21 0"/>
<feBlend mode="normal" in2="shape" result="effect2_innerShadow_740_1885"/>
</filter>
<filter id="filter6_di_740_1885" x="157" y="227" width="87" height="112" filterUnits="userSpaceOnUse" color-interpolation-filters="sRGB">
<feFlood flood-opacity="0" result="BackgroundImageFix"/>
<feColorMatrix in="SourceAlpha" type="matrix" values="0 0 0 0 0 0 0 0 0 0 0 0 0 0 0 0 0 0 127 0" result="hardAlpha"/>
<feOffset dy="20"/>
<feGaussianBlur stdDeviation="9.5"/>
<feComposite in2="hardAlpha" operator="out"/>
<feColorMatrix type="matrix" values="0 0 0 0 0.283785 0 0 0 0 0.178889 0 0 0 0 0.933333 0 0 0 1 0"/>
<feBlend mode="normal" in2="BackgroundImageFix" result="effect1_dropShadow_740_1885"/>
<feBlend mode="normal" in="SourceGraphic" in2="effect1_dropShadow_740_1885" result="shape"/>
<feColorMatrix in="SourceAlpha" type="matrix" values="0 0 0 0 0 0 0 0 0 0 0 0 0 0 0 0 0 0 127 0" result="hardAlpha"/>
<feOffset dy="9"/>
<feGaussianBlur stdDeviation="1.5"/>
<feComposite in2="hardAlpha" operator="arithmetic" k2="-1" k3="1"/>
<feColorMatrix type="matrix" values="0 0 0 0 1 0 0 0 0 1 0 0 0 0 1 0 0 0 0.21 0"/>
<feBlend mode="normal" in2="shape" result="effect2_innerShadow_740_1885"/>
</filter>
<linearGradient id="paint0_linear_740_1885" x1="64.7472" y1="304.833" x2="149.616" y2="187.678" gradientUnits="userSpaceOnUse">
<stop stop-color="#FF9900"/>
<stop offset="1" stop-color="#FFEE94"/>
</linearGradient>
<linearGradient id="paint1_linear_740_1885" x1="170.747" y1="259.833" x2="255.616" y2="142.678" gradientUnits="userSpaceOnUse">
<stop stop-color="#FF9900"/>
<stop offset="1" stop-color="#FFEE94"/>
</linearGradient>
<linearGradient id="paint2_linear_740_1885" x1="19.9717" y1="169.76" x2="336.746" y2="-67.1272" gradientUnits="userSpaceOnUse">
<stop stop-color="white"/>
<stop offset="1" stop-color="white" stop-opacity="0.58"/>
</linearGradient>
</defs>
</svg>
