<svg width="389" height="84" viewBox="0 0 389 84" fill="none" xmlns="http://www.w3.org/2000/svg">
<g clip-path="url(#clip0_1006_1376)">
<path d="M17.5994 12.0473C24.5371 8.08793 31.2611 4.24625 37.9939 0.426368C38.5103 0.129485 39.0993 -0.0175811 39.6947 0.0016753C40.2901 0.0209317 40.8684 0.205749 41.3646 0.535383C53.6557 7.58501 65.9453 14.6434 78.2334 21.7104C78.4442 21.8616 78.6194 22.057 78.7466 22.283C78.8739 22.5089 78.9503 22.76 78.9704 23.0186C79.0052 37.1033 79.027 51.1924 78.9311 65.2771C78.8954 65.8018 78.7463 66.3125 78.4941 66.774C78.2419 67.2354 77.8926 67.6367 77.4703 67.9502C70.8466 71.8747 64.1313 75.6379 57.4377 79.4447C57.3723 79.4839 57.259 79.4447 56.9799 79.4447V77.8182C56.9799 64.0169 56.9799 50.2156 57.0104 36.4143C57.0104 35.1062 56.6441 34.4085 55.5016 33.7631C43.1786 26.7862 30.8716 19.7612 18.5805 12.6884C18.3145 12.5357 18.0441 12.3439 17.5994 12.0473Z" fill="#0EA5E9"/>
<path d="M28.5532 83.3605V81.6468C28.5532 71.9575 28.527 62.2683 28.5837 52.5791C28.5837 51.3101 28.1476 50.6648 27.0924 50.0586C18.5325 45.2315 10.0294 40.3432 1.47824 35.4724C1.07271 35.2413 0.671531 34.9971 0 34.6003C0.29216 34.4608 0.462223 34.3954 0.623565 34.3038C6.23565 31.077 11.8695 27.8981 17.4424 24.6146C19.095 23.6465 20.521 23.6378 22.1954 24.6146C30.4951 29.4199 38.8209 34.1773 47.1729 38.8868C47.5516 39.0512 47.8693 39.3302 48.0812 39.6845C48.2932 40.0389 48.3888 40.4507 48.3546 40.8621C48.3139 50.5514 48.3139 60.2406 48.3546 69.9299C48.3546 71.3863 47.8837 72.4982 46.6104 73.2308L29.3468 83.0465C29.0878 83.1647 28.8229 83.2695 28.5532 83.3605Z" fill="#0EA5E9"/>
<path d="M19.8102 55.8539V78.481L0.0218506 67.1435L19.8102 55.8539Z" fill="#0EA5E9"/>
</g>
<path d="M119.16 59L112.152 46.28H110.184V59H101.976V25.304H115.752C118.408 25.304 120.664 25.768 122.52 26.696C124.408 27.624 125.816 28.904 126.744 30.536C127.672 32.136 128.136 33.928 128.136 35.912C128.136 38.152 127.496 40.152 126.216 41.912C124.968 43.672 123.112 44.92 120.648 45.656L128.424 59H119.16ZM110.184 40.472H115.272C116.776 40.472 117.896 40.104 118.632 39.368C119.4 38.632 119.784 37.592 119.784 36.248C119.784 34.968 119.4 33.96 118.632 33.224C117.896 32.488 116.776 32.12 115.272 32.12H110.184V40.472ZM158.536 45.176C158.536 45.944 158.489 46.744 158.393 47.576H139.817C139.945 49.24 140.473 50.52 141.401 51.416C142.361 52.28 143.529 52.712 144.905 52.712C146.953 52.712 148.377 51.848 149.177 50.12H157.913C157.465 51.88 156.649 53.464 155.465 54.872C154.313 56.28 152.857 57.384 151.097 58.184C149.337 58.984 147.369 59.384 145.193 59.384C142.569 59.384 140.233 58.824 138.185 57.704C136.137 56.584 134.537 54.984 133.385 52.904C132.233 50.824 131.657 48.392 131.657 45.608C131.657 42.824 132.217 40.392 133.337 38.312C134.489 36.232 136.089 34.632 138.137 33.512C140.185 32.392 142.537 31.832 145.193 31.832C147.785 31.832 150.089 32.376 152.105 33.464C154.121 34.552 155.689 36.104 156.809 38.12C157.961 40.136 158.536 42.488 158.536 45.176ZM150.137 43.016C150.137 41.608 149.657 40.488 148.697 39.656C147.737 38.824 146.537 38.408 145.097 38.408C143.721 38.408 142.553 38.808 141.593 39.608C140.665 40.408 140.089 41.544 139.865 43.016H150.137ZM173.763 59.384C171.427 59.384 169.347 58.984 167.523 58.184C165.699 57.384 164.259 56.296 163.203 54.92C162.147 53.512 161.555 51.944 161.427 50.216H169.539C169.635 51.144 170.067 51.896 170.835 52.472C171.603 53.048 172.547 53.336 173.667 53.336C174.691 53.336 175.475 53.144 176.019 52.76C176.595 52.344 176.883 51.816 176.883 51.176C176.883 50.408 176.483 49.848 175.683 49.496C174.883 49.112 173.587 48.696 171.795 48.248C169.875 47.8 168.275 47.336 166.995 46.856C165.715 46.344 164.611 45.56 163.683 44.504C162.755 43.416 162.291 41.96 162.291 40.136C162.291 38.6 162.707 37.208 163.539 35.96C164.403 34.68 165.651 33.672 167.283 32.936C168.947 32.2 170.915 31.832 173.187 31.832C176.547 31.832 179.187 32.664 181.107 34.328C183.059 35.992 184.179 38.2 184.467 40.952H176.883C176.755 40.024 176.339 39.288 175.635 38.744C174.963 38.2 174.067 37.928 172.947 37.928C171.987 37.928 171.251 38.12 170.739 38.504C170.227 38.856 169.971 39.352 169.971 39.992C169.971 40.76 170.371 41.336 171.171 41.72C172.003 42.104 173.283 42.488 175.011 42.872C176.995 43.384 178.611 43.896 179.859 44.408C181.107 44.888 182.195 45.688 183.123 46.808C184.083 47.896 184.579 49.368 184.611 51.224C184.611 52.792 184.163 54.2 183.267 55.448C182.403 56.664 181.139 57.624 179.475 58.328C177.843 59.032 175.939 59.384 173.763 59.384ZM188 45.608C188 42.824 188.56 40.392 189.68 38.312C190.832 36.232 192.416 34.632 194.432 33.512C196.48 32.392 198.816 31.832 201.44 31.832C204.8 31.832 207.6 32.712 209.84 34.472C212.112 36.232 213.6 38.712 214.304 41.912H205.568C204.832 39.864 203.408 38.84 201.296 38.84C199.792 38.84 198.592 39.432 197.696 40.616C196.8 41.768 196.352 43.432 196.352 45.608C196.352 47.784 196.8 49.464 197.696 50.648C198.592 51.8 199.792 52.376 201.296 52.376C203.408 52.376 204.832 51.352 205.568 49.304H214.304C213.6 52.44 212.112 54.904 209.84 56.696C207.568 58.488 204.768 59.384 201.44 59.384C198.816 59.384 196.48 58.824 194.432 57.704C192.416 56.584 190.832 54.984 189.68 52.904C188.56 50.824 188 48.392 188 45.608ZM245.143 32.216V59H236.935V55.352C236.103 56.536 234.967 57.496 233.527 58.232C232.119 58.936 230.551 59.288 228.823 59.288C226.775 59.288 224.967 58.84 223.399 57.944C221.831 57.016 220.615 55.688 219.751 53.96C218.887 52.232 218.455 50.2 218.455 47.864V32.216H226.615V46.76C226.615 48.552 227.079 49.944 228.007 50.936C228.935 51.928 230.183 52.424 231.751 52.424C233.351 52.424 234.615 51.928 235.543 50.936C236.471 49.944 236.935 48.552 236.935 46.76V32.216H245.143ZM276.286 45.176C276.286 45.944 276.239 46.744 276.143 47.576H257.567C257.695 49.24 258.223 50.52 259.151 51.416C260.111 52.28 261.279 52.712 262.655 52.712C264.703 52.712 266.127 51.848 266.927 50.12H275.663C275.215 51.88 274.399 53.464 273.215 54.872C272.063 56.28 270.607 57.384 268.847 58.184C267.087 58.984 265.119 59.384 262.943 59.384C260.319 59.384 257.983 58.824 255.935 57.704C253.887 56.584 252.287 54.984 251.135 52.904C249.983 50.824 249.407 48.392 249.407 45.608C249.407 42.824 249.967 40.392 251.087 38.312C252.239 36.232 253.839 34.632 255.887 33.512C257.935 32.392 260.287 31.832 262.943 31.832C265.535 31.832 267.839 32.376 269.855 33.464C271.871 34.552 273.439 36.104 274.559 38.12C275.711 40.136 276.286 42.488 276.286 45.176ZM267.887 43.016C267.887 41.608 267.407 40.488 266.447 39.656C265.487 38.824 264.287 38.408 262.847 38.408C261.471 38.408 260.303 38.808 259.343 39.608C258.415 40.408 257.839 41.544 257.615 43.016H267.887ZM296.937 31.928C300.073 31.928 302.569 32.952 304.425 35C306.313 37.016 307.257 39.8 307.257 43.352V59H299.097V44.456C299.097 42.664 298.633 41.272 297.705 40.28C296.777 39.288 295.529 38.792 293.961 38.792C292.393 38.792 291.145 39.288 290.217 40.28C289.289 41.272 288.825 42.664 288.825 44.456V59H280.617V32.216H288.825V35.768C289.657 34.584 290.777 33.656 292.185 32.984C293.593 32.28 295.177 31.928 296.937 31.928ZM338.208 45.176C338.208 45.944 338.16 46.744 338.064 47.576H319.488C319.616 49.24 320.144 50.52 321.072 51.416C322.032 52.28 323.2 52.712 324.576 52.712C326.624 52.712 328.048 51.848 328.848 50.12H337.584C337.136 51.88 336.32 53.464 335.136 54.872C333.984 56.28 332.528 57.384 330.768 58.184C329.008 58.984 327.04 59.384 324.864 59.384C322.24 59.384 319.904 58.824 317.856 57.704C315.808 56.584 314.208 54.984 313.056 52.904C311.904 50.824 311.328 48.392 311.328 45.608C311.328 42.824 311.888 40.392 313.008 38.312C314.16 36.232 315.76 34.632 317.808 33.512C319.856 32.392 322.208 31.832 324.864 31.832C327.456 31.832 329.76 32.376 331.776 33.464C333.792 34.552 335.36 36.104 336.48 38.12C337.632 40.136 338.208 42.488 338.208 45.176ZM329.808 43.016C329.808 41.608 329.328 40.488 328.368 39.656C327.408 38.824 326.208 38.408 324.768 38.408C323.392 38.408 322.224 38.808 321.264 39.608C320.336 40.408 319.76 41.544 319.536 43.016H329.808ZM340.907 45.608C340.907 42.824 341.467 40.392 342.587 38.312C343.739 36.232 345.323 34.632 347.339 33.512C349.387 32.392 351.723 31.832 354.347 31.832C357.707 31.832 360.507 32.712 362.747 34.472C365.019 36.232 366.507 38.712 367.211 41.912H358.475C357.739 39.864 356.315 38.84 354.203 38.84C352.699 38.84 351.499 39.432 350.603 40.616C349.707 41.768 349.259 43.432 349.259 45.608C349.259 47.784 349.707 49.464 350.603 50.648C351.499 51.8 352.699 52.376 354.203 52.376C356.315 52.376 357.739 51.352 358.475 49.304H367.211C366.507 52.44 365.019 54.904 362.747 56.696C360.475 58.488 357.675 59.384 354.347 59.384C351.723 59.384 349.387 58.824 347.339 57.704C345.323 56.584 343.739 54.984 342.587 52.904C341.467 50.824 340.907 48.392 340.907 45.608ZM386.529 52.04V59H382.353C379.377 59 377.057 58.28 375.393 56.84C373.729 55.368 372.897 52.984 372.897 49.688V39.032H369.633V32.216H372.897V25.688H381.105V32.216H386.481V39.032H381.105V49.784C381.105 50.584 381.297 51.16 381.681 51.512C382.065 51.864 382.705 52.04 383.601 52.04H386.529Z" fill="#0EA5E9"/>
<defs>
<clipPath id="clip0_1006_1376">
<rect width="79" height="83.3605" fill="white"/>
</clipPath>
</defs>
</svg>
