<svg width="290" height="155" viewBox="0 0 290 155" fill="none" xmlns="http://www.w3.org/2000/svg">
<g clip-path="url(#clip0_1006_1368)">
<path d="M122.599 12.0473C129.537 8.08793 136.261 4.24625 142.994 0.426368C143.51 0.129485 144.099 -0.0175811 144.695 0.0016753C145.29 0.0209317 145.868 0.205749 146.365 0.535383C158.656 7.58501 170.945 14.6434 183.233 21.7104C183.444 21.8616 183.619 22.057 183.747 22.283C183.874 22.5089 183.95 22.76 183.97 23.0186C184.005 37.1033 184.027 51.1924 183.931 65.2771C183.895 65.8018 183.746 66.3125 183.494 66.774C183.242 67.2354 182.893 67.6367 182.47 67.9502C175.847 71.8747 169.131 75.6379 162.438 79.4447C162.372 79.4839 162.259 79.4447 161.98 79.4447V77.8182C161.98 64.0169 161.98 50.2156 162.01 36.4143C162.01 35.1062 161.644 34.4085 160.502 33.7631C148.179 26.7862 135.872 19.7612 123.58 12.6884C123.315 12.5357 123.044 12.3439 122.599 12.0473Z" fill="#0EA5E9"/>
<path d="M133.553 83.3605V81.6468C133.553 71.9575 133.527 62.2683 133.584 52.5791C133.584 51.3101 133.148 50.6648 132.092 50.0586C123.533 45.2315 115.029 40.3432 106.478 35.4724C106.073 35.2413 105.672 34.9971 105 34.6003C105.292 34.4608 105.462 34.3954 105.624 34.3038C111.236 31.077 116.87 27.8981 122.442 24.6146C124.095 23.6465 125.521 23.6378 127.195 24.6146C135.495 29.4199 143.821 34.1773 152.173 38.8868C152.552 39.0512 152.869 39.3302 153.081 39.6845C153.293 40.0389 153.389 40.4507 153.355 40.8621C153.314 50.5514 153.314 60.2406 153.355 69.9299C153.355 71.3863 152.884 72.4982 151.61 73.2308L134.347 83.0465C134.088 83.1647 133.823 83.2695 133.553 83.3605Z" fill="#0EA5E9"/>
<path d="M124.81 55.8539V78.481L105.022 67.1435L124.81 55.8539Z" fill="#0EA5E9"/>
</g>
<path d="M20.16 136L13.152 123.28H11.184V136H2.976V102.304H16.752C19.408 102.304 21.664 102.768 23.52 103.696C25.408 104.624 26.816 105.904 27.744 107.536C28.672 109.136 29.136 110.928 29.136 112.912C29.136 115.152 28.496 117.152 27.216 118.912C25.968 120.672 24.112 121.92 21.648 122.656L29.424 136H20.16ZM11.184 117.472H16.272C17.776 117.472 18.896 117.104 19.632 116.368C20.4 115.632 20.784 114.592 20.784 113.248C20.784 111.968 20.4 110.96 19.632 110.224C18.896 109.488 17.776 109.12 16.272 109.12H11.184V117.472ZM59.5365 122.176C59.5365 122.944 59.4885 123.744 59.3925 124.576H40.8165C40.9445 126.24 41.4725 127.52 42.4005 128.416C43.3605 129.28 44.5285 129.712 45.9045 129.712C47.9525 129.712 49.3765 128.848 50.1765 127.12H58.9125C58.4645 128.88 57.6485 130.464 56.4645 131.872C55.3125 133.28 53.8565 134.384 52.0965 135.184C50.3365 135.984 48.3685 136.384 46.1925 136.384C43.5685 136.384 41.2325 135.824 39.1845 134.704C37.1365 133.584 35.5365 131.984 34.3845 129.904C33.2325 127.824 32.6565 125.392 32.6565 122.608C32.6565 119.824 33.2165 117.392 34.3365 115.312C35.4885 113.232 37.0885 111.632 39.1365 110.512C41.1845 109.392 43.5365 108.832 46.1925 108.832C48.7845 108.832 51.0885 109.376 53.1045 110.464C55.1205 111.552 56.6885 113.104 57.8085 115.12C58.9605 117.136 59.5365 119.488 59.5365 122.176ZM51.1365 120.016C51.1365 118.608 50.6565 117.488 49.6965 116.656C48.7365 115.824 47.5365 115.408 46.0965 115.408C44.7205 115.408 43.5525 115.808 42.5925 116.608C41.6645 117.408 41.0885 118.544 40.8645 120.016H51.1365ZM74.7626 136.384C72.4266 136.384 70.3466 135.984 68.5226 135.184C66.6986 134.384 65.2586 133.296 64.2026 131.92C63.1466 130.512 62.5546 128.944 62.4266 127.216H70.5386C70.6346 128.144 71.0666 128.896 71.8346 129.472C72.6026 130.048 73.5466 130.336 74.6666 130.336C75.6906 130.336 76.4746 130.144 77.0186 129.76C77.5946 129.344 77.8826 128.816 77.8826 128.176C77.8826 127.408 77.4826 126.848 76.6826 126.496C75.8826 126.112 74.5866 125.696 72.7946 125.248C70.8746 124.8 69.2746 124.336 67.9946 123.856C66.7146 123.344 65.6106 122.56 64.6826 121.504C63.7546 120.416 63.2906 118.96 63.2906 117.136C63.2906 115.6 63.7066 114.208 64.5386 112.96C65.4026 111.68 66.6506 110.672 68.2826 109.936C69.9466 109.2 71.9146 108.832 74.1866 108.832C77.5466 108.832 80.1866 109.664 82.1066 111.328C84.0586 112.992 85.1786 115.2 85.4666 117.952H77.8826C77.7546 117.024 77.3386 116.288 76.6346 115.744C75.9626 115.2 75.0666 114.928 73.9466 114.928C72.9866 114.928 72.2506 115.12 71.7386 115.504C71.2266 115.856 70.9706 116.352 70.9706 116.992C70.9706 117.76 71.3706 118.336 72.1706 118.72C73.0026 119.104 74.2826 119.488 76.0106 119.872C77.9946 120.384 79.6106 120.896 80.8586 121.408C82.1066 121.888 83.1946 122.688 84.1226 123.808C85.0826 124.896 85.5786 126.368 85.6106 128.224C85.6106 129.792 85.1626 131.2 84.2666 132.448C83.4026 133.664 82.1386 134.624 80.4746 135.328C78.8426 136.032 76.9386 136.384 74.7626 136.384ZM89.0003 122.608C89.0003 119.824 89.5603 117.392 90.6803 115.312C91.8323 113.232 93.4163 111.632 95.4323 110.512C97.4803 109.392 99.8163 108.832 102.44 108.832C105.8 108.832 108.6 109.712 110.84 111.472C113.112 113.232 114.6 115.712 115.304 118.912H106.568C105.832 116.864 104.408 115.84 102.296 115.84C100.792 115.84 99.5923 116.432 98.6963 117.616C97.8003 118.768 97.3523 120.432 97.3523 122.608C97.3523 124.784 97.8003 126.464 98.6963 127.648C99.5923 128.8 100.792 129.376 102.296 129.376C104.408 129.376 105.832 128.352 106.568 126.304H115.304C114.6 129.44 113.112 131.904 110.84 133.696C108.568 135.488 105.768 136.384 102.44 136.384C99.8163 136.384 97.4803 135.824 95.4323 134.704C93.4163 133.584 91.8323 131.984 90.6803 129.904C89.5603 127.824 89.0003 125.392 89.0003 122.608ZM146.143 109.216V136H137.935V132.352C137.103 133.536 135.967 134.496 134.527 135.232C133.119 135.936 131.551 136.288 129.823 136.288C127.775 136.288 125.967 135.84 124.399 134.944C122.831 134.016 121.615 132.688 120.751 130.96C119.887 129.232 119.455 127.2 119.455 124.864V109.216H127.615V123.76C127.615 125.552 128.079 126.944 129.007 127.936C129.935 128.928 131.183 129.424 132.751 129.424C134.351 129.424 135.615 128.928 136.543 127.936C137.471 126.944 137.935 125.552 137.935 123.76V109.216H146.143ZM177.286 122.176C177.286 122.944 177.239 123.744 177.143 124.576H158.567C158.695 126.24 159.223 127.52 160.151 128.416C161.111 129.28 162.279 129.712 163.655 129.712C165.703 129.712 167.127 128.848 167.927 127.12H176.663C176.215 128.88 175.399 130.464 174.215 131.872C173.063 133.28 171.607 134.384 169.847 135.184C168.087 135.984 166.119 136.384 163.943 136.384C161.319 136.384 158.983 135.824 156.935 134.704C154.887 133.584 153.287 131.984 152.135 129.904C150.983 127.824 150.407 125.392 150.407 122.608C150.407 119.824 150.967 117.392 152.087 115.312C153.239 113.232 154.839 111.632 156.887 110.512C158.935 109.392 161.287 108.832 163.943 108.832C166.535 108.832 168.839 109.376 170.855 110.464C172.871 111.552 174.439 113.104 175.559 115.12C176.711 117.136 177.286 119.488 177.286 122.176ZM168.887 120.016C168.887 118.608 168.407 117.488 167.447 116.656C166.487 115.824 165.287 115.408 163.847 115.408C162.471 115.408 161.303 115.808 160.343 116.608C159.415 117.408 158.839 118.544 158.615 120.016H168.887ZM197.937 108.928C201.073 108.928 203.569 109.952 205.425 112C207.313 114.016 208.257 116.8 208.257 120.352V136H200.097V121.456C200.097 119.664 199.633 118.272 198.705 117.28C197.777 116.288 196.529 115.792 194.961 115.792C193.393 115.792 192.145 116.288 191.217 117.28C190.289 118.272 189.825 119.664 189.825 121.456V136H181.617V109.216H189.825V112.768C190.657 111.584 191.777 110.656 193.185 109.984C194.593 109.28 196.177 108.928 197.937 108.928ZM239.208 122.176C239.208 122.944 239.16 123.744 239.064 124.576H220.488C220.616 126.24 221.144 127.52 222.072 128.416C223.032 129.28 224.2 129.712 225.576 129.712C227.624 129.712 229.048 128.848 229.848 127.12H238.584C238.136 128.88 237.32 130.464 236.136 131.872C234.984 133.28 233.528 134.384 231.768 135.184C230.008 135.984 228.04 136.384 225.864 136.384C223.24 136.384 220.904 135.824 218.856 134.704C216.808 133.584 215.208 131.984 214.056 129.904C212.904 127.824 212.328 125.392 212.328 122.608C212.328 119.824 212.888 117.392 214.008 115.312C215.16 113.232 216.76 111.632 218.808 110.512C220.856 109.392 223.208 108.832 225.864 108.832C228.456 108.832 230.76 109.376 232.776 110.464C234.792 111.552 236.36 113.104 237.48 115.12C238.632 117.136 239.208 119.488 239.208 122.176ZM230.808 120.016C230.808 118.608 230.328 117.488 229.368 116.656C228.408 115.824 227.208 115.408 225.768 115.408C224.392 115.408 223.224 115.808 222.264 116.608C221.336 117.408 220.76 118.544 220.536 120.016H230.808ZM241.907 122.608C241.907 119.824 242.467 117.392 243.587 115.312C244.739 113.232 246.323 111.632 248.339 110.512C250.387 109.392 252.723 108.832 255.347 108.832C258.707 108.832 261.507 109.712 263.747 111.472C266.019 113.232 267.507 115.712 268.211 118.912H259.475C258.739 116.864 257.315 115.84 255.203 115.84C253.699 115.84 252.499 116.432 251.603 117.616C250.707 118.768 250.259 120.432 250.259 122.608C250.259 124.784 250.707 126.464 251.603 127.648C252.499 128.8 253.699 129.376 255.203 129.376C257.315 129.376 258.739 128.352 259.475 126.304H268.211C267.507 129.44 266.019 131.904 263.747 133.696C261.475 135.488 258.675 136.384 255.347 136.384C252.723 136.384 250.387 135.824 248.339 134.704C246.323 133.584 244.739 131.984 243.587 129.904C242.467 127.824 241.907 125.392 241.907 122.608ZM287.529 129.04V136H283.353C280.377 136 278.057 135.28 276.393 133.84C274.729 132.368 273.897 129.984 273.897 126.688V116.032H270.633V109.216H273.897V102.688H282.105V109.216H287.481V116.032H282.105V126.784C282.105 127.584 282.297 128.16 282.681 128.512C283.065 128.864 283.705 129.04 284.601 129.04H287.529Z" fill="#0EA5E9"/>
<defs>
<clipPath id="clip0_1006_1368">
<rect width="79" height="83.3605" fill="white" transform="translate(105)"/>
</clipPath>
</defs>
</svg>
