<svg width="374" height="200" viewBox="0 0 374 200" fill="none" xmlns="http://www.w3.org/2000/svg">
<g filter="url(#filter0_i_738_1855)">
<path d="M357.605 58.8143C357.968 56.7622 358.157 54.6512 358.157 52.4966C358.157 32.3401 341.606 16 321.19 16C306.012 16 292.971 25.0306 287.278 37.9464C282.666 34.015 276.681 31.6414 270.14 31.6414C255.557 31.6414 243.736 43.4425 243.736 58C243.736 58.8106 243.772 59.6127 243.844 60.4047C236.83 63.7966 232 70.9139 232 79.1448C232 90.6628 241.458 100 253.124 100H352.876C364.542 100 374 90.6628 374 79.1448C374 69.232 366.995 60.9344 357.605 58.8143Z" fill="url(#paint0_linear_738_1855)"/>
</g>
<path d="M319.193 18.5557L319.054 16.0596H319.055L319.193 18.5557ZM319.193 18.5557C318.341 18.6035 317.565 18.2179 317.078 17.5908C316.744 18.3109 316.075 18.8613 315.233 19.0059L314.247 19.1895C313.266 19.3872 312.301 19.6263 311.353 19.9043L311.104 19.9639C310.366 20.1013 309.63 19.8939 309.076 19.4453C308.915 20.2222 308.388 20.9103 307.603 21.2432C306.374 21.7636 305.181 22.3523 304.031 23.0049C303.289 23.4259 302.423 23.4243 301.709 23.0791C301.73 23.8725 301.376 24.6631 300.687 25.167C299.612 25.9525 298.586 26.7976 297.612 27.6982C296.986 28.2775 296.144 28.4739 295.37 28.3018C295.572 29.0689 295.407 29.9194 294.852 30.5674C293.988 31.5749 293.183 32.6321 292.442 33.7344C291.967 34.4415 291.193 34.8265 290.401 34.8379C290.775 35.5368 290.81 36.401 290.421 37.1592C290.119 37.748 289.833 38.3473 289.565 38.9551L288.211 42.0273L285.656 39.8486C285.255 39.5065 284.842 39.1777 284.418 38.8623L283.991 38.5518C283.19 37.9822 282.828 37.0273 282.974 36.1182C282.252 36.6895 281.243 36.8416 280.354 36.4219C279.251 35.9005 278.101 35.4609 276.913 35.1113L276.401 34.9678C275.453 34.7116 274.783 33.9416 274.604 33.0391C274.167 33.7567 273.385 34.2298 272.507 34.2422L272.251 34.2334C271.556 34.1728 270.852 34.1416 270.141 34.1416C269.508 34.1416 268.881 34.1659 268.262 34.2139C267.473 34.275 266.742 33.9616 266.241 33.4248C265.929 34.0891 265.329 34.6112 264.56 34.7949L264.101 34.9092C263.035 35.186 261.998 35.5337 260.996 35.9482C260.265 36.2506 259.474 36.1792 258.831 35.8242C258.74 36.5528 258.332 37.235 257.657 37.6484C256.587 38.3036 255.572 39.0413 254.622 39.8516C254.02 40.365 253.244 40.5402 252.523 40.4004C252.662 41.1223 252.482 41.8985 251.967 42.5L251.666 42.8584C250.971 43.7021 250.333 44.5941 249.758 45.5283M319.193 18.5557C319.854 18.5185 320.52 18.5 321.19 18.5C321.837 18.5 322.478 18.5172 323.115 18.5518L323.371 18.5527C324.076 18.5196 324.709 18.1901 325.146 17.6826C325.5 18.3427 326.142 18.8389 326.938 18.9707L327.891 19.1416C328.838 19.3257 329.772 19.5478 330.689 19.8066C331.465 20.0254 332.257 19.851 332.857 19.4053C333.058 20.1258 333.575 20.75 334.321 21.0537M249.758 45.5283L247.631 44.2168V44.2178L249.758 45.5283ZM249.758 45.5283C249.343 46.2018 248.66 46.6068 247.932 46.6963C248.286 47.3395 248.354 48.1317 248.051 48.8623C247.575 50.0066 247.186 51.1959 246.892 52.4219L246.819 52.668C246.592 53.3185 246.113 53.8228 245.521 54.1006C246.058 54.6018 246.37 55.3333 246.309 56.1221C246.26 56.7412 246.235 57.3676 246.235 58C246.235 58.1825 246.237 58.3645 246.241 58.5459C246.245 58.7337 246.228 58.9169 246.192 59.0938C246.244 59.2669 246.278 59.4481 246.291 59.6357C246.303 59.8173 246.318 59.9983 246.334 60.1787L246.49 61.9023L244.933 62.6553C244.415 62.9054 243.911 63.1789 243.422 63.4736M243.422 63.4736L242.134 61.334H242.133L243.422 63.4736ZM243.422 63.4736C242.819 63.8367 242.126 63.9141 241.495 63.748C241.466 64.3996 241.185 65.0394 240.659 65.5068C239.802 66.2682 239.017 67.1068 238.316 68.0107C237.886 68.566 237.267 68.888 236.62 68.9609C236.829 69.5777 236.799 70.2748 236.479 70.9004L236.29 71.2812C235.859 72.1758 235.5 73.11 235.219 74.0762C235.023 74.7488 234.569 75.2749 233.996 75.5811C234.417 76.0764 234.646 76.7345 234.58 77.4326C234.527 77.9956 234.5 78.5666 234.5 79.1445C234.5 79.6034 234.517 80.0582 234.551 80.5078L234.589 80.9561C234.664 81.716 234.39 82.4289 233.898 82.9385C234.476 83.1858 234.957 83.6475 235.216 84.2578L235.304 84.499C235.663 85.6614 236.137 86.7759 236.712 87.8291M236.712 87.8291L234.519 89.0254V89.0264L236.712 87.8291ZM236.712 87.8291C237.078 88.5002 237.104 89.2652 236.849 89.9268C237.478 89.9301 238.103 90.1691 238.579 90.6328L238.753 90.8213C239.433 91.6327 240.182 92.3853 240.992 93.0713L241.343 93.3613C241.939 93.8423 242.257 94.5414 242.273 95.252C242.858 95.015 243.527 94.9985 244.145 95.2471L244.377 95.3545C245.307 95.8432 246.284 96.2558 247.3 96.585L247.738 96.7217C248.473 96.9401 249.032 97.4661 249.316 98.1172C249.825 97.6197 250.54 97.3402 251.304 97.4131C251.902 97.4702 252.509 97.5 253.124 97.5H255.202C256.069 97.5 256.832 97.9409 257.28 98.6104C257.729 97.9409 258.492 97.5 259.358 97.5H263.515C264.381 97.5 265.144 97.9409 265.593 98.6104C266.041 97.9409 266.805 97.5001 267.671 97.5H271.827C272.694 97.5 273.458 97.9413 273.906 98.6113C274.355 97.9417 275.117 97.5001 275.983 97.5H280.141C281.007 97.5002 281.77 97.9415 282.219 98.6113C282.667 97.9416 283.43 97.5 284.297 97.5H288.453C289.32 97.5001 290.083 97.9415 290.531 98.6113C290.98 97.9415 291.743 97.5 292.609 97.5H296.766C297.632 97.5 298.395 97.9409 298.844 98.6104C299.292 97.9409 300.056 97.5 300.922 97.5H305.078C305.944 97.5 306.708 97.9409 307.156 98.6104C307.605 97.9409 308.368 97.5 309.234 97.5H313.391C314.257 97.5 315.021 97.9413 315.47 98.6113C315.918 97.9417 316.68 97.5001 317.547 97.5H321.703C322.57 97.5 323.334 97.9413 323.782 98.6113C324.231 97.9417 324.993 97.5002 325.859 97.5H330.017C330.883 97.5001 331.646 97.9415 332.095 98.6113C332.543 97.9416 333.306 97.5 334.173 97.5H338.329C339.195 97.5001 339.959 97.9409 340.407 98.6104C340.856 97.9409 341.619 97.5 342.485 97.5H346.642C347.508 97.5 348.271 97.9409 348.72 98.6104C349.168 97.9409 349.931 97.5 350.798 97.5H352.876C353.491 97.5 354.098 97.4702 354.696 97.4131L354.952 97.4023C355.619 97.4063 356.233 97.6754 356.685 98.1172C356.969 97.4662 357.527 96.9401 358.262 96.7217M358.262 96.7217L358.974 99.1162H358.975L358.262 96.7217ZM358.262 96.7217C359.435 96.373 360.56 95.9131 361.623 95.3545L361.855 95.2471C362.473 94.9984 363.143 95.0147 363.728 95.252C363.744 94.5414 364.061 93.8422 364.657 93.3613C365.602 92.5995 366.47 91.7486 367.247 90.8213L367.421 90.6328C367.897 90.1688 368.522 89.9299 369.152 89.9268C368.897 89.2651 368.922 88.5003 369.288 87.8291M369.288 87.8291L371.482 89.0264V89.0254L369.288 87.8291ZM369.288 87.8291C369.863 86.7759 370.337 85.6614 370.696 84.499L370.784 84.2578C371.043 83.6472 371.525 83.1857 372.103 82.9385C371.61 82.4288 371.336 81.7162 371.411 80.9561L371.449 80.5078C371.483 80.0582 371.5 79.6034 371.5 79.1445C371.5 78.7526 371.487 78.3638 371.463 77.9785L371.435 77.5947C371.383 76.9864 371.554 76.4105 371.88 75.9473C371.484 75.6658 371.167 75.27 370.988 74.79L370.911 74.5459C370.681 73.6647 370.385 72.8085 370.03 71.9834L369.874 71.6318C369.621 71.0762 369.589 70.4765 369.74 69.9307C369.195 69.7765 368.698 69.4386 368.354 68.9336C367.772 68.0773 367.117 67.2712 366.399 66.5244C365.975 66.0828 365.747 65.5257 365.709 64.959C365.142 64.9935 364.56 64.8377 364.068 64.4727C363.343 63.9342 362.576 63.4465 361.774 63.0156L361.429 62.835C360.883 62.5564 360.486 62.1043 360.265 61.5811C359.74 61.7991 359.14 61.8422 358.556 61.6582M358.556 61.6582L359.308 59.2734H359.307L358.556 61.6582ZM358.556 61.6582C358.187 61.542 357.813 61.4366 357.435 61.3428L357.055 61.2529L354.729 60.7275L355.144 58.3789C355.229 57.8959 355.304 57.4089 355.368 56.9189L355.414 56.668C355.522 56.2123 355.753 55.8128 356.064 55.4961C355.768 55.0646 355.601 54.5389 355.625 53.9756L355.649 53.2383C355.655 52.9917 355.657 52.744 355.657 52.4961C355.657 51.8516 355.639 51.2113 355.604 50.5762C355.558 49.7722 355.899 49.0376 356.464 48.5479C355.875 48.235 355.414 47.6932 355.226 47.0156L355.17 46.7656C354.951 45.4957 354.662 44.2498 354.305 43.0322C354.078 42.2604 354.243 41.4681 354.681 40.8633C354.037 40.6923 353.466 40.2698 353.128 39.6533L353.017 39.4229C352.517 38.2409 351.951 37.092 351.324 35.9814M351.324 35.9814L353.5 34.7539V34.7529L351.324 35.9814ZM351.324 35.9814C350.928 35.2802 350.91 34.47 351.2 33.7812C350.533 33.7604 349.881 33.4774 349.412 32.9521L349.252 32.7529C348.5 31.7157 347.691 30.7207 346.828 29.7744C346.285 29.1788 346.087 28.3928 346.217 27.6562C345.483 27.7999 344.693 27.6164 344.087 27.085C343.125 26.2415 342.116 25.4502 341.062 24.7158C340.401 24.2545 340.034 23.5309 339.998 22.7832C339.314 23.0857 338.502 23.0821 337.794 22.6973M337.794 22.6973L338.987 20.502H338.986L337.794 22.6973ZM337.794 22.6973C336.673 22.0883 335.514 21.5387 334.321 21.0537M334.321 21.0537L335.264 18.7402H335.263L334.321 21.0537Z" stroke="black" stroke-opacity="0.23" stroke-width="5" stroke-linecap="round" stroke-dasharray="4 4"/>
<g filter="url(#filter1_i_738_1855)">
<path d="M125.605 58.8143C125.968 56.7622 126.157 54.6512 126.157 52.4966C126.157 32.3401 109.606 16 89.1901 16C74.0123 16 60.9709 25.0306 55.2777 37.9464C50.6656 34.015 44.6807 31.6414 38.1405 31.6414C23.5574 31.6414 11.7355 43.4425 11.7355 58C11.7355 58.8106 11.7722 59.6127 11.8439 60.4047C4.82975 63.7966 -4.64916e-06 70.9139 -4.64916e-06 79.1448C-4.64916e-06 90.6628 9.45752 100 21.124 100H120.876C132.542 100 142 90.6628 142 79.1448C142 69.232 134.995 60.9344 125.605 58.8143Z" fill="url(#paint1_linear_738_1855)"/>
</g>
<path d="M87.1934 18.5557L87.0537 16.0596H87.0547L87.1934 18.5557ZM87.1934 18.5557C86.3408 18.6035 85.565 18.2179 85.0781 17.5908C84.7442 18.3109 84.0749 18.8613 83.2334 19.0059L82.2471 19.1895C81.2664 19.3872 80.3007 19.6263 79.3525 19.9043L79.1045 19.9639C78.3664 20.1013 77.6303 19.8939 77.0762 19.4453C76.9154 20.2222 76.3884 20.9103 75.6025 21.2432C74.3739 21.7636 73.1815 22.3523 72.0312 23.0049C71.2889 23.4259 70.4234 23.4243 69.709 23.0791C69.7304 23.8725 69.3757 24.6631 68.6865 25.167C67.6123 25.9525 66.5856 26.7976 65.6123 27.6982C64.9863 28.2775 64.1441 28.4739 63.3701 28.3018C63.5722 29.0689 63.4067 29.9194 62.8516 30.5674C61.9884 31.5749 61.1834 32.6321 60.4424 33.7344C59.967 34.4415 59.1934 34.8265 58.4014 34.8379C58.7746 35.5368 58.8101 36.401 58.4209 37.1592C58.1186 37.748 57.8333 38.3473 57.5654 38.9551L56.2109 42.0273L53.6562 39.8486C53.2548 39.5065 52.8416 39.1777 52.418 38.8623L51.9912 38.5518C51.19 37.9822 50.8283 37.0273 50.9736 36.1182C50.252 36.6895 49.2431 36.8416 48.3545 36.4219C47.251 35.9005 46.1012 35.4609 44.9131 35.1113L44.4014 34.9678C43.4528 34.7116 42.783 33.9416 42.6035 33.0391C42.1669 33.7567 41.3847 34.2298 40.5068 34.2422L40.251 34.2334C39.5562 34.1728 38.8524 34.1416 38.1406 34.1416C37.5079 34.1416 36.8812 34.1659 36.2617 34.2139C35.4727 34.275 34.7423 33.9616 34.2412 33.4248C33.9289 34.0891 33.3291 34.6112 32.5596 34.7949L32.1006 34.9092C31.0351 35.186 29.9983 35.5337 28.9961 35.9482C28.265 36.2506 27.4736 36.1792 26.8311 35.8242C26.7403 36.5528 26.332 37.235 25.6572 37.6484C24.5875 38.3036 23.5724 39.0413 22.6221 39.8516C22.0197 40.365 21.2445 40.5402 20.5234 40.4004C20.6618 41.1223 20.4823 41.8985 19.9668 42.5L19.666 42.8584C18.9709 43.7021 18.333 44.5941 17.7578 45.5283M87.1934 18.5557C87.8538 18.5185 88.5201 18.5 89.1904 18.5C89.8366 18.5 90.4783 18.5172 91.1152 18.5518L91.3711 18.5527C92.0762 18.5196 92.7091 18.1901 93.1455 17.6826C93.4995 18.3427 94.1424 18.8389 94.9385 18.9707L95.8906 19.1416C96.8381 19.3257 97.7719 19.5478 98.6895 19.8066C99.465 20.0254 100.257 19.851 100.857 19.4053C101.058 20.1258 101.575 20.75 102.321 21.0537M17.7578 45.5283L15.6309 44.2168V44.2178L17.7578 45.5283ZM17.7578 45.5283C17.3431 46.2018 16.66 46.6068 15.9316 46.6963C16.2855 47.3395 16.3545 48.1317 16.0508 48.8623C15.575 50.0066 15.1857 51.1959 14.8916 52.4219L14.8193 52.668C14.5916 53.3185 14.1128 53.8228 13.5215 54.1006C14.0578 54.6018 14.37 55.3333 14.3086 56.1221C14.2604 56.7412 14.2354 57.3676 14.2354 58C14.2354 58.1825 14.2371 58.3645 14.2412 58.5459C14.2454 58.7337 14.2277 58.9169 14.1924 59.0938C14.2436 59.2669 14.2783 59.4481 14.291 59.6357C14.3033 59.8173 14.3176 59.9983 14.334 60.1787L14.4902 61.9023L12.9326 62.6553C12.4154 62.9054 11.9109 63.1789 11.4219 63.4736M11.4219 63.4736L10.1338 61.334H10.1328L11.4219 63.4736ZM11.4219 63.4736C10.8194 63.8367 10.1255 63.9141 9.49512 63.748C9.46639 64.3996 9.18511 65.0394 8.65918 65.5068C7.80225 66.2682 7.01733 67.1068 6.31641 68.0107C5.88588 68.566 5.26717 68.888 4.62012 68.9609C4.82888 69.5777 4.79923 70.2748 4.47949 70.9004L4.29004 71.2812C3.85896 72.1758 3.49976 73.11 3.21875 74.0762C3.02308 74.7488 2.5686 75.2749 1.99609 75.5811C2.41669 76.0764 2.64551 76.7345 2.58008 77.4326C2.52732 77.9956 2.50001 78.5666 2.5 79.1445C2.5 79.6034 2.51736 80.0582 2.55078 80.5078L2.58887 80.9561C2.66426 81.716 2.3902 82.4289 1.89844 82.9385C2.4757 83.1858 2.95705 83.6475 3.21582 84.2578L3.30371 84.499C3.66276 85.6614 4.13684 86.7759 4.71191 87.8291M4.71191 87.8291L2.51855 89.0254V89.0264L4.71191 87.8291ZM4.71191 87.8291C5.07815 88.5002 5.10367 89.2652 4.84863 89.9268C5.47823 89.9301 6.10305 90.1691 6.5791 90.6328L6.75293 90.8213C7.43253 91.6327 8.18234 92.3853 8.99219 93.0713L9.34277 93.3613C9.93944 93.8423 10.2571 94.5414 10.2734 95.252C10.8577 95.015 11.5271 94.9985 12.1445 95.2471L12.377 95.3545C13.3071 95.8432 14.2843 96.2558 15.2998 96.585L15.7383 96.7217C16.4728 96.9401 17.0316 97.4661 17.3164 98.1172C17.8246 97.6197 18.5404 97.3402 19.3037 97.4131C19.902 97.4702 20.5092 97.5 21.124 97.5H23.2021C24.0685 97.5 24.8317 97.9409 25.2803 98.6104C25.7288 97.9409 26.492 97.5 27.3584 97.5H31.5146C32.381 97.5 33.1442 97.9409 33.5928 98.6104C34.0413 97.9409 34.8046 97.5001 35.6709 97.5H39.8271C40.6939 97.5 41.4578 97.9413 41.9062 98.6113C42.3547 97.9417 43.117 97.5001 43.9834 97.5H48.1406C49.0072 97.5002 49.7703 97.9415 50.2188 98.6113C50.6673 97.9416 51.4303 97.5 52.2969 97.5H56.4531C57.3197 97.5001 58.0828 97.9415 58.5312 98.6113C58.9798 97.9415 59.7427 97.5 60.6094 97.5H64.7656C65.632 97.5 66.3952 97.9409 66.8438 98.6104C67.2923 97.9409 68.0555 97.5 68.9219 97.5H73.0781C73.9445 97.5 74.7077 97.9409 75.1562 98.6104C75.6048 97.9409 76.368 97.5 77.2344 97.5H81.3906C82.2574 97.5 83.0213 97.9413 83.4697 98.6113C83.9182 97.9417 84.6805 97.5001 85.5469 97.5H89.7031C90.5699 97.5 91.3337 97.9413 91.7822 98.6113C92.2307 97.9417 92.993 97.5002 93.8594 97.5H98.0166C98.8832 97.5001 99.6463 97.9415 100.095 98.6113C100.543 97.9416 101.306 97.5 102.173 97.5H106.329C107.195 97.5001 107.959 97.9409 108.407 98.6104C108.856 97.9409 109.619 97.5 110.485 97.5H114.642C115.508 97.5 116.271 97.9409 116.72 98.6104C117.168 97.9409 117.931 97.5 118.798 97.5H120.876C121.491 97.5 122.098 97.4702 122.696 97.4131L122.952 97.4023C123.619 97.4063 124.233 97.6754 124.685 98.1172C124.969 97.4662 125.527 96.9401 126.262 96.7217M126.262 96.7217L126.974 99.1162H126.975L126.262 96.7217ZM126.262 96.7217C127.435 96.373 128.56 95.9131 129.623 95.3545L129.855 95.2471C130.473 94.9984 131.143 95.0147 131.728 95.252C131.744 94.5414 132.061 93.8422 132.657 93.3613C133.602 92.5995 134.47 91.7486 135.247 90.8213L135.421 90.6328C135.897 90.1688 136.522 89.9299 137.152 89.9268C136.897 89.2651 136.922 88.5003 137.288 87.8291M137.288 87.8291L139.482 89.0264V89.0254L137.288 87.8291ZM137.288 87.8291C137.863 86.7759 138.337 85.6614 138.696 84.499L138.784 84.2578C139.043 83.6472 139.525 83.1857 140.103 82.9385C139.61 82.4288 139.336 81.7162 139.411 80.9561L139.449 80.5078C139.483 80.0582 139.5 79.6034 139.5 79.1445C139.5 78.7526 139.487 78.3638 139.463 77.9785L139.435 77.5947C139.383 76.9864 139.554 76.4105 139.88 75.9473C139.484 75.6658 139.167 75.27 138.988 74.79L138.911 74.5459C138.681 73.6647 138.385 72.8085 138.03 71.9834L137.874 71.6318C137.621 71.0762 137.589 70.4765 137.74 69.9307C137.195 69.7765 136.698 69.4386 136.354 68.9336C135.772 68.0773 135.117 67.2712 134.399 66.5244C133.975 66.0828 133.747 65.5257 133.709 64.959C133.142 64.9935 132.56 64.8377 132.068 64.4727C131.343 63.9342 130.576 63.4465 129.774 63.0156L129.429 62.835C128.883 62.5564 128.486 62.1043 128.265 61.5811C127.74 61.7991 127.14 61.8422 126.556 61.6582M126.556 61.6582L127.308 59.2734H127.307L126.556 61.6582ZM126.556 61.6582C126.187 61.542 125.813 61.4366 125.435 61.3428L125.055 61.2529L122.729 60.7275L123.144 58.3789C123.229 57.8959 123.304 57.4089 123.368 56.9189L123.414 56.668C123.522 56.2123 123.753 55.8128 124.064 55.4961C123.768 55.0646 123.601 54.5389 123.625 53.9756L123.649 53.2383C123.655 52.9917 123.657 52.744 123.657 52.4961C123.657 51.8516 123.639 51.2113 123.604 50.5762C123.558 49.7722 123.899 49.0376 124.464 48.5479C123.875 48.235 123.414 47.6932 123.226 47.0156L123.17 46.7656C122.951 45.4957 122.662 44.2498 122.305 43.0322C122.078 42.2604 122.243 41.4681 122.681 40.8633C122.037 40.6923 121.466 40.2698 121.128 39.6533L121.017 39.4229C120.517 38.2409 119.951 37.092 119.324 35.9814M119.324 35.9814L121.5 34.7539V34.7529L119.324 35.9814ZM119.324 35.9814C118.928 35.2802 118.91 34.47 119.2 33.7812C118.533 33.7604 117.881 33.4774 117.412 32.9521L117.252 32.7529C116.5 31.7157 115.691 30.7207 114.828 29.7744C114.285 29.1788 114.087 28.3928 114.217 27.6562C113.483 27.7999 112.693 27.6164 112.087 27.085C111.125 26.2415 110.116 25.4502 109.062 24.7158C108.401 24.2545 108.034 23.5309 107.998 22.7832C107.314 23.0857 106.502 23.0821 105.794 22.6973M105.794 22.6973L106.987 20.502H106.986L105.794 22.6973ZM105.794 22.6973C104.673 22.0883 103.514 21.5387 102.321 21.0537M102.321 21.0537L103.264 18.7402H103.263L102.321 21.0537Z" stroke="black" stroke-opacity="0.23" stroke-width="5" stroke-linecap="round" stroke-dasharray="4 4"/>
<g filter="url(#filter2_i_738_1855)">
<path d="M338.605 153.814C338.968 151.762 339.157 149.651 339.157 147.497C339.157 127.34 322.606 111 302.19 111C287.012 111 273.971 120.031 268.278 132.946C263.666 129.015 257.681 126.641 251.14 126.641C236.557 126.641 224.736 138.443 224.736 153C224.736 153.811 224.772 154.613 224.844 155.405C217.83 158.797 213 165.914 213 174.145C213 185.663 222.458 195 234.124 195H333.876C345.542 195 355 185.663 355 174.145C355 164.232 347.995 155.934 338.605 153.814Z" fill="url(#paint2_linear_738_1855)"/>
</g>
<path d="M300.193 113.556L300.054 111.06H300.055L300.193 113.556ZM300.193 113.556C299.341 113.604 298.565 113.218 298.078 112.591C297.744 113.311 297.075 113.861 296.233 114.006L295.247 114.189C294.266 114.387 293.301 114.626 292.353 114.904L292.104 114.964C291.366 115.101 290.63 114.894 290.076 114.445C289.915 115.222 289.388 115.91 288.603 116.243C287.374 116.764 286.181 117.352 285.031 118.005C284.289 118.426 283.423 118.424 282.709 118.079C282.73 118.872 282.376 119.663 281.687 120.167C280.612 120.952 279.586 121.798 278.612 122.698C277.986 123.278 277.144 123.474 276.37 123.302C276.572 124.069 276.407 124.919 275.852 125.567C274.988 126.575 274.183 127.632 273.442 128.734C272.967 129.442 272.193 129.826 271.401 129.838C271.775 130.537 271.81 131.401 271.421 132.159C271.119 132.748 270.833 133.347 270.565 133.955L269.211 137.027L266.656 134.849C266.255 134.506 265.842 134.178 265.418 133.862L264.991 133.552C264.19 132.982 263.828 132.027 263.974 131.118C263.252 131.689 262.243 131.842 261.354 131.422C260.251 130.901 259.101 130.461 257.913 130.111L257.401 129.968C256.453 129.712 255.783 128.942 255.604 128.039C255.167 128.757 254.385 129.23 253.507 129.242L253.251 129.233C252.556 129.173 251.852 129.142 251.141 129.142C250.508 129.142 249.881 129.166 249.262 129.214C248.473 129.275 247.742 128.962 247.241 128.425C246.929 129.089 246.329 129.611 245.56 129.795L245.101 129.909C244.035 130.186 242.998 130.534 241.996 130.948C241.265 131.251 240.474 131.179 239.831 130.824C239.74 131.553 239.332 132.235 238.657 132.648C237.587 133.304 236.572 134.041 235.622 134.852C235.02 135.365 234.244 135.54 233.523 135.4C233.662 136.122 233.482 136.899 232.967 137.5L232.666 137.858C231.971 138.702 231.333 139.594 230.758 140.528M300.193 113.556C300.854 113.519 301.52 113.5 302.19 113.5C302.837 113.5 303.478 113.517 304.115 113.552L304.371 113.553C305.076 113.52 305.709 113.19 306.146 112.683C306.5 113.343 307.142 113.839 307.938 113.971L308.891 114.142C309.838 114.326 310.772 114.548 311.689 114.807C312.465 115.025 313.257 114.851 313.857 114.405C314.058 115.126 314.575 115.75 315.321 116.054M230.758 140.528L228.631 139.217V139.218L230.758 140.528ZM230.758 140.528C230.343 141.202 229.66 141.607 228.932 141.696C229.286 142.339 229.354 143.132 229.051 143.862C228.575 145.007 228.186 146.196 227.892 147.422L227.819 147.668C227.592 148.318 227.113 148.823 226.521 149.101C227.058 149.602 227.37 150.333 227.309 151.122C227.26 151.741 227.235 152.368 227.235 153C227.235 153.182 227.237 153.364 227.241 153.546C227.245 153.734 227.228 153.917 227.192 154.094C227.244 154.267 227.278 154.448 227.291 154.636C227.303 154.817 227.318 154.998 227.334 155.179L227.49 156.902L225.933 157.655C225.415 157.905 224.911 158.179 224.422 158.474M224.422 158.474L223.134 156.334H223.133L224.422 158.474ZM224.422 158.474C223.819 158.837 223.126 158.914 222.495 158.748C222.466 159.4 222.185 160.039 221.659 160.507C220.802 161.268 220.017 162.107 219.316 163.011C218.886 163.566 218.267 163.888 217.62 163.961C217.829 164.578 217.799 165.275 217.479 165.9L217.29 166.281C216.859 167.176 216.5 168.11 216.219 169.076C216.023 169.749 215.569 170.275 214.996 170.581C215.417 171.076 215.646 171.734 215.58 172.433C215.527 172.996 215.5 173.567 215.5 174.145C215.5 174.603 215.517 175.058 215.551 175.508L215.589 175.956C215.664 176.716 215.39 177.429 214.898 177.938C215.476 178.186 215.957 178.648 216.216 179.258L216.304 179.499C216.663 180.661 217.137 181.776 217.712 182.829M217.712 182.829L215.519 184.025V184.026L217.712 182.829ZM217.712 182.829C218.078 183.5 218.104 184.265 217.849 184.927C218.478 184.93 219.103 185.169 219.579 185.633L219.753 185.821C220.433 186.633 221.182 187.385 221.992 188.071L222.343 188.361C222.939 188.842 223.257 189.541 223.273 190.252C223.858 190.015 224.527 189.999 225.145 190.247L225.377 190.354C226.307 190.843 227.284 191.256 228.3 191.585L228.738 191.722C229.473 191.94 230.032 192.466 230.316 193.117C230.825 192.62 231.54 192.34 232.304 192.413C232.902 192.47 233.509 192.5 234.124 192.5H236.202C237.069 192.5 237.832 192.941 238.28 193.61C238.729 192.941 239.492 192.5 240.358 192.5H244.515C245.381 192.5 246.144 192.941 246.593 193.61C247.041 192.941 247.805 192.5 248.671 192.5H252.827C253.694 192.5 254.458 192.941 254.906 193.611C255.355 192.942 256.117 192.5 256.983 192.5H261.141C262.007 192.5 262.77 192.941 263.219 193.611C263.667 192.942 264.43 192.5 265.297 192.5H269.453C270.32 192.5 271.083 192.941 271.531 193.611C271.98 192.942 272.743 192.5 273.609 192.5H277.766C278.632 192.5 279.395 192.941 279.844 193.61C280.292 192.941 281.056 192.5 281.922 192.5H286.078C286.944 192.5 287.708 192.941 288.156 193.61C288.605 192.941 289.368 192.5 290.234 192.5H294.391C295.257 192.5 296.021 192.941 296.47 193.611C296.918 192.942 297.68 192.5 298.547 192.5H302.703C303.57 192.5 304.334 192.941 304.782 193.611C305.231 192.942 305.993 192.5 306.859 192.5H311.017C311.883 192.5 312.646 192.941 313.095 193.611C313.543 192.942 314.306 192.5 315.173 192.5H319.329C320.195 192.5 320.959 192.941 321.407 193.61C321.856 192.941 322.619 192.5 323.485 192.5H327.642C328.508 192.5 329.271 192.941 329.72 193.61C330.168 192.941 330.931 192.5 331.798 192.5H333.876C334.491 192.5 335.098 192.47 335.696 192.413L335.952 192.402C336.619 192.406 337.233 192.675 337.685 193.117C337.969 192.466 338.527 191.94 339.262 191.722M339.262 191.722L339.974 194.116H339.975L339.262 191.722ZM339.262 191.722C340.435 191.373 341.56 190.913 342.623 190.354L342.855 190.247C343.473 189.998 344.143 190.015 344.728 190.252C344.744 189.541 345.061 188.842 345.657 188.361C346.602 187.599 347.47 186.749 348.247 185.821L348.421 185.633C348.897 185.169 349.522 184.93 350.152 184.927C349.897 184.265 349.922 183.5 350.288 182.829M350.288 182.829L352.482 184.026V184.025L350.288 182.829ZM350.288 182.829C350.863 181.776 351.337 180.661 351.696 179.499L351.784 179.258C352.043 178.647 352.525 178.186 353.103 177.938C352.61 177.429 352.336 176.716 352.411 175.956L352.449 175.508C352.483 175.058 352.5 174.603 352.5 174.145C352.5 173.753 352.487 173.364 352.463 172.979L352.435 172.595C352.383 171.986 352.554 171.411 352.88 170.947C352.484 170.666 352.167 170.27 351.988 169.79L351.911 169.546C351.681 168.665 351.385 167.809 351.03 166.983L350.874 166.632C350.621 166.076 350.589 165.477 350.74 164.931C350.195 164.777 349.698 164.439 349.354 163.934C348.772 163.077 348.117 162.271 347.399 161.524C346.975 161.083 346.747 160.526 346.709 159.959C346.142 159.994 345.56 159.838 345.068 159.473C344.343 158.934 343.576 158.446 342.774 158.016L342.429 157.835C341.883 157.556 341.486 157.104 341.265 156.581C340.74 156.799 340.14 156.842 339.556 156.658M339.556 156.658L340.308 154.273H340.307L339.556 156.658ZM339.556 156.658C339.187 156.542 338.813 156.437 338.435 156.343L338.055 156.253L335.729 155.728L336.144 153.379C336.229 152.896 336.304 152.409 336.368 151.919L336.414 151.668C336.522 151.212 336.753 150.813 337.064 150.496C336.768 150.065 336.601 149.539 336.625 148.976L336.649 148.238C336.655 147.992 336.657 147.744 336.657 147.496C336.657 146.852 336.639 146.211 336.604 145.576C336.558 144.772 336.899 144.038 337.464 143.548C336.875 143.235 336.414 142.693 336.226 142.016L336.17 141.766C335.951 140.496 335.662 139.25 335.305 138.032C335.078 137.26 335.243 136.468 335.681 135.863C335.037 135.692 334.466 135.27 334.128 134.653L334.017 134.423C333.517 133.241 332.951 132.092 332.324 130.981M332.324 130.981L334.5 129.754V129.753L332.324 130.981ZM332.324 130.981C331.928 130.28 331.91 129.47 332.2 128.781C331.533 128.76 330.881 128.477 330.412 127.952L330.252 127.753C329.5 126.716 328.691 125.721 327.828 124.774C327.285 124.179 327.087 123.393 327.217 122.656C326.483 122.8 325.693 122.616 325.087 122.085C324.125 121.242 323.116 120.45 322.062 119.716C321.401 119.255 321.034 118.531 320.998 117.783C320.314 118.086 319.502 118.082 318.794 117.697M318.794 117.697L319.987 115.502H319.986L318.794 117.697ZM318.794 117.697C317.673 117.088 316.514 116.539 315.321 116.054M315.321 116.054L316.264 113.74H316.263L315.321 116.054Z" stroke="black" stroke-opacity="0.23" stroke-width="5" stroke-linecap="round" stroke-dasharray="4 4"/>
<g filter="url(#filter3_i_738_1855)">
<path d="M153.605 158.814C153.968 156.762 154.157 154.651 154.157 152.497C154.157 132.34 137.606 116 117.19 116C102.012 116 88.9709 125.031 83.2777 137.946C78.6656 134.015 72.6807 131.641 66.1405 131.641C51.5574 131.641 39.7355 143.443 39.7355 158C39.7355 158.811 39.7722 159.613 39.8439 160.405C32.8298 163.797 28 170.914 28 179.145C28 190.663 37.4575 200 49.124 200H148.876C160.542 200 170 190.663 170 179.145C170 169.232 162.995 160.934 153.605 158.814Z" fill="url(#paint3_linear_738_1855)"/>
</g>
<path d="M115.193 118.556L115.054 116.06H115.055L115.193 118.556ZM115.193 118.556C114.341 118.604 113.565 118.218 113.078 117.591C112.744 118.311 112.075 118.861 111.233 119.006L110.247 119.189C109.266 119.387 108.301 119.626 107.353 119.904L107.104 119.964C106.366 120.101 105.63 119.894 105.076 119.445C104.915 120.222 104.388 120.91 103.603 121.243C102.374 121.764 101.181 122.352 100.031 123.005C99.2889 123.426 98.4234 123.424 97.709 123.079C97.7304 123.872 97.3757 124.663 96.6865 125.167C95.6123 125.952 94.5856 126.798 93.6123 127.698C92.9863 128.278 92.1441 128.474 91.3701 128.302C91.5722 129.069 91.4067 129.919 90.8516 130.567C89.9884 131.575 89.1834 132.632 88.4424 133.734C87.967 134.442 87.1934 134.826 86.4014 134.838C86.7746 135.537 86.8101 136.401 86.4209 137.159C86.1186 137.748 85.8333 138.347 85.5654 138.955L84.2109 142.027L81.6562 139.849C81.2548 139.506 80.8416 139.178 80.418 138.862L79.9912 138.552C79.19 137.982 78.8283 137.027 78.9736 136.118C78.252 136.689 77.2431 136.842 76.3545 136.422C75.251 135.901 74.1012 135.461 72.9131 135.111L72.4014 134.968C71.4528 134.712 70.783 133.942 70.6035 133.039C70.1669 133.757 69.3847 134.23 68.5068 134.242L68.251 134.233C67.5562 134.173 66.8524 134.142 66.1406 134.142C65.5079 134.142 64.8812 134.166 64.2617 134.214C63.4727 134.275 62.7423 133.962 62.2412 133.425C61.9289 134.089 61.3291 134.611 60.5596 134.795L60.1006 134.909C59.0351 135.186 57.9983 135.534 56.9961 135.948C56.265 136.251 55.4736 136.179 54.8311 135.824C54.7403 136.553 54.332 137.235 53.6572 137.648C52.5875 138.304 51.5724 139.041 50.6221 139.852C50.0197 140.365 49.2445 140.54 48.5234 140.4C48.6618 141.122 48.4823 141.899 47.9668 142.5L47.666 142.858C46.9709 143.702 46.333 144.594 45.7578 145.528M115.193 118.556C115.854 118.519 116.52 118.5 117.19 118.5C117.837 118.5 118.478 118.517 119.115 118.552L119.371 118.553C120.076 118.52 120.709 118.19 121.146 117.683C121.5 118.343 122.142 118.839 122.938 118.971L123.891 119.142C124.838 119.326 125.772 119.548 126.689 119.807C127.465 120.025 128.257 119.851 128.857 119.405C129.058 120.126 129.575 120.75 130.321 121.054M45.7578 145.528L43.6309 144.217V144.218L45.7578 145.528ZM45.7578 145.528C45.3431 146.202 44.66 146.607 43.9316 146.696C44.2855 147.339 44.3545 148.132 44.0508 148.862C43.575 150.007 43.1857 151.196 42.8916 152.422L42.8193 152.668C42.5916 153.318 42.1128 153.823 41.5215 154.101C42.0578 154.602 42.37 155.333 42.3086 156.122C42.2604 156.741 42.2354 157.368 42.2354 158C42.2354 158.182 42.2371 158.364 42.2412 158.546C42.2454 158.734 42.2277 158.917 42.1924 159.094C42.2436 159.267 42.2783 159.448 42.291 159.636C42.3033 159.817 42.3176 159.998 42.334 160.179L42.4902 161.902L40.9326 162.655C40.4154 162.905 39.9109 163.179 39.4219 163.474M39.4219 163.474L38.1338 161.334H38.1328L39.4219 163.474ZM39.4219 163.474C38.8194 163.837 38.1255 163.914 37.4951 163.748C37.4664 164.4 37.1851 165.039 36.6592 165.507C35.8023 166.268 35.0173 167.107 34.3164 168.011C33.8859 168.566 33.2672 168.888 32.6201 168.961C32.8289 169.578 32.7992 170.275 32.4795 170.9L32.29 171.281C31.859 172.176 31.4998 173.11 31.2188 174.076C31.0231 174.749 30.5686 175.275 29.9961 175.581C30.4167 176.076 30.6455 176.734 30.5801 177.433C30.5273 177.996 30.5 178.567 30.5 179.145C30.5 179.603 30.5174 180.058 30.5508 180.508L30.5889 180.956C30.6643 181.716 30.3902 182.429 29.8984 182.938C30.4757 183.186 30.9571 183.648 31.2158 184.258L31.3037 184.499C31.6628 185.661 32.1368 186.776 32.7119 187.829M32.7119 187.829L30.5186 189.025V189.026L32.7119 187.829ZM32.7119 187.829C33.0781 188.5 33.1037 189.265 32.8486 189.927C33.4782 189.93 34.103 190.169 34.5791 190.633L34.7529 190.821C35.4325 191.633 36.1823 192.385 36.9922 193.071L37.3428 193.361C37.9394 193.842 38.2571 194.541 38.2734 195.252C38.8577 195.015 39.5271 194.999 40.1445 195.247L40.377 195.354C41.3071 195.843 42.2843 196.256 43.2998 196.585L43.7383 196.722C44.4728 196.94 45.0316 197.466 45.3164 198.117C45.8246 197.62 46.5404 197.34 47.3037 197.413C47.902 197.47 48.5092 197.5 49.124 197.5H51.2021C52.0685 197.5 52.8317 197.941 53.2803 198.61C53.7288 197.941 54.492 197.5 55.3584 197.5H59.5146C60.381 197.5 61.1442 197.941 61.5928 198.61C62.0413 197.941 62.8046 197.5 63.6709 197.5H67.8271C68.6939 197.5 69.4578 197.941 69.9062 198.611C70.3547 197.942 71.117 197.5 71.9834 197.5H76.1406C77.0072 197.5 77.7703 197.941 78.2188 198.611C78.6673 197.942 79.4303 197.5 80.2969 197.5H84.4531C85.3197 197.5 86.0828 197.941 86.5312 198.611C86.9798 197.942 87.7427 197.5 88.6094 197.5H92.7656C93.632 197.5 94.3952 197.941 94.8438 198.61C95.2923 197.941 96.0555 197.5 96.9219 197.5H101.078C101.944 197.5 102.708 197.941 103.156 198.61C103.605 197.941 104.368 197.5 105.234 197.5H109.391C110.257 197.5 111.021 197.941 111.47 198.611C111.918 197.942 112.68 197.5 113.547 197.5H117.703C118.57 197.5 119.334 197.941 119.782 198.611C120.231 197.942 120.993 197.5 121.859 197.5H126.017C126.883 197.5 127.646 197.941 128.095 198.611C128.543 197.942 129.306 197.5 130.173 197.5H134.329C135.195 197.5 135.959 197.941 136.407 198.61C136.856 197.941 137.619 197.5 138.485 197.5H142.642C143.508 197.5 144.271 197.941 144.72 198.61C145.168 197.941 145.931 197.5 146.798 197.5H148.876C149.491 197.5 150.098 197.47 150.696 197.413L150.952 197.402C151.619 197.406 152.233 197.675 152.685 198.117C152.969 197.466 153.527 196.94 154.262 196.722M154.262 196.722L154.974 199.116H154.975L154.262 196.722ZM154.262 196.722C155.435 196.373 156.56 195.913 157.623 195.354L157.855 195.247C158.473 194.998 159.143 195.015 159.728 195.252C159.744 194.541 160.061 193.842 160.657 193.361C161.602 192.599 162.47 191.749 163.247 190.821L163.421 190.633C163.897 190.169 164.522 189.93 165.152 189.927C164.897 189.265 164.922 188.5 165.288 187.829M165.288 187.829L167.482 189.026V189.025L165.288 187.829ZM165.288 187.829C165.863 186.776 166.337 185.661 166.696 184.499L166.784 184.258C167.043 183.647 167.525 183.186 168.103 182.938C167.61 182.429 167.336 181.716 167.411 180.956L167.449 180.508C167.483 180.058 167.5 179.603 167.5 179.145C167.5 178.753 167.487 178.364 167.463 177.979L167.435 177.595C167.383 176.986 167.554 176.411 167.88 175.947C167.484 175.666 167.167 175.27 166.988 174.79L166.911 174.546C166.681 173.665 166.385 172.809 166.03 171.983L165.874 171.632C165.621 171.076 165.589 170.477 165.74 169.931C165.195 169.777 164.698 169.439 164.354 168.934C163.772 168.077 163.117 167.271 162.399 166.524C161.975 166.083 161.747 165.526 161.709 164.959C161.142 164.994 160.56 164.838 160.068 164.473C159.343 163.934 158.576 163.446 157.774 163.016L157.429 162.835C156.883 162.556 156.486 162.104 156.265 161.581C155.74 161.799 155.14 161.842 154.556 161.658M154.556 161.658L155.308 159.273H155.307L154.556 161.658ZM154.556 161.658C154.187 161.542 153.813 161.437 153.435 161.343L153.055 161.253L150.729 160.728L151.144 158.379C151.229 157.896 151.304 157.409 151.368 156.919L151.414 156.668C151.522 156.212 151.753 155.813 152.064 155.496C151.768 155.065 151.601 154.539 151.625 153.976L151.649 153.238C151.655 152.992 151.657 152.744 151.657 152.496C151.657 151.852 151.639 151.211 151.604 150.576C151.558 149.772 151.899 149.038 152.464 148.548C151.875 148.235 151.414 147.693 151.226 147.016L151.17 146.766C150.951 145.496 150.662 144.25 150.305 143.032C150.078 142.26 150.243 141.468 150.681 140.863C150.037 140.692 149.466 140.27 149.128 139.653L149.017 139.423C148.517 138.241 147.951 137.092 147.324 135.981M147.324 135.981L149.5 134.754V134.753L147.324 135.981ZM147.324 135.981C146.928 135.28 146.91 134.47 147.2 133.781C146.533 133.76 145.881 133.477 145.412 132.952L145.252 132.753C144.5 131.716 143.691 130.721 142.828 129.774C142.285 129.179 142.087 128.393 142.217 127.656C141.483 127.8 140.693 127.616 140.087 127.085C139.125 126.242 138.116 125.45 137.062 124.716C136.401 124.255 136.034 123.531 135.998 122.783C135.314 123.086 134.502 123.082 133.794 122.697M133.794 122.697L134.987 120.502H134.986L133.794 122.697ZM133.794 122.697C132.673 122.088 131.514 121.539 130.321 121.054M130.321 121.054L131.264 118.74H131.263L130.321 121.054Z" stroke="black" stroke-opacity="0.23" stroke-width="5" stroke-linecap="round" stroke-dasharray="4 4"/>
<g filter="url(#filter5_i_738_1855)">
<path d="M293.326 88.6286C294.049 84.5244 294.426 80.3023 294.426 75.9931C294.426 35.6801 261.441 3 220.752 3C190.503 3 164.512 21.0612 153.166 46.8927C143.974 39.03 132.047 34.2828 119.012 34.2828C89.949 34.2828 66.3884 57.8851 66.3884 87C66.3884 88.6212 66.4615 90.2254 66.6045 91.8094C52.6255 98.5932 43 112.828 43 129.29C43 152.326 61.8484 171 85.0992 171H283.901C307.152 171 326 152.326 326 129.29C326 109.464 312.039 92.8689 293.326 88.6286Z" fill="url(#paint4_linear_738_1855)"/>
</g>
<path d="M217.816 0.558594C216.498 0.651402 215.183 0.760493 213.871 0.890625C212.579 1.01879 211.28 1.13357 209.984 1.26172C208.614 1.39732 207.254 1.60526 205.902 1.86719C204.54 2.13135 203.187 2.45921 201.859 2.86328C200.631 3.23697 199.401 3.61082 198.168 3.95703C196.838 4.3303 195.529 4.76267 194.242 5.26562C193.033 5.73826 191.82 6.20072 190.609 6.67188C189.305 7.17973 188.035 7.76912 186.801 8.42969C185.639 9.05141 184.49 9.69714 183.344 10.3438C182.207 10.985 181.059 11.6264 179.926 12.2773C178.733 12.9626 177.575 13.7121 176.449 14.5039C175.325 15.2947 174.237 16.1359 173.188 17.0234C172.195 17.8634 171.191 18.703 170.199 19.543C169.154 20.4283 168.156 21.3632 167.191 22.3359C166.261 23.2743 165.34 24.223 164.438 25.1875C163.509 26.1801 162.616 27.2161 161.762 28.2734C160.93 29.3032 160.103 30.3453 159.301 31.3984C158.467 32.4927 157.687 33.6309 156.957 34.7969C156.252 35.9232 155.569 37.0648 154.906 38.2148C154.239 39.3727 153.585 40.5429 152.973 41.7305C152.686 42.2847 152.421 42.6449 152.211 42.8828C152.192 42.8684 152.154 42.8601 152.133 42.8438C151.04 41.9922 149.911 41.1924 148.734 40.4609C147.595 39.7525 146.431 39.0792 145.258 38.4297C144.034 37.7523 142.764 37.1595 141.469 36.6328C140.248 36.1367 139.027 35.6361 137.797 35.168C136.532 34.6865 135.246 34.2539 133.949 33.8594C132.612 33.4527 131.243 33.1312 129.867 32.8828C128.551 32.6451 127.228 32.4335 125.902 32.2578C124.556 32.0794 123.197 31.9483 121.84 31.8672C120.456 31.7847 119.065 31.7834 117.68 31.8477C116.371 31.9084 115.062 31.9799 113.754 32.0625C112.355 32.1509 110.952 32.315 109.574 32.5703C108.261 32.8139 106.95 33.0876 105.648 33.3906C104.295 33.7056 102.956 34.087 101.645 34.543C100.377 34.9836 99.1186 35.4643 97.875 35.9688C96.5728 36.4972 95.3102 37.1162 94.0859 37.8047C92.9477 38.4449 91.7996 39.0896 90.668 39.7383C89.4911 40.4132 88.336 41.1252 87.2109 41.8867C86.0559 42.6685 84.9484 43.5166 83.8906 44.4258C82.8555 45.3158 81.8452 46.2529 80.8828 47.2188C79.9501 48.155 79.0322 49.1058 78.1289 50.0703C77.1807 51.0828 76.287 52.1454 75.4531 53.2539C74.6517 54.3195 73.8667 55.4176 73.1094 56.5156C72.339 57.6332 71.6091 58.7811 70.9219 59.9531C70.2176 61.1545 69.5751 62.3916 69.0078 63.6641C68.4645 64.8828 67.9581 66.1166 67.4648 67.3555C66.9567 68.6316 66.4906 69.9243 66.0977 71.2422C65.6983 72.5819 65.384 73.9495 65.1406 75.3242C64.9095 76.6298 64.7008 77.9383 64.5156 79.25C64.3273 80.5843 64.1731 81.9311 64.0664 83.2734C63.959 84.6262 63.9028 85.9951 63.8906 87.3555C63.8806 88.4418 63.7272 89.3424 63.4805 90.0898C63.3541 90.4716 63.0712 90.9022 62.3672 91.3398C61.2288 92.0475 60.1089 92.7836 59.0078 93.5469C57.8702 94.3354 56.7759 95.1818 55.7266 96.0859C54.6745 96.9927 53.6672 97.9621 52.7188 98.9766C51.7984 99.9611 50.9028 100.985 50.043 102.023C49.1396 103.116 48.3174 104.269 47.582 105.48C46.8794 106.638 46.2108 107.815 45.5898 109.016C44.9748 110.205 44.3871 111.427 43.832 112.648C43.2505 113.93 42.7542 115.245 42.3477 116.594C41.9472 117.922 41.6282 119.274 41.3711 120.637C41.1157 121.992 40.9118 123.367 40.7852 124.738C40.6624 126.069 40.588 127.404 40.5312 128.742C40.4703 130.183 40.5274 131.629 40.707 133.059C40.8729 134.378 41.0574 135.694 41.2734 137.004C41.5009 138.382 41.8196 139.745 42.2109 141.086C42.5885 142.38 43.0021 143.666 43.4609 144.934C43.9361 146.246 44.4919 147.535 45.1211 148.781C45.7371 150.001 46.4014 151.209 47.1133 152.375C47.843 153.57 48.6454 154.716 49.5156 155.812C50.3415 156.853 51.1914 157.887 52.0547 158.898C52.9846 159.987 54.0087 161.001 55.1016 161.926C56.1078 162.777 57.1192 163.623 58.1484 164.445C59.2323 165.312 60.3761 166.119 61.5469 166.867C62.7328 167.625 63.9639 168.302 65.2383 168.898C66.4796 169.48 67.7437 170.006 69.0273 170.48C70.3001 170.951 71.5923 171.369 72.8945 171.75C74.2132 172.135 75.5492 172.48 76.8984 172.746C78.2605 173.015 79.6358 173.194 81.0195 173.312C82.3829 173.429 83.7532 173.504 85.1211 173.508C86.4087 173.511 87.7015 173.526 88.9883 173.547C90.3209 173.569 91.6596 173.561 92.9922 173.527C94.2515 173.496 95.5219 173.478 96.7812 173.508C98.1224 173.539 99.4635 173.546 100.805 173.508C102.06 173.472 103.319 173.458 104.574 173.488C105.913 173.521 107.259 173.537 108.598 173.508C109.88 173.48 111.163 173.458 112.445 173.449C113.711 173.44 114.989 173.444 116.254 173.488C117.602 173.535 118.949 173.546 120.297 173.508C121.574 173.471 122.867 173.451 124.145 173.449C125.419 173.448 126.698 173.473 127.973 173.508H139.789C141.063 173.477 142.343 173.461 143.617 173.469C144.932 173.477 146.248 173.487 147.562 173.469C148.842 173.451 150.13 173.441 151.41 173.449C152.708 173.458 154.019 173.456 155.316 173.469C156.632 173.482 157.947 173.487 159.262 173.469C160.526 173.451 161.806 173.471 163.07 173.508C164.418 173.547 165.766 173.534 167.113 173.488C168.378 173.445 169.657 173.439 170.922 173.449H178.754C180.043 173.44 181.332 173.425 182.621 173.43C183.928 173.434 185.24 173.436 186.547 173.43C187.848 173.424 189.152 173.418 190.453 173.41C191.703 173.402 192.953 173.426 194.203 173.488C195.562 173.557 196.927 173.595 198.285 173.566C199.561 173.54 200.838 173.52 202.113 173.527C203.411 173.535 204.722 173.555 206.02 173.566C207.335 173.578 208.65 173.566 209.965 173.547C211.25 173.528 212.547 173.523 213.832 173.527H221.625C222.942 173.528 224.273 173.514 225.59 173.488C226.852 173.464 228.116 173.459 229.379 173.488C230.684 173.518 231.999 173.546 233.305 173.566C234.626 173.587 235.948 173.586 237.27 173.566C238.555 173.547 239.851 173.543 241.137 173.547C242.458 173.55 243.78 173.526 245.102 173.488C246.375 173.452 247.656 173.445 248.93 173.449C250.216 173.453 251.511 173.464 252.797 173.488C254.104 173.513 255.415 173.519 256.723 173.527C258.036 173.536 259.354 173.542 260.668 173.527C261.956 173.513 263.247 173.507 264.535 173.508H276.254C277.554 173.503 278.86 173.498 280.16 173.488C281.469 173.478 282.778 173.459 284.086 173.43C285.413 173.4 286.743 173.333 288.07 173.254C289.463 173.171 290.855 173.011 292.23 172.766C293.599 172.521 294.959 172.199 296.293 171.809C297.642 171.414 298.97 170.944 300.258 170.383C301.472 169.853 302.675 169.288 303.871 168.723C305.146 168.12 306.38 167.44 307.562 166.672C308.685 165.942 309.796 165.189 310.883 164.406C312.017 163.588 313.096 162.698 314.125 161.75C315.138 160.817 316.114 159.844 317.035 158.82C317.941 157.814 318.816 156.781 319.652 155.715C320.524 154.605 321.321 153.436 322.035 152.219C322.714 151.061 323.352 149.875 323.969 148.684C324.61 147.444 325.191 146.161 325.688 144.855C326.177 143.567 326.609 142.259 326.977 140.93C327.345 139.598 327.637 138.248 327.875 136.887C328.119 135.493 328.27 134.081 328.324 132.668C328.374 131.347 328.41 130.025 328.422 128.703C328.434 127.299 328.35 125.898 328.188 124.504C328.032 123.166 327.835 121.828 327.602 120.5C327.353 119.088 326.999 117.694 326.527 116.34C326.091 115.088 325.637 113.844 325.16 112.609C324.654 111.297 324.053 110.018 323.383 108.781C322.731 107.578 322.026 106.408 321.273 105.266C320.516 104.117 319.713 102.998 318.852 101.926C318.004 100.87 317.112 99.8386 316.195 98.8398C315.254 97.814 314.258 96.8442 313.207 95.9297C312.147 95.0076 311.032 94.1545 309.867 93.3711C308.735 92.61 307.578 91.8899 306.391 91.2227C305.211 90.5597 303.998 89.9308 302.777 89.3477C301.546 88.7596 300.285 88.2126 299.008 87.7266C297.984 87.3371 297.009 87.029 296.098 86.7695C296.254 85.5471 296.397 84.323 296.527 83.0977C296.669 81.7654 296.764 80.4128 296.84 79.0742C296.917 77.7218 296.953 76.3678 296.938 75.0117C296.922 73.6415 296.851 72.2727 296.723 70.9102C296.601 69.6142 296.479 68.3184 296.352 67.0234C296.218 65.6712 296.036 64.32 295.805 62.9805C295.575 61.6513 295.291 60.3292 294.984 59.0156C294.681 57.7161 294.365 56.4157 294.008 55.1289C293.642 53.8095 293.212 52.5071 292.738 51.2227C292.277 49.9723 291.803 48.7226 291.293 47.4922C290.776 46.245 290.206 45.0133 289.613 43.8008C289.033 42.6131 288.437 41.4328 287.816 40.2656C287.191 39.0905 286.536 37.9193 285.863 36.7695C285.172 35.5897 284.419 34.4338 283.637 33.3125C282.869 32.2126 282.076 31.1299 281.254 30.0703C280.428 29.0064 279.58 27.9603 278.695 26.9453C277.818 25.9388 276.919 24.9452 276 23.9766C275.051 22.9773 274.049 22.0318 273.012 21.125C272.031 20.2673 271.045 19.4007 270.062 18.5469C269.058 17.6742 268.037 16.8199 266.996 15.9883C265.91 15.1204 264.771 14.3128 263.598 13.5664C262.496 12.8653 261.385 12.167 260.277 11.4766C259.118 10.7545 257.936 10.0716 256.723 9.44531C255.561 8.8459 254.395 8.2551 253.227 7.66797C251.97 7.03653 250.668 6.49181 249.34 6.02734C248.12 5.60106 246.9 5.15734 245.688 4.71875C244.414 4.25812 243.123 3.84338 241.82 3.46875C240.531 3.09786 239.22 2.7589 237.914 2.45312C236.612 2.14857 235.304 1.87058 233.988 1.63281C232.662 1.39335 231.322 1.20855 229.984 1.04688C228.623 0.882408 227.253 0.762161 225.883 0.714844C224.608 0.670834 223.331 0.619606 222.055 0.539062C220.643 0.449998 219.225 0.459445 217.816 0.558594ZM293.012 91.1055C293.037 91.1117 293.061 91.1372 293.09 91.1445C293.333 91.2059 293.709 91.2916 294.203 91.418C295.081 91.6427 296.086 91.9784 297.23 92.4141C298.381 92.8521 299.52 93.3295 300.629 93.8594C301.749 94.3943 302.847 94.9701 303.93 95.5781C305.001 96.1802 306.051 96.8244 307.074 97.5117C308.068 98.1797 309.022 98.9126 309.926 99.6992C310.837 100.492 311.708 101.33 312.523 102.219C313.364 103.135 314.168 104.083 314.945 105.051C315.709 106.002 316.441 106.981 317.113 108C317.788 109.023 318.404 110.086 318.988 111.164C319.556 112.213 320.063 113.294 320.492 114.406C320.95 115.593 321.382 116.798 321.801 118C322.183 119.097 322.478 120.215 322.68 121.359C322.897 122.593 323.082 123.847 323.227 125.09C323.364 126.276 323.432 127.469 323.422 128.664C323.411 129.939 323.373 131.218 323.324 132.492C323.279 133.677 323.158 134.858 322.953 136.027C322.742 137.23 322.477 138.425 322.152 139.602C321.827 140.778 321.453 141.938 321.02 143.078C320.59 144.206 320.089 145.308 319.535 146.379C318.958 147.495 318.355 148.596 317.719 149.68C317.118 150.704 316.44 151.675 315.707 152.609C314.939 153.588 314.137 154.557 313.305 155.48C312.49 156.384 311.641 157.254 310.746 158.078C309.863 158.891 308.926 159.642 307.953 160.344C306.935 161.078 305.9 161.788 304.848 162.473C303.853 163.119 302.814 163.704 301.742 164.211C300.592 164.754 299.433 165.283 298.266 165.793C297.171 166.271 296.035 166.668 294.887 167.004C293.725 167.344 292.543 167.63 291.352 167.844C290.168 168.055 288.975 168.202 287.777 168.273C286.511 168.349 285.236 168.401 283.969 168.43C282.687 168.458 281.404 168.478 280.121 168.488C278.827 168.498 277.528 168.503 276.234 168.508H264.535C263.227 168.507 261.918 168.513 260.609 168.527C259.324 168.542 258.028 168.535 256.742 168.527C255.456 168.519 254.161 168.513 252.875 168.488C251.566 168.463 250.258 168.453 248.949 168.449C247.623 168.445 246.291 168.45 244.965 168.488C243.691 168.525 242.41 168.55 241.137 168.547C239.824 168.543 238.504 168.547 237.191 168.566C235.922 168.585 234.652 168.587 233.383 168.566C232.09 168.546 230.789 168.518 229.496 168.488C228.163 168.458 226.826 168.463 225.492 168.488C224.211 168.513 222.925 168.528 221.645 168.527H213.852C212.539 168.523 211.219 168.528 209.906 168.547C208.626 168.566 207.339 168.578 206.059 168.566C204.757 168.555 203.454 168.535 202.152 168.527C200.832 168.52 199.508 168.539 198.188 168.566C196.947 168.592 195.698 168.57 194.457 168.508C193.111 168.44 191.76 168.402 190.414 168.41C189.118 168.418 187.823 168.424 186.527 168.43C185.234 168.436 183.934 168.434 182.641 168.43C181.333 168.425 180.023 168.44 178.715 168.449H170.961C169.628 168.438 168.29 168.443 166.957 168.488C165.71 168.531 164.455 168.544 163.207 168.508C161.872 168.469 160.538 168.45 159.203 168.469C157.923 168.487 156.636 168.501 155.355 168.488C154.054 168.476 152.751 168.458 151.449 168.449C150.134 168.441 148.819 168.45 147.504 168.469C146.223 168.487 144.937 168.477 143.656 168.469C142.331 168.46 140.997 168.476 139.672 168.508H128.109C126.786 168.472 125.449 168.448 124.125 168.449C122.805 168.451 121.481 168.47 120.16 168.508C118.917 168.543 117.673 168.551 116.43 168.508C115.098 168.462 113.758 168.44 112.426 168.449C111.113 168.458 109.793 168.479 108.48 168.508H96.8984C95.5587 168.476 94.2147 168.494 92.875 168.527C91.6096 168.559 90.3318 168.568 89.0664 168.547C87.7582 168.526 86.4496 168.511 85.1406 168.508C83.9089 168.504 82.677 168.437 81.4492 168.332C80.2441 168.229 79.0413 168.058 77.8555 167.824C76.6574 167.588 75.4713 167.307 74.3008 166.965C73.1106 166.617 71.929 166.223 70.7656 165.793C69.6144 165.368 68.481 164.889 67.3672 164.367C66.2897 163.863 65.2449 163.289 64.2422 162.648C63.2193 161.994 62.2197 161.295 61.2734 160.539C60.2768 159.742 59.2985 158.922 58.3242 158.098C57.4354 157.345 56.6194 156.522 55.8633 155.637C55.0404 154.673 54.2286 153.699 53.4414 152.707C52.6977 151.77 52.0143 150.78 51.3906 149.758C50.7492 148.707 50.1488 147.634 49.5938 146.535C49.0532 145.465 48.5759 144.361 48.168 143.234C47.7451 142.066 47.3441 140.891 46.9961 139.699C46.6615 138.553 46.4096 137.381 46.2148 136.203C46.0089 134.955 45.8261 133.692 45.668 132.434C45.5232 131.281 45.4625 130.119 45.5117 128.957C45.5651 127.699 45.6501 126.438 45.7656 125.188C45.8777 123.976 46.048 122.772 46.2734 121.574C46.4979 120.383 46.7829 119.2 47.1328 118.039C47.4758 116.901 47.9117 115.799 48.4023 114.719C48.9225 113.574 49.4668 112.435 50.043 111.32C50.6115 110.22 51.2156 109.139 51.8594 108.078C52.4706 107.071 53.1588 106.115 53.9102 105.207C54.7052 104.247 55.5203 103.305 56.3711 102.395C57.197 101.511 58.0721 100.665 58.9883 99.875C59.9045 99.0854 60.8665 98.3564 61.8594 97.668C62.8897 96.9538 63.9387 96.26 65.0039 95.5977C66.5044 94.6649 67.6654 93.3627 68.2266 91.6719C68.6654 90.3462 68.8771 88.9078 68.8906 87.3945C68.9017 86.1538 68.9492 84.9165 69.0469 83.6836C69.1456 82.4401 69.2826 81.1894 69.457 79.9531C69.6344 78.6965 69.8411 77.4344 70.0625 76.1836C70.2719 75.0026 70.5593 73.8394 70.9023 72.6875C71.2522 71.5137 71.6417 70.3471 72.0938 69.2109C72.5625 68.0337 73.0618 66.8536 73.5781 65.6953C74.0703 64.5917 74.6275 63.5144 75.2383 62.4727C75.8641 61.4057 76.5291 60.3647 77.2305 59.3477C77.949 58.3059 78.6968 57.2727 79.457 56.2617C80.1824 55.2976 80.9565 54.3689 81.7812 53.4883C82.65 52.5607 83.5405 51.6543 84.4375 50.7539C85.3091 49.8791 86.2144 49.0213 87.1523 48.2148C88.0639 47.4315 89.0282 46.701 90.0234 46.0273C91.0468 45.3349 92.0979 44.6876 93.168 44.0742C94.2854 43.4337 95.4033 42.7923 96.5273 42.1602C97.5686 41.5746 98.6616 41.0471 99.7695 40.5977C100.931 40.1267 102.102 39.6811 103.285 39.2695C104.43 38.8715 105.6 38.5289 106.781 38.2539C108.011 37.9676 109.251 37.7222 110.492 37.4922C111.673 37.2734 112.868 37.1187 114.066 37.043C115.349 36.962 116.631 36.8876 117.914 36.8281C119.125 36.772 120.338 36.7755 121.547 36.8477C122.785 36.9217 124.029 37.0559 125.258 37.2188C126.504 37.3841 127.75 37.5811 128.988 37.8047C130.17 38.0183 131.336 38.2952 132.484 38.6445C133.674 39.0063 134.86 39.4139 136.02 39.8555C137.212 40.3096 138.41 40.7804 139.594 41.2617C140.703 41.7129 141.788 42.2246 142.836 42.8047C143.934 43.4126 145.012 44.0558 146.078 44.7188C147.107 45.3587 148.111 46.0438 149.066 46.7891C149.759 47.3293 150.597 47.8185 151.566 48C152.615 48.1963 153.676 48.0143 154.594 47.4141C155.813 46.615 156.725 45.3743 157.426 44.0156C158.003 42.8979 158.595 41.7852 159.223 40.6953C159.855 39.5974 160.522 38.509 161.195 37.4336C161.843 36.3988 162.545 35.397 163.285 34.4258C164.058 33.4114 164.847 32.4098 165.648 31.418C166.427 30.4538 167.243 29.5105 168.09 28.6055C168.958 27.6775 169.832 26.7544 170.727 25.8516C171.591 24.9796 172.505 24.145 173.441 23.3516C174.432 22.513 175.419 21.6706 176.41 20.832C177.346 20.0406 178.318 19.2912 179.32 18.5859C180.322 17.8811 181.364 17.223 182.426 16.6133C183.545 15.9709 184.664 15.332 185.785 14.6992C186.9 14.0702 188.034 13.4486 189.164 12.8438C190.222 12.2779 191.308 11.7749 192.426 11.3398C193.638 10.8678 194.847 10.3876 196.059 9.91406C197.191 9.47131 198.345 9.09032 199.516 8.76172C200.784 8.40569 202.062 8.03267 203.324 7.64844C204.482 7.29653 205.653 6.99997 206.84 6.76953C208.039 6.53687 209.256 6.36272 210.473 6.24219C211.768 6.114 213.067 5.97977 214.359 5.85156C215.626 5.72595 216.896 5.62863 218.168 5.53906C219.355 5.45554 220.552 5.44444 221.742 5.51953C223.065 5.60295 224.386 5.66922 225.707 5.71484C226.934 5.7572 228.16 5.86059 229.379 6.00781C230.62 6.15774 231.86 6.33259 233.09 6.55469C234.327 6.7781 235.558 7.04951 236.781 7.33594C238.005 7.62244 239.226 7.92597 240.434 8.27344C241.629 8.61737 242.819 9.00291 243.988 9.42578C245.217 9.8701 246.444 10.3221 247.68 10.7539C248.807 11.1478 249.914 11.6049 250.98 12.1406C252.131 12.7186 253.275 13.3084 254.418 13.8984C255.513 14.4636 256.595 15.0633 257.641 15.7148C258.737 16.3983 259.831 17.0911 260.922 17.7852C261.943 18.4348 262.926 19.1392 263.871 19.8945C264.86 20.685 265.827 21.5064 266.781 22.3359C267.759 23.1859 268.734 24.0407 269.711 24.8945C270.632 25.6996 271.525 26.5463 272.367 27.4336C273.237 28.3496 274.096 29.2748 274.926 30.2266C275.749 31.1711 276.54 32.1466 277.309 33.1367C278.08 34.1305 278.834 35.1519 279.555 36.1836C280.259 37.193 280.925 38.2273 281.547 39.2891C282.187 40.382 282.808 41.4924 283.402 42.6094C283.998 43.7296 284.564 44.8678 285.121 46.0078C285.668 47.1259 286.187 48.2562 286.664 49.4062C287.149 50.5768 287.612 51.7712 288.051 52.9609C288.476 54.115 288.855 55.291 289.184 56.4766C289.521 57.6946 289.834 58.9185 290.121 60.1484C290.405 61.3643 290.651 62.5901 290.863 63.8203C291.074 65.0419 291.25 66.2786 291.371 67.5117C291.498 68.8002 291.621 70.0894 291.742 71.3789C291.858 72.6049 291.923 73.8368 291.938 75.0703C291.952 76.3149 291.93 77.5601 291.859 78.8008C291.788 80.0576 291.679 81.3196 291.547 82.5703C291.412 83.8399 291.262 85.1125 291.098 86.3789C291.014 87.0209 290.944 87.5034 290.902 87.8242C290.882 87.9779 290.874 88.0957 290.863 88.1758C290.858 88.214 290.846 88.2524 290.844 88.2734V88.4297C290.843 88.4462 290.825 88.5001 290.824 88.5273C290.823 88.5856 290.831 88.7748 290.844 88.918C291.336 90.1276 294.231 90.9279 295.59 89.6406C295.304 90.2791 294.833 90.6356 294.555 90.793C294.219 90.9818 293.916 91.0625 293.793 91.0859C293.532 91.1353 293.317 91.1262 293.266 91.125C293.151 91.1222 293.057 91.1113 293.012 91.1055ZM292.855 91.0859C292.872 91.0892 292.909 91.0792 292.953 91.0859C292.905 91.074 292.865 91.0735 292.836 91.0664H292.816L292.855 91.0859ZM290.883 88.0781C290.897 88.0198 290.971 87.7793 291.039 87.6094L291.078 87.5898C291.01 87.7379 290.924 87.898 290.883 88.0781Z" fill="black" fill-opacity="0.23"/>
<defs>
<filter id="filter0_i_738_1855" x="232" y="16" width="142" height="94" filterUnits="userSpaceOnUse" color-interpolation-filters="sRGB">
<feFlood flood-opacity="0" result="BackgroundImageFix"/>
<feBlend mode="normal" in="SourceGraphic" in2="BackgroundImageFix" result="shape"/>
<feColorMatrix in="SourceAlpha" type="matrix" values="0 0 0 0 0 0 0 0 0 0 0 0 0 0 0 0 0 0 127 0" result="hardAlpha"/>
<feOffset dy="11"/>
<feGaussianBlur stdDeviation="5"/>
<feComposite in2="hardAlpha" operator="arithmetic" k2="-1" k3="1"/>
<feColorMatrix type="matrix" values="0 0 0 0 1 0 0 0 0 1 0 0 0 0 1 0 0 0 1 0"/>
<feBlend mode="normal" in2="shape" result="effect1_innerShadow_738_1855"/>
</filter>
<filter id="filter1_i_738_1855" x="0" y="16" width="142" height="94" filterUnits="userSpaceOnUse" color-interpolation-filters="sRGB">
<feFlood flood-opacity="0" result="BackgroundImageFix"/>
<feBlend mode="normal" in="SourceGraphic" in2="BackgroundImageFix" result="shape"/>
<feColorMatrix in="SourceAlpha" type="matrix" values="0 0 0 0 0 0 0 0 0 0 0 0 0 0 0 0 0 0 127 0" result="hardAlpha"/>
<feOffset dy="11"/>
<feGaussianBlur stdDeviation="5"/>
<feComposite in2="hardAlpha" operator="arithmetic" k2="-1" k3="1"/>
<feColorMatrix type="matrix" values="0 0 0 0 1 0 0 0 0 1 0 0 0 0 1 0 0 0 1 0"/>
<feBlend mode="normal" in2="shape" result="effect1_innerShadow_738_1855"/>
</filter>
<filter id="filter2_i_738_1855" x="213" y="111" width="142" height="94" filterUnits="userSpaceOnUse" color-interpolation-filters="sRGB">
<feFlood flood-opacity="0" result="BackgroundImageFix"/>
<feBlend mode="normal" in="SourceGraphic" in2="BackgroundImageFix" result="shape"/>
<feColorMatrix in="SourceAlpha" type="matrix" values="0 0 0 0 0 0 0 0 0 0 0 0 0 0 0 0 0 0 127 0" result="hardAlpha"/>
<feOffset dy="11"/>
<feGaussianBlur stdDeviation="5"/>
<feComposite in2="hardAlpha" operator="arithmetic" k2="-1" k3="1"/>
<feColorMatrix type="matrix" values="0 0 0 0 1 0 0 0 0 1 0 0 0 0 1 0 0 0 1 0"/>
<feBlend mode="normal" in2="shape" result="effect1_innerShadow_738_1855"/>
</filter>
<filter id="filter3_i_738_1855" x="28" y="116" width="142" height="94" filterUnits="userSpaceOnUse" color-interpolation-filters="sRGB">
<feFlood flood-opacity="0" result="BackgroundImageFix"/>
<feBlend mode="normal" in="SourceGraphic" in2="BackgroundImageFix" result="shape"/>
<feColorMatrix in="SourceAlpha" type="matrix" values="0 0 0 0 0 0 0 0 0 0 0 0 0 0 0 0 0 0 127 0" result="hardAlpha"/>
<feOffset dy="11"/>
<feGaussianBlur stdDeviation="5"/>
<feComposite in2="hardAlpha" operator="arithmetic" k2="-1" k3="1"/>
<feColorMatrix type="matrix" values="0 0 0 0 1 0 0 0 0 1 0 0 0 0 1 0 0 0 1 0"/>
<feBlend mode="normal" in2="shape" result="effect1_innerShadow_738_1855"/>
</filter>
<filter id="filter5_i_738_1855" x="40.5078" y="0.477783" width="287.915" height="183.104" filterUnits="userSpaceOnUse" color-interpolation-filters="sRGB">
<feFlood flood-opacity="0" result="BackgroundImageFix"/>
<feBlend mode="normal" in="SourceGraphic" in2="BackgroundImageFix" result="shape"/>
<feColorMatrix in="SourceAlpha" type="matrix" values="0 0 0 0 0 0 0 0 0 0 0 0 0 0 0 0 0 0 127 0" result="hardAlpha"/>
<feOffset dy="11"/>
<feGaussianBlur stdDeviation="5"/>
<feComposite in2="hardAlpha" operator="arithmetic" k2="-1" k3="1"/>
<feColorMatrix type="matrix" values="0 0 0 0 1 0 0 0 0 1 0 0 0 0 1 0 0 0 1 0"/>
<feBlend mode="normal" in2="shape" result="effect1_innerShadow_738_1855"/>
</filter>
<linearGradient id="paint0_linear_738_1855" x1="241.032" y1="92.5" x2="383.923" y2="-14.7335" gradientUnits="userSpaceOnUse">
<stop stop-color="white"/>
<stop offset="1" stop-color="white" stop-opacity="0.58"/>
</linearGradient>
<linearGradient id="paint1_linear_738_1855" x1="9.0318" y1="92.5" x2="151.923" y2="-14.7335" gradientUnits="userSpaceOnUse">
<stop stop-color="white"/>
<stop offset="1" stop-color="white" stop-opacity="0.58"/>
</linearGradient>
<linearGradient id="paint2_linear_738_1855" x1="222.032" y1="187.5" x2="364.923" y2="80.2665" gradientUnits="userSpaceOnUse">
<stop stop-color="white"/>
<stop offset="1" stop-color="white" stop-opacity="0.58"/>
</linearGradient>
<linearGradient id="paint3_linear_738_1855" x1="37.0318" y1="192.5" x2="179.923" y2="85.2665" gradientUnits="userSpaceOnUse">
<stop stop-color="white"/>
<stop offset="1" stop-color="white" stop-opacity="0.58"/>
</linearGradient>
<linearGradient id="paint4_linear_738_1855" x1="61" y1="156" x2="346.5" y2="-57.5" gradientUnits="userSpaceOnUse">
<stop stop-color="white"/>
<stop offset="1" stop-color="white" stop-opacity="0.58"/>
</linearGradient>
</defs>
</svg>
