<svg width="287" height="279" viewBox="0 0 287 279" fill="none" xmlns="http://www.w3.org/2000/svg">
<g filter="url(#filter0_i_38_130)">
<path d="M170.517 43.4758C147.636 74.5427 143.668 116.941 163.853 151.902C184.038 186.863 222.739 204.626 261.085 200.343C252.931 211.413 242.377 221.045 229.657 228.388C181.243 256.34 119.801 240.56 92.4241 193.141C65.047 145.723 82.1014 84.6226 130.516 56.6703C143.235 49.3268 156.854 45.0018 170.517 43.4758Z" fill="url(#paint0_linear_38_130)"/>
</g>
<g filter="url(#filter1_i_38_130)">
<path d="M147.719 208.46C148.145 206.041 148.368 203.553 148.368 201.014C148.368 177.258 128.903 158 104.893 158C87.0426 158 71.7052 168.643 65.0097 183.865C59.5856 179.232 52.547 176.434 44.8554 176.434C27.7049 176.434 13.8017 190.343 13.8017 207.5C13.8017 208.455 13.8448 209.401 13.9292 210.334C5.68007 214.332 -9.53674e-07 222.72 -9.53674e-07 232.421C-9.53674e-07 245.995 11.1226 257 24.843 257H142.157C155.877 257 167 245.995 167 232.421C167 220.738 158.761 210.958 147.719 208.46Z" fill="url(#paint1_linear_38_130)"/>
</g>
<path d="M77.7393 170.673C78.3679 170.122 78.6523 169.326 78.5791 168.554C79.3149 168.8 80.1538 168.704 80.832 168.217C81.8989 167.45 83.0045 166.733 84.1455 166.069C84.8676 165.649 85.2982 164.923 85.374 164.15C86.0493 164.533 86.8913 164.599 87.6504 164.25C88.5436 163.84 89.4542 163.46 90.3809 163.113L91.3135 162.777C92.1024 162.503 92.6641 161.873 92.8867 161.13C93.4761 161.634 94.2891 161.86 95.1006 161.663C96.371 161.355 97.6651 161.106 98.9795 160.918C99.8069 160.8 100.48 160.288 100.84 159.601C101.323 160.209 102.079 160.585 102.914 160.546C103.569 160.515 104.229 160.5 104.893 160.5C105.565 160.5 106.233 160.516 106.896 160.548C107.749 160.588 108.521 160.196 109.003 159.565C109.356 160.276 110.039 160.807 110.883 160.93L111.878 161.086C112.868 161.254 113.846 161.457 114.811 161.694L115.062 161.743C115.805 161.847 116.531 161.609 117.064 161.137C117.274 161.901 117.84 162.554 118.645 162.837M77.7393 170.673L76.0938 168.792H76.0928L77.7393 170.673ZM77.7393 170.673C76.7478 171.541 75.7986 172.455 74.8965 173.413C74.3242 174.021 73.52 174.276 72.751 174.176C72.9704 174.92 72.8431 175.755 72.332 176.415C71.5273 177.455 70.7727 178.534 70.0713 179.649C69.6271 180.355 68.8875 180.759 68.1143 180.81C68.4732 181.497 68.5097 182.34 68.1367 183.086M68.1367 183.086L66.4131 182.224H66.4121L68.1367 183.086ZM68.1367 183.086C67.8431 183.673 67.563 184.269 67.2979 184.872L65.9434 187.951L63.3857 185.767C62.9597 185.403 62.5232 185.051 62.0762 184.712C61.5429 184.308 61.2203 183.731 61.1211 183.119C60.5951 183.243 60.0287 183.2 59.5098 182.962L59.2832 182.844C58.3203 182.279 57.3213 181.768 56.291 181.317C55.6786 181.049 55.2307 180.564 54.9912 179.992C54.5093 180.236 53.9493 180.326 53.3896 180.217L53.1406 180.155C52.3431 179.914 51.5307 179.706 50.7051 179.534L49.875 179.374C49.2167 179.257 48.6668 178.891 48.2998 178.392C47.827 178.793 47.2062 179.022 46.5381 178.983M46.5381 178.983L46.6836 176.489H46.6826L46.5381 178.983ZM46.5381 178.983C45.9817 178.951 45.4206 178.935 44.8555 178.935C44.2262 178.935 43.6019 178.955 42.9834 178.995C42.2066 179.045 41.4906 178.734 40.9971 178.207C40.6556 178.843 40.0428 179.327 39.2793 179.479L38.8184 179.573C37.7458 179.804 36.6957 180.096 35.6719 180.443C34.9356 180.693 34.164 180.58 33.5508 180.2C33.3867 180.903 32.9209 181.529 32.2236 181.874C31.1027 182.428 30.0226 183.054 28.9902 183.745L28.7705 183.877C28.1725 184.195 27.4916 184.247 26.877 184.062C26.9007 184.783 26.6124 185.51 26.0273 186.023L25.6787 186.335C24.8706 187.068 24.1045 187.847 23.3848 188.668C22.8714 189.253 22.1455 189.54 21.4238 189.517C21.6329 190.208 21.5415 190.984 21.1084 191.632L20.8525 192.021C20.2624 192.935 19.7228 193.885 19.2383 194.866L19.1133 195.09C18.754 195.663 18.1904 196.047 17.5664 196.193C17.9465 196.806 18.0584 197.579 17.8086 198.315M17.8086 198.315L15.4424 197.512V197.513H15.4414L17.8086 198.315ZM17.8086 198.315C17.4117 199.486 17.0885 200.69 16.8447 201.923C16.6938 202.686 16.2107 203.299 15.5752 203.641C16.1022 204.134 16.4125 204.851 16.3623 205.628C16.3224 206.246 16.3018 206.871 16.3018 207.5L16.3086 208.153C16.3137 208.38 16.2862 208.6 16.2344 208.81C16.2783 208.937 16.3147 209.068 16.3379 209.204L16.3672 209.458C16.3819 209.676 16.3994 209.893 16.4189 210.109L16.5742 211.83L15.0195 212.584C14.3985 212.885 13.7932 213.214 13.2061 213.568C12.3988 214.056 11.4272 214.032 10.6641 213.592C10.8595 214.451 10.5941 215.388 9.88965 216.016C8.86132 216.932 7.91937 217.94 7.07812 219.028C6.50189 219.773 5.5881 220.102 4.71875 219.969C5.21037 220.698 5.30261 221.665 4.875 222.504C4.25617 223.718 3.74765 224.996 3.3623 226.324C3.10043 227.227 2.3732 227.868 1.51758 228.064C2.24224 228.561 2.68312 229.425 2.5957 230.361C2.5324 231.039 2.5 231.726 2.5 232.421C2.50001 233.008 2.52298 233.59 2.56836 234.165C2.6242 234.874 2.37684 235.535 1.9375 236.026C2.43922 236.316 2.84109 236.777 3.04492 237.354L3.11719 237.6C3.3937 238.737 3.75976 239.84 4.20703 240.901C4.48329 241.557 4.45708 242.263 4.19434 242.868C4.76189 242.986 5.28818 243.297 5.66309 243.781L5.80957 243.991C6.42605 244.979 7.11962 245.916 7.88184 246.794M7.88184 246.794L5.99512 248.432V248.433L7.88184 246.794ZM7.88184 246.794C8.34901 247.332 8.54396 248.012 8.48145 248.67C9.13812 248.597 9.82266 248.781 10.3682 249.24C11.1455 249.894 11.9685 250.497 12.832 251.042L13.2041 251.272C13.8141 251.641 14.2093 252.229 14.3516 252.874C14.8809 252.636 15.4911 252.58 16.0791 252.753L16.3213 252.838C17.2558 253.219 18.2224 253.539 19.2158 253.794L19.6426 253.899C20.3367 254.063 20.894 254.502 21.2275 255.072C21.6589 254.683 22.2233 254.442 22.8369 254.427L23.0928 254.434C23.6698 254.478 24.2534 254.5 24.8428 254.5H26.7979C27.5902 254.5 28.2959 254.869 28.7539 255.444C29.212 254.87 29.9169 254.5 30.709 254.5H34.6191C35.4118 254.5 36.1172 254.87 36.5752 255.445C37.0332 254.87 37.7371 254.5 38.5293 254.5H42.4404C43.2328 254.5 43.9376 254.87 44.3955 255.445C44.8535 254.87 45.5581 254.5 46.3506 254.5H50.2607C51.0531 254.5 51.7588 254.869 52.2168 255.444C52.6748 254.87 53.3798 254.5 54.1719 254.5H58.082C58.8742 254.5 59.5791 254.869 60.0371 255.444C60.4951 254.869 61.2001 254.5 61.9922 254.5H65.9033C66.6954 254.5 67.4004 254.869 67.8584 255.444C68.3164 254.869 69.0213 254.5 69.8135 254.5H73.7236C74.516 254.5 75.2217 254.869 75.6797 255.444C76.1377 254.87 76.8427 254.5 77.6348 254.5H81.5449C82.3371 254.5 83.042 254.869 83.5 255.444C83.958 254.869 84.6629 254.5 85.4551 254.5H89.3652C90.1575 254.5 90.8633 254.869 91.3213 255.444C91.7793 254.87 92.4842 254.5 93.2764 254.5H97.1865C97.9789 254.5 98.6845 254.869 99.1426 255.444C99.6005 254.87 100.305 254.5 101.097 254.5H105.008C105.8 254.5 106.505 254.869 106.963 255.444C107.421 254.869 108.126 254.5 108.918 254.5H112.828C113.62 254.5 114.326 254.869 114.784 255.444C115.242 254.87 115.947 254.5 116.739 254.5H120.649C121.442 254.5 122.147 254.87 122.605 255.445C123.063 254.87 123.767 254.5 124.56 254.5H128.471C129.263 254.5 129.968 254.87 130.426 255.445C130.884 254.87 131.588 254.5 132.381 254.5H136.291C137.083 254.5 137.789 254.869 138.247 255.444C138.705 254.87 139.41 254.5 140.202 254.5H142.157C142.747 254.5 143.33 254.478 143.907 254.434L144.163 254.427C144.777 254.442 145.342 254.682 145.773 255.072C146.107 254.502 146.663 254.063 147.357 253.899C148.501 253.63 149.611 253.274 150.679 252.838L150.921 252.753C151.509 252.58 152.12 252.636 152.649 252.874C152.792 252.229 153.186 251.641 153.796 251.272L154.168 251.042C155.031 250.497 155.854 249.894 156.632 249.24L156.836 249.086C157.343 248.74 157.942 248.605 158.52 248.67C158.457 248.012 158.651 247.332 159.118 246.794M159.118 246.794L161.006 248.433V248.432L159.118 246.794ZM159.118 246.794C159.88 245.916 160.574 244.979 161.19 243.991C161.567 243.387 162.16 243.002 162.807 242.868C162.544 242.263 162.517 241.557 162.793 240.901L162.957 240.502C163.331 239.564 163.641 238.595 163.883 237.6L163.955 237.354C164.159 236.777 164.561 236.316 165.063 236.026C164.624 235.535 164.376 234.874 164.432 234.165M164.432 234.165L166.924 234.361V234.36L164.432 234.165ZM164.432 234.165C164.466 233.734 164.487 233.299 164.496 232.86L164.5 232.421C164.5 231.95 164.485 231.482 164.456 231.019L164.422 230.558C164.356 229.773 164.661 229.043 165.189 228.538C164.596 228.271 164.111 227.778 163.871 227.135L163.794 226.891C163.478 225.679 163.061 224.508 162.551 223.386C162.225 222.669 162.267 221.879 162.596 221.227C161.947 221.174 161.323 220.87 160.882 220.344L160.728 220.14C160.028 219.11 159.244 218.14 158.383 217.242M158.383 217.242L160.188 215.513V215.512L158.383 217.242ZM158.383 217.242C157.837 216.672 157.615 215.911 157.711 215.185C157.002 215.369 156.219 215.245 155.586 214.773C154.591 214.033 153.533 213.372 152.419 212.802C151.717 212.442 151.259 211.796 151.111 211.079C150.502 211.486 149.721 211.624 148.969 211.386M148.969 211.386L149.723 209.002H149.722L148.969 211.386ZM148.969 211.386C148.526 211.246 148.077 211.119 147.623 211.006L147.167 210.898L144.843 210.372L145.257 208.025C145.358 207.449 145.448 206.869 145.524 206.285L145.57 206.033C145.71 205.443 146.054 204.945 146.516 204.604C146.066 204.129 145.8 203.481 145.83 202.776M145.83 202.776L148.327 202.884V202.883L145.83 202.776ZM145.83 202.776C145.855 202.192 145.868 201.604 145.868 201.014C145.868 200.678 145.864 200.344 145.855 200.011L145.818 199.014C145.777 198.163 146.167 197.391 146.795 196.908C146.157 196.593 145.661 196.013 145.476 195.287L145.425 195.036C145.226 193.709 144.963 192.403 144.638 191.121C144.428 190.296 144.657 189.464 145.176 188.866C144.411 188.664 143.754 188.104 143.463 187.304C143.12 186.361 142.743 185.435 142.333 184.526L141.912 183.623C141.543 182.856 141.601 181.994 141.991 181.305C141.281 181.263 140.598 180.921 140.146 180.324L140.002 180.113C139.48 179.259 138.927 178.424 138.345 177.612L137.753 176.808C137.239 176.127 137.128 175.27 137.376 174.518C136.67 174.616 135.933 174.414 135.372 173.916L135.189 173.737C134.286 172.757 133.335 171.82 132.339 170.931C131.703 170.363 131.427 169.544 131.524 168.757C130.775 169.017 129.916 168.918 129.228 168.415C128.153 167.629 127.038 166.894 125.887 166.214M125.887 166.214L127.158 164.064V164.063L125.887 166.214ZM125.887 166.214C125.153 165.78 124.724 165.03 124.667 164.239C124.052 164.599 123.293 164.692 122.585 164.445L122.348 164.349C121.144 163.787 119.909 163.282 118.645 162.837M118.645 162.837L119.475 160.481H119.474L118.645 162.837Z" stroke="black" stroke-opacity="0.23" stroke-width="5" stroke-linecap="round" stroke-dasharray="4 4"/>
<g filter="url(#filter2_i_38_130)">
<path d="M267.719 50.4597C268.145 48.0412 268.368 45.5532 268.368 43.0138C268.368 19.2579 248.903 0 224.893 0C207.043 0 191.705 10.6432 185.01 25.8653C179.586 21.232 172.547 18.4345 164.855 18.4345C147.705 18.4345 133.802 32.343 133.802 49.5C133.802 50.4554 133.845 51.4007 133.929 52.3341C125.68 56.3317 120 64.7199 120 74.4207C120 87.9955 131.123 99 144.843 99H262.157C275.877 99 287 87.9955 287 74.4207C287 62.7377 278.761 52.9585 267.719 50.4597Z" fill="url(#paint2_linear_38_130)"/>
</g>
<path d="M197.739 12.6729C198.368 12.1224 198.652 11.3265 198.579 10.5537C199.315 10.7998 200.154 10.7041 200.832 10.2168C201.899 9.45021 203.005 8.73311 204.146 8.06934C204.868 7.64925 205.298 6.92278 205.374 6.15039C206.049 6.53284 206.891 6.59867 207.65 6.25C208.544 5.83974 209.454 5.46034 210.381 5.11328L211.313 4.77734C212.102 4.50348 212.664 3.87305 212.887 3.12988C213.476 3.63423 214.289 3.85971 215.101 3.66309C216.371 3.35516 217.665 3.1057 218.979 2.91797C219.807 2.7998 220.48 2.28843 220.84 1.60059C221.323 2.20867 222.079 2.58511 222.914 2.5459C223.569 2.51512 224.229 2.5 224.893 2.5C225.565 2.5 226.233 2.51628 226.896 2.54785C227.749 2.58841 228.521 2.19602 229.003 1.56543C229.356 2.2756 230.039 2.80744 230.883 2.92969L231.878 3.08594C232.868 3.25404 233.846 3.45736 234.811 3.69434L235.062 3.74316C235.805 3.84748 236.531 3.60859 237.064 3.13672C237.274 3.90108 237.84 4.55374 238.645 4.83691M197.739 12.6729L196.094 10.792H196.093L197.739 12.6729ZM197.739 12.6729C196.748 13.541 195.799 14.4551 194.896 15.4131C194.324 16.0209 193.52 16.2763 192.751 16.1758C192.97 16.9198 192.843 17.7548 192.332 18.415C191.527 19.4547 190.773 20.5343 190.071 21.6494C189.627 22.3554 188.887 22.7595 188.114 22.8096C188.473 23.4966 188.51 24.3396 188.137 25.0859M188.137 25.0859L186.413 24.2236H186.412L188.137 25.0859ZM188.137 25.0859C187.843 25.6733 187.563 26.2692 187.298 26.8721L185.943 29.9512L183.386 27.7666C182.96 27.4027 182.523 27.0506 182.076 26.7119C181.543 26.3079 181.22 25.7312 181.121 25.1191C180.595 25.243 180.029 25.1997 179.51 24.9619L179.283 24.8438C178.32 24.2785 177.321 23.7684 176.291 23.3174C175.679 23.0492 175.231 22.5637 174.991 21.9922C174.509 22.2355 173.949 22.326 173.39 22.2168L173.141 22.1553C172.343 21.9138 171.531 21.7061 170.705 21.5342L169.875 21.374C169.217 21.2572 168.667 20.891 168.3 20.3916C167.827 20.7932 167.206 21.0222 166.538 20.9834M166.538 20.9834L166.684 18.4893H166.683L166.538 20.9834ZM166.538 20.9834C165.982 20.9511 165.421 20.9346 164.855 20.9346C164.226 20.9346 163.602 20.9551 162.983 20.9951C162.207 21.0453 161.491 20.7341 160.997 20.207C160.656 20.8432 160.043 21.3274 159.279 21.4785L158.818 21.5732C157.746 21.8041 156.696 22.0957 155.672 22.4434C154.936 22.6933 154.164 22.58 153.551 22.2002C153.387 22.9028 152.921 23.5293 152.224 23.874C151.103 24.4282 150.023 25.0536 148.99 25.7451L148.771 25.877C148.172 26.1951 147.492 26.2466 146.877 26.0615C146.901 26.7834 146.612 27.5096 146.027 28.0234L145.679 28.335C144.871 29.0682 144.104 29.8475 143.385 30.668C142.871 31.253 142.145 31.5398 141.424 31.5166C141.633 32.2082 141.541 32.9845 141.108 33.6318L140.853 34.0215C140.262 34.9354 139.723 35.885 139.238 36.8662L139.113 37.0898C138.754 37.6629 138.19 38.047 137.566 38.1934C137.946 38.8065 138.058 39.579 137.809 40.3154M137.809 40.3154L135.442 39.5117V39.5127H135.441L137.809 40.3154ZM137.809 40.3154C137.412 41.4855 137.089 42.6898 136.845 43.9229C136.694 44.686 136.211 45.2989 135.575 45.6406C136.102 46.1341 136.412 46.8512 136.362 47.6279C136.322 48.2465 136.302 48.8707 136.302 49.5L136.309 50.1533C136.314 50.3799 136.286 50.5996 136.234 50.8096C136.278 50.9367 136.315 51.068 136.338 51.2041L136.367 51.458C136.382 51.6756 136.399 51.8932 136.419 52.1094L136.574 53.8301L135.02 54.584C134.398 54.885 133.793 55.2136 133.206 55.5684C132.399 56.056 131.427 56.0316 130.664 55.5918C130.859 56.451 130.594 57.388 129.89 58.0156C128.861 58.9316 127.919 59.9405 127.078 61.0283C126.502 61.7733 125.588 62.1023 124.719 61.9688C125.21 62.6978 125.303 63.6649 124.875 64.5039C124.256 65.718 123.748 66.9956 123.362 68.3242C123.1 69.2272 122.373 69.8681 121.518 70.0645C122.242 70.5607 122.683 71.4248 122.596 72.3613C122.532 73.0387 122.5 73.7259 122.5 74.4209C122.5 75.0082 122.523 75.5902 122.568 76.165C122.624 76.8739 122.377 77.5351 121.938 78.0264C122.439 78.3161 122.841 78.7775 123.045 79.3545L123.117 79.5996C123.394 80.7369 123.76 81.8399 124.207 82.9014C124.483 83.557 124.457 84.2634 124.194 84.8682C124.762 84.9855 125.288 85.2974 125.663 85.7812L125.81 85.9912C126.426 86.9792 127.12 87.9165 127.882 88.7939M127.882 88.7939L125.995 90.4316V90.4326L127.882 88.7939ZM127.882 88.7939C128.349 89.3319 128.544 90.0125 128.481 90.6699C129.138 90.5968 129.823 90.7813 130.368 91.2402C131.146 91.8943 131.969 92.4968 132.832 93.042L133.204 93.2725C133.814 93.6411 134.209 94.2289 134.352 94.874C134.881 94.636 135.491 94.58 136.079 94.7529L136.321 94.8379C137.256 95.2193 138.222 95.5393 139.216 95.7939L139.643 95.8994C140.337 96.0629 140.894 96.5016 141.228 97.0723C141.659 96.6828 142.223 96.442 142.837 96.4268L143.093 96.4336C143.67 96.4777 144.253 96.5 144.843 96.5H146.798C147.59 96.5 148.296 96.8693 148.754 97.4443C149.212 96.8695 149.917 96.5 150.709 96.5H154.619C155.412 96.5 156.117 96.8698 156.575 97.4453C157.033 96.8704 157.737 96.5001 158.529 96.5H162.44C163.233 96.5001 163.938 96.8701 164.396 97.4453C164.854 96.8701 165.558 96.5 166.351 96.5H170.261C171.053 96.5 171.759 96.8693 172.217 97.4443C172.675 96.8696 173.38 96.5 174.172 96.5H178.082C178.874 96.5 179.579 96.8695 180.037 97.4443C180.495 96.8694 181.2 96.5001 181.992 96.5H185.903C186.695 96.5001 187.4 96.8694 187.858 97.4443C188.316 96.8695 189.021 96.5 189.813 96.5H193.724C194.516 96.5 195.222 96.8692 195.68 97.4443C196.138 96.8696 196.843 96.5 197.635 96.5H201.545C202.337 96.5 203.042 96.8695 203.5 97.4443C203.958 96.8695 204.663 96.5 205.455 96.5H209.365C210.158 96.5 210.863 96.8693 211.321 97.4443C211.779 96.8695 212.484 96.5 213.276 96.5H217.187C217.979 96.5 218.685 96.8692 219.143 97.4443C219.601 96.8697 220.305 96.5001 221.097 96.5H225.008C225.8 96.5001 226.505 96.8694 226.963 97.4443C227.421 96.8695 228.126 96.5 228.918 96.5H232.828C233.62 96.5 234.326 96.8693 234.784 97.4443C235.242 96.8695 235.947 96.5 236.739 96.5H240.649C241.442 96.5 242.147 96.8698 242.605 97.4453C243.063 96.8704 243.767 96.5001 244.56 96.5H248.471C249.263 96.5001 249.968 96.8701 250.426 97.4453C250.884 96.8701 251.588 96.5 252.381 96.5H256.291C257.083 96.5 257.789 96.8693 258.247 97.4443C258.705 96.8696 259.41 96.5 260.202 96.5H262.157C262.747 96.5 263.33 96.4777 263.907 96.4336L264.163 96.4268C264.777 96.442 265.342 96.6825 265.773 97.0723C266.107 96.5018 266.663 96.0628 267.357 95.8994C268.501 95.6301 269.611 95.2737 270.679 94.8379L270.921 94.7529C271.509 94.5799 272.12 94.6357 272.649 94.874C272.792 94.229 273.186 93.6411 273.796 93.2725L274.168 93.042C275.031 92.4968 275.854 91.8943 276.632 91.2402L276.836 91.0859C277.343 90.7402 277.942 90.6054 278.52 90.6699C278.457 90.0125 278.651 89.3319 279.118 88.7939M279.118 88.7939L281.006 90.4326V90.4316L279.118 88.7939ZM279.118 88.7939C279.88 87.9165 280.574 86.9792 281.19 85.9912C281.567 85.3872 282.16 85.0016 282.807 84.8682C282.544 84.2633 282.517 83.5571 282.793 82.9014L282.957 82.502C283.331 81.5641 283.641 80.5949 283.883 79.5996L283.955 79.3545C284.159 78.7772 284.561 78.3161 285.063 78.0264C284.624 77.5351 284.376 76.8741 284.432 76.165M284.432 76.165L286.924 76.3613V76.3604L284.432 76.165ZM284.432 76.165C284.466 75.7339 284.487 75.2986 284.496 74.8604L284.5 74.4209C284.5 73.9496 284.485 73.4819 284.456 73.0186L284.422 72.5576C284.356 71.7726 284.661 71.0426 285.189 70.5381C284.596 70.2712 284.111 69.7779 283.871 69.1348L283.794 68.8906C283.478 67.6793 283.061 66.5077 282.551 65.3857C282.225 64.6687 282.267 63.8792 282.596 63.2266C281.947 63.1738 281.323 62.8705 280.882 62.3438L280.728 62.1396C280.028 61.1096 279.244 60.1404 278.383 59.2422M278.383 59.2422L280.188 57.5127V57.5117L278.383 59.2422ZM278.383 59.2422C277.837 58.6722 277.615 57.9108 277.711 57.1846C277.002 57.3693 276.219 57.2448 275.586 56.7734C274.591 56.033 273.533 55.3719 272.419 54.8018C271.717 54.4422 271.259 53.7961 271.111 53.0791C270.502 53.4858 269.721 53.6235 268.969 53.3857M268.969 53.3857L269.723 51.002H269.722L268.969 53.3857ZM268.969 53.3857C268.526 53.2459 268.077 53.1187 267.623 53.0059L267.167 52.8984L264.843 52.3721L265.257 50.0254C265.358 49.4495 265.448 48.8693 265.524 48.2852L265.57 48.0332C265.71 47.4432 266.054 46.9453 266.516 46.6035C266.066 46.1291 265.8 45.4813 265.83 44.7764M265.83 44.7764L268.327 44.8838V44.8828L265.83 44.7764ZM265.83 44.7764C265.855 44.1922 265.868 43.6043 265.868 43.0137C265.868 42.6783 265.864 42.344 265.855 42.0107L265.818 41.0137C265.777 40.1625 266.167 39.3909 266.795 38.9082C266.157 38.5934 265.661 38.0134 265.476 37.2871L265.425 37.0361C265.226 35.7088 264.963 34.4028 264.638 33.1211C264.428 32.2962 264.657 31.4636 265.176 30.8662C264.411 30.664 263.754 30.1036 263.463 29.3037C263.12 28.3613 262.743 27.4351 262.333 26.5264L261.912 25.623C261.543 24.8556 261.601 23.9936 261.991 23.3047C261.281 23.2629 260.598 22.9212 260.146 22.3242L260.002 22.1133C259.48 21.2587 258.927 20.4244 258.345 19.6123L257.753 18.8076C257.239 18.1274 257.128 17.2701 257.376 16.5176C256.67 16.6161 255.933 16.4136 255.372 15.916L255.189 15.7373C254.286 14.7568 253.335 13.8196 252.339 12.9307C251.703 12.3629 251.427 11.5435 251.524 10.7568C250.775 11.0168 249.916 10.9184 249.228 10.415C248.153 9.62939 247.038 8.89445 245.887 8.21387M245.887 8.21387L247.158 6.06445V6.06348L245.887 8.21387ZM245.887 8.21387C245.153 7.78006 244.724 7.0297 244.667 6.23926C244.052 6.59869 243.293 6.69194 242.585 6.44531L242.348 6.34863C241.144 5.78746 239.909 5.28212 238.645 4.83691M238.645 4.83691L239.475 2.48145H239.474L238.645 4.83691Z" stroke="black" stroke-opacity="0.23" stroke-width="5" stroke-linecap="round" stroke-dasharray="4 4"/>
<defs>
<filter id="filter0_i_38_130" x="79.3618" y="43.4758" width="181.723" height="202.735" filterUnits="userSpaceOnUse" color-interpolation-filters="sRGB">
<feFlood flood-opacity="0" result="BackgroundImageFix"/>
<feBlend mode="normal" in="SourceGraphic" in2="BackgroundImageFix" result="shape"/>
<feColorMatrix in="SourceAlpha" type="matrix" values="0 0 0 0 0 0 0 0 0 0 0 0 0 0 0 0 0 0 127 0" result="hardAlpha"/>
<feOffset dy="4"/>
<feGaussianBlur stdDeviation="4"/>
<feComposite in2="hardAlpha" operator="arithmetic" k2="-1" k3="1"/>
<feColorMatrix type="matrix" values="0 0 0 0 1 0 0 0 0 1 0 0 0 0 1 0 0 0 0.55 0"/>
<feBlend mode="normal" in2="shape" result="effect1_innerShadow_38_130"/>
</filter>
<filter id="filter1_i_38_130" x="0" y="158" width="167" height="109" filterUnits="userSpaceOnUse" color-interpolation-filters="sRGB">
<feFlood flood-opacity="0" result="BackgroundImageFix"/>
<feBlend mode="normal" in="SourceGraphic" in2="BackgroundImageFix" result="shape"/>
<feColorMatrix in="SourceAlpha" type="matrix" values="0 0 0 0 0 0 0 0 0 0 0 0 0 0 0 0 0 0 127 0" result="hardAlpha"/>
<feOffset dy="11"/>
<feGaussianBlur stdDeviation="5"/>
<feComposite in2="hardAlpha" operator="arithmetic" k2="-1" k3="1"/>
<feColorMatrix type="matrix" values="0 0 0 0 1 0 0 0 0 1 0 0 0 0 1 0 0 0 1 0"/>
<feBlend mode="normal" in2="shape" result="effect1_innerShadow_38_130"/>
</filter>
<filter id="filter2_i_38_130" x="120" y="0" width="167" height="109" filterUnits="userSpaceOnUse" color-interpolation-filters="sRGB">
<feFlood flood-opacity="0" result="BackgroundImageFix"/>
<feBlend mode="normal" in="SourceGraphic" in2="BackgroundImageFix" result="shape"/>
<feColorMatrix in="SourceAlpha" type="matrix" values="0 0 0 0 0 0 0 0 0 0 0 0 0 0 0 0 0 0 127 0" result="hardAlpha"/>
<feOffset dy="11"/>
<feGaussianBlur stdDeviation="5"/>
<feComposite in2="hardAlpha" operator="arithmetic" k2="-1" k3="1"/>
<feColorMatrix type="matrix" values="0 0 0 0 1 0 0 0 0 1 0 0 0 0 1 0 0 0 1 0"/>
<feBlend mode="normal" in2="shape" result="effect1_innerShadow_38_130"/>
</filter>
<linearGradient id="paint0_linear_38_130" x1="175.5" y1="27" x2="139.175" y2="246.951" gradientUnits="userSpaceOnUse">
<stop stop-color="#FFEE94"/>
<stop offset="1" stop-color="#FF9900"/>
</linearGradient>
<linearGradient id="paint1_linear_38_130" x1="10.6219" y1="248.161" x2="178.929" y2="122.124" gradientUnits="userSpaceOnUse">
<stop stop-color="white"/>
<stop offset="1" stop-color="white" stop-opacity="0.58"/>
</linearGradient>
<linearGradient id="paint2_linear_38_130" x1="130.622" y1="90.1607" x2="298.929" y2="-35.8764" gradientUnits="userSpaceOnUse">
<stop stop-color="white"/>
<stop offset="1" stop-color="white" stop-opacity="0.58"/>
</linearGradient>
</defs>
</svg>
