<svg width="129" height="137" viewBox="0 0 129 137" fill="none" xmlns="http://www.w3.org/2000/svg">
<g clip-path="url(#clip0_1006_1378)">
<path d="M28.7382 19.6723C40.0668 13.2069 51.0466 6.93375 62.0406 0.696221C62.8839 0.211438 63.8457 -0.0287083 64.8179 0.00273562C65.7902 0.0341796 66.7344 0.335969 67.5447 0.874233C87.6149 12.3856 107.683 23.9113 127.748 35.4512C128.092 35.698 128.378 36.0171 128.586 36.3861C128.794 36.7551 128.919 37.1651 128.952 37.5873C129.009 60.5864 129.044 83.5926 128.887 106.592C128.829 107.448 128.586 108.282 128.174 109.036C127.762 109.789 127.192 110.445 126.502 110.957C115.686 117.365 104.721 123.51 93.7907 129.726C93.6839 129.79 93.4988 129.726 93.043 129.726V127.07C93.043 104.534 93.0431 81.9976 93.0929 59.4614C93.0929 57.3253 92.4948 56.186 90.6292 55.1321C70.5068 43.7394 50.4105 32.2683 30.3403 20.719C29.9059 20.4697 29.4644 20.1564 28.7382 19.6723Z" fill="#0EA5E9"/>
<path d="M46.6248 136.12V133.322C46.6248 117.5 46.5821 101.679 46.6746 85.8569C46.6746 83.7849 45.9626 82.731 44.2394 81.7413C30.262 73.8589 16.3771 65.8769 2.41384 57.9234C1.75163 57.546 1.09655 57.1472 0 56.4993C0.477071 56.2714 0.754769 56.1646 1.01823 56.0151C10.1823 50.7459 19.3819 45.5551 28.4818 40.1934C31.1805 38.6127 33.5089 38.5984 36.2431 40.1934C49.7958 48.0402 63.3911 55.8086 77.0292 63.4987C77.6475 63.7672 78.1662 64.2228 78.5124 64.8013C78.8585 65.3799 79.0146 66.0524 78.9588 66.7242C78.8923 82.5459 78.8923 98.3676 78.9588 114.189C78.9588 116.567 78.1898 118.383 76.1106 119.579L47.9207 135.608C47.4978 135.801 47.0652 135.972 46.6248 136.12Z" fill="#0EA5E9"/>
<path d="M32.3482 91.2044V128.152L0.0355835 109.639L32.3482 91.2044Z" fill="#0EA5E9"/>
</g>
<defs>
<clipPath id="clip0_1006_1378">
<rect width="129" height="136.12" fill="white"/>
</clipPath>
</defs>
</svg>
