<svg width="314" height="259" viewBox="0 0 314 259" fill="none" xmlns="http://www.w3.org/2000/svg">
<g filter="url(#filter0_i_38_162)">
<path d="M295 104C295 161.438 248.438 208 191 208C133.562 208 87 161.438 87 104C87 46.5624 133.562 0 191 0C248.438 0 295 46.5624 295 104Z" fill="url(#paint0_linear_38_162)"/>
</g>
<g filter="url(#filter1_i_38_162)">
<path d="M277.747 167.008C278.549 162.455 278.967 157.77 278.967 152.989C278.967 108.26 242.369 72 197.223 72C163.661 72 134.823 92.0397 122.234 120.701C112.035 111.977 98.801 106.709 84.3389 106.709C52.0918 106.709 25.9504 132.897 25.9504 165.201C25.9504 167 26.0315 168.78 26.1902 170.538C10.6799 178.065 1.5378e-05 193.858 1.5378e-05 212.124C1.5378e-05 237.683 20.9131 258.403 46.7108 258.403H267.289C293.087 258.403 314 237.683 314 212.124C314 190.126 298.51 171.713 277.747 167.008Z" fill="url(#paint1_linear_38_162)"/>
</g>
<path d="M172.771 78.3076C173.678 78.0164 174.592 77.7408 175.514 77.4814L176.437 77.2275C177.189 77.0255 177.769 76.5011 178.067 75.8428C178.571 76.2408 179.223 76.4445 179.896 76.3682L180.149 76.3262C181.389 76.0566 182.64 75.8158 183.9 75.6045C184.669 75.4756 185.298 75.0082 185.657 74.3809C186.178 74.8817 186.911 75.1543 187.685 75.0625C188.944 74.9129 190.213 74.7925 191.49 74.7021C192.268 74.6471 192.937 74.2421 193.354 73.6523C193.826 74.2 194.529 74.5406 195.308 74.5225C195.944 74.5075 196.583 74.5 197.224 74.5C197.873 74.5 198.521 74.5081 199.167 74.5234C199.962 74.5423 200.678 74.1861 201.149 73.6182C201.565 74.2283 202.243 74.651 203.036 74.708L204.005 74.7832C204.972 74.8644 205.935 74.9629 206.892 75.0781C207.681 75.1732 208.428 74.8882 208.952 74.3682C209.307 75.015 209.94 75.5005 210.724 75.6338C212.001 75.8509 213.269 76.099 214.524 76.376L214.776 76.418C215.466 76.4982 216.133 76.2841 216.643 75.8682C216.932 76.5469 217.516 77.0927 218.283 77.3018L219.218 77.5625C220.15 77.8287 221.075 78.1113 221.993 78.4102L222.24 78.4766C222.918 78.6236 223.604 78.4764 224.151 78.1123C224.373 78.8157 224.901 79.4153 225.644 79.6982C226.853 80.1585 228.048 80.6476 229.228 81.1641L229.467 81.2549C230.127 81.4675 230.823 81.387 231.404 81.0781C231.557 81.8002 232.023 82.4486 232.735 82.8027C233.893 83.3785 235.035 83.9818 236.159 84.6113C236.853 84.9997 237.652 85.0196 238.334 84.7383C238.415 85.4718 238.816 86.1631 239.49 86.585L240.309 87.1035C241.123 87.6273 241.928 88.1655 242.722 88.7178L242.938 88.8535C243.545 89.1905 244.244 89.2471 244.874 89.0566C244.883 89.7945 245.216 90.5214 245.846 91.0068L246.609 91.6025C247.369 92.2029 248.117 92.8172 248.854 93.4443L249.057 93.6006C249.628 93.9949 250.318 94.1184 250.963 93.9902C250.9 94.7257 251.16 95.4818 251.74 96.0264M172.771 78.3076L172.008 75.9277V75.9287L172.771 78.3076ZM172.771 78.3076C172.029 78.5455 171.258 78.4178 170.651 78.0264C170.418 78.7105 169.892 79.2889 169.162 79.5625C167.967 80.0108 166.786 80.4872 165.619 80.9902C164.904 81.2986 164.125 81.2453 163.482 80.9141C163.317 81.6179 162.848 82.244 162.147 82.5869C161.002 83.1481 159.872 83.736 158.758 84.3496M158.758 84.3496L157.554 82.1621V82.1631L158.758 84.3496ZM158.758 84.3496C158.076 84.7254 157.295 84.7491 156.624 84.4814C156.526 85.1973 156.12 85.8651 155.457 86.2734C154.371 86.942 153.302 87.6362 152.252 88.3545C151.609 88.7943 150.833 88.8917 150.14 88.6895C150.112 89.4119 149.772 90.1165 149.15 90.5869C148.134 91.3563 147.137 92.1497 146.16 92.9658L145.956 93.1201C145.395 93.5 144.722 93.6215 144.091 93.502C144.132 94.2237 143.861 94.9575 143.287 95.4854L142.588 96.1367C141.893 96.7923 141.21 97.4607 140.539 98.1406M140.539 98.1406L138.762 96.3857V96.3867L140.539 98.1406ZM140.539 98.1406C139.992 98.6951 139.25 98.9389 138.53 98.873C138.641 99.5874 138.442 100.343 137.922 100.924M137.922 100.924L136.062 99.2578V99.2588L137.922 100.924ZM137.922 100.924C137.072 101.873 136.245 102.842 135.442 103.831C134.951 104.435 134.237 104.75 133.515 104.754C133.693 105.454 133.568 106.227 133.106 106.854C132.353 107.88 131.624 108.924 130.92 109.986C130.49 110.635 129.809 111.018 129.091 111.092C129.336 111.771 129.287 112.551 128.889 113.221C128.239 114.314 127.615 115.424 127.018 116.551C126.653 117.238 126.013 117.685 125.306 117.829C125.616 118.481 125.643 119.262 125.312 119.967C125.042 120.543 124.779 121.123 124.522 121.706L123.168 124.79L120.608 122.601C120.108 122.173 119.601 121.754 119.086 121.344C118.44 120.829 118.119 120.059 118.147 119.292C117.498 119.517 116.765 119.476 116.13 119.128L115.912 118.994C114.829 118.25 113.717 117.542 112.581 116.874C111.869 116.455 111.443 115.738 111.364 114.975C110.753 115.289 110.023 115.351 109.345 115.097L109.109 114.995C107.934 114.412 106.734 113.868 105.514 113.367C104.75 113.053 104.228 112.404 104.041 111.66C103.415 112.104 102.596 112.258 101.812 112M101.812 112L102.595 109.626H102.594L101.812 112ZM101.812 112C100.878 111.692 99.934 111.408 98.9795 111.149L98.0225 110.899C97.2218 110.698 96.6128 110.129 96.3223 109.419C95.8241 109.892 95.1393 110.158 94.417 110.104L94.1631 110.071C93.1973 109.9 92.2228 109.753 91.2402 109.632L90.2549 109.52C89.433 109.433 88.7492 108.955 88.3613 108.293C87.885 108.895 87.1414 109.273 86.3154 109.244C85.6596 109.221 85.0005 109.21 84.3389 109.21C83.6687 109.21 83.0012 109.222 82.3369 109.245C81.4971 109.275 80.7419 108.884 80.2666 108.265C79.8833 108.945 79.1902 109.437 78.3545 109.526C77.0215 109.668 75.7023 109.858 74.3994 110.092C73.5734 110.24 72.7713 109.962 72.2129 109.418C71.9307 110.145 71.3145 110.731 70.501 110.938C69.2054 111.269 67.9275 111.645 66.6699 112.064C65.8731 112.33 65.0383 112.17 64.4072 111.711C64.2328 112.472 63.7074 113.14 62.9316 113.463C61.6991 113.975 60.4881 114.531 59.3018 115.128C58.551 115.505 57.7022 115.466 57.0117 115.102C56.9483 115.88 56.5239 116.618 55.8018 117.049C54.6564 117.732 53.537 118.454 52.4463 119.215M52.4463 119.215L51.0176 117.164H51.0166L52.4463 119.215ZM52.4463 119.215C51.7568 119.696 50.9104 119.778 50.1748 119.516C50.2228 120.295 49.9076 121.086 49.2539 121.615C48.2181 122.453 47.2123 123.328 46.2393 124.236C45.6249 124.81 44.7986 125.012 44.0332 124.856C44.1909 125.622 43.9901 126.449 43.418 127.064L42.7451 127.802C42.0785 128.545 41.4313 129.307 40.8047 130.086C40.2779 130.74 39.4893 131.057 38.71 131.012C38.9743 131.747 38.892 132.594 38.4131 133.284C37.6551 134.377 36.9352 135.498 36.2549 136.646C35.8262 137.368 35.0897 137.794 34.3115 137.859C34.6776 138.549 34.7177 139.399 34.3418 140.15C33.7477 141.338 33.1949 142.55 32.6846 143.784L32.5742 144.015C32.2249 144.664 31.6178 145.104 30.9355 145.262C31.3961 145.892 31.5566 146.728 31.292 147.525C30.8744 148.784 30.4999 150.062 30.1709 151.358L30.0957 151.604C29.843 152.296 29.3051 152.817 28.6533 153.071C29.1986 153.629 29.4759 154.433 29.3281 155.26C29.0951 156.563 28.907 157.882 28.7656 159.216C28.677 160.051 28.1855 160.744 27.5059 161.128C28.1255 161.603 28.5148 162.359 28.4854 163.199C28.4621 163.864 28.4502 164.531 28.4502 165.201L28.4648 166.481C28.4753 166.953 28.3522 167.395 28.1338 167.776C28.3857 168.137 28.5473 168.567 28.5791 169.037L28.6797 170.312L28.835 172.033L27.2812 172.787C26.6675 173.085 26.0613 173.397 25.4639 173.722C24.6912 174.142 23.7956 174.11 23.0762 173.72C23.0884 174.538 22.6996 175.346 21.9688 175.836C20.8348 176.596 19.7383 177.407 18.6826 178.265M18.6826 178.265L17.1084 176.325H17.1074L18.6826 178.265ZM18.6826 178.265C17.9997 178.82 17.1131 178.953 16.334 178.7C16.4964 179.503 16.2628 180.369 15.6338 180.984C14.66 181.937 13.731 182.935 12.8496 183.974C12.2805 184.644 11.4339 184.938 10.6221 184.833C10.9293 185.592 10.8582 186.486 10.3535 187.207C9.57371 188.321 8.84454 189.471 8.16992 190.656C7.73512 191.42 6.95903 191.866 6.14258 191.914C6.58455 192.602 6.68058 193.493 6.31934 194.294C5.76214 195.53 5.26189 196.796 4.82031 198.089C4.53649 198.92 3.8576 199.502 3.06543 199.703C3.6283 200.296 3.88961 201.152 3.68555 202.007C3.37169 203.321 3.11801 204.658 2.92676 206.016C2.80414 206.886 2.24622 207.587 1.50488 207.933C2.16961 208.41 2.58759 209.202 2.54688 210.08C2.5155 210.757 2.50001 211.438 2.5 212.123C2.5 212.767 2.51425 213.408 2.54199 214.045M2.54199 214.045L0.0449219 214.152L0.0458984 214.153L2.54199 214.045ZM2.54199 214.045C2.57661 214.841 2.23374 215.564 1.67383 216.047C2.24051 216.384 2.67071 216.94 2.83105 217.616L2.87695 217.868C3.04581 219.145 3.27049 220.404 3.54785 221.643C3.72167 222.419 3.51213 223.191 3.04688 223.765C3.66303 223.996 4.18294 224.467 4.45996 225.104L4.55078 225.343C4.94146 226.566 5.38522 227.765 5.87891 228.939C6.18754 229.673 6.11784 230.471 5.76074 231.118C6.48725 231.252 7.14825 231.703 7.52051 232.406C7.96996 233.256 8.44707 234.089 8.9502 234.905L9.46191 235.716C9.89478 236.385 9.966 237.182 9.72754 237.882C10.4667 237.886 11.1969 238.215 11.6865 238.843M11.6865 238.843L9.71777 240.377V240.378L11.6865 238.843ZM11.6865 238.843C12.4735 239.853 13.3043 240.828 14.1758 241.766C14.7185 242.349 14.9274 243.124 14.8135 243.854C15.5425 243.731 16.3191 243.927 16.9102 244.462C17.8589 245.32 18.8455 246.138 19.8672 246.912M19.8672 246.912L18.3584 248.901H18.3594L19.8672 246.912ZM19.8672 246.912C20.5021 247.393 20.8404 248.119 20.8545 248.858C21.476 248.638 22.1785 248.662 22.8018 248.972L23.0244 249.097C23.8349 249.607 24.6637 250.092 25.5088 250.55L26.3594 251C27.0679 251.364 27.5274 252.02 27.6689 252.746C28.2427 252.421 28.9385 252.325 29.6055 252.521L29.8477 252.606C30.7323 252.968 31.6315 253.302 32.5439 253.607L33.4609 253.903C34.2216 254.14 34.7877 254.706 35.0527 255.396C35.6235 254.927 36.3947 254.712 37.1729 254.882C38.1044 255.085 39.0471 255.259 40 255.402L40.9561 255.536C41.7474 255.638 42.4035 256.1 42.7832 256.735C43.2651 256.173 43.9891 255.829 44.7861 255.862C45.424 255.889 46.066 255.903 46.7109 255.903H48.6797C49.4801 255.903 50.1918 256.28 50.6494 256.865C51.107 256.28 51.8186 255.903 52.6191 255.903H56.5576C57.3581 255.903 58.0698 256.28 58.5273 256.865C58.9849 256.28 59.6966 255.903 60.4971 255.903H64.4355C65.236 255.903 65.9477 256.28 66.4053 256.865C66.8628 256.28 67.5745 255.903 68.375 255.903H72.3135C73.1143 255.903 73.8257 256.281 74.2832 256.866C74.7408 256.281 75.4522 255.903 76.2529 255.903H80.1914C80.9922 255.903 81.7036 256.281 82.1611 256.866C82.6186 256.281 83.3294 255.903 84.1299 255.903H88.0693C88.8701 255.903 89.5815 256.281 90.0391 256.866C90.4966 256.281 91.2073 255.903 92.0078 255.903H95.9473C96.748 255.903 97.4595 256.281 97.917 256.866C98.3745 256.281 99.0852 255.903 99.8857 255.903H103.825C104.626 255.903 105.337 256.281 105.795 256.866C106.252 256.281 106.963 255.903 107.764 255.903H111.702C112.503 255.903 113.214 256.28 113.672 256.865C114.129 256.28 114.841 255.903 115.642 255.903H119.58C120.381 255.903 121.092 256.28 121.55 256.865C122.007 256.28 122.719 255.903 123.52 255.903H127.458C128.259 255.903 128.97 256.28 129.428 256.865C129.885 256.28 130.597 255.903 131.397 255.903H135.336C136.137 255.903 136.848 256.281 137.306 256.866C137.763 256.281 138.475 255.903 139.275 255.903H143.214C144.015 255.903 144.726 256.281 145.184 256.866C145.641 256.281 146.352 255.903 147.152 255.903H151.092C151.893 255.903 152.604 256.281 153.062 256.866C153.519 256.281 154.23 255.903 155.03 255.903H158.97C159.77 255.903 160.482 256.281 160.939 256.866C161.397 256.281 162.108 255.903 162.908 255.903H166.848C167.648 255.903 168.36 256.281 168.817 256.866C169.275 256.281 169.986 255.903 170.786 255.903H174.725C175.525 255.903 176.237 256.28 176.694 256.865C177.152 256.28 177.864 255.903 178.664 255.903H182.603C183.403 255.903 184.115 256.28 184.572 256.865C185.03 256.28 185.742 255.903 186.542 255.903H190.48C191.281 255.903 191.993 256.28 192.45 256.865C192.908 256.28 193.619 255.903 194.42 255.903H198.358C199.159 255.903 199.871 256.281 200.328 256.866C200.786 256.281 201.497 255.903 202.298 255.903H206.236C207.037 255.903 207.749 256.281 208.206 256.866C208.664 256.281 209.374 255.903 210.175 255.903H214.114C214.915 255.903 215.626 256.281 216.084 256.866C216.541 256.281 217.252 255.903 218.053 255.903H221.992C222.793 255.903 223.504 256.281 223.962 256.866C224.419 256.281 225.13 255.903 225.931 255.903H229.87C230.671 255.903 231.382 256.281 231.84 256.866C232.297 256.281 233.008 255.903 233.809 255.903H237.747C238.548 255.903 239.259 256.28 239.717 256.865C240.174 256.28 240.886 255.903 241.687 255.903H245.625C246.425 255.903 247.137 256.28 247.595 256.865C248.052 256.28 248.764 255.903 249.564 255.903H253.503C254.303 255.903 255.015 256.28 255.473 256.865C255.93 256.28 256.642 255.903 257.442 255.903H261.381C262.182 255.903 262.893 256.281 263.351 256.866C263.808 256.281 264.519 255.903 265.319 255.903H267.289C267.934 255.903 268.576 255.889 269.214 255.862C270.011 255.829 270.736 256.173 271.218 256.735C271.598 256.1 272.253 255.638 273.044 255.536L274 255.402C274.953 255.259 275.896 255.085 276.827 254.882L277.08 254.84C277.771 254.761 278.439 254.978 278.948 255.396C279.213 254.707 279.779 254.14 280.539 253.903C281.768 253.522 282.974 253.089 284.153 252.606L284.395 252.521C285.062 252.325 285.758 252.421 286.332 252.746C286.474 252.02 286.932 251.364 287.641 251L288.491 250.55C289.336 250.092 290.165 249.607 290.976 249.097L291.198 248.972C291.822 248.662 292.525 248.637 293.146 248.858C293.161 248.119 293.498 247.393 294.133 246.912M294.133 246.912L295.642 248.901H295.643L294.133 246.912ZM294.133 246.912C295.155 246.138 296.141 245.32 297.09 244.462L297.288 244.301C297.849 243.888 298.537 243.744 299.188 243.854C299.074 243.124 299.281 242.349 299.824 241.766L300.471 241.056C301.109 240.339 301.723 239.6 302.313 238.843M302.313 238.843L304.283 240.378L304.284 240.377L302.313 238.843ZM302.313 238.843C302.803 238.214 303.534 237.886 304.273 237.882C304.035 237.182 304.105 236.385 304.538 235.716L305.05 234.905C305.553 234.089 306.03 233.256 306.479 232.406L306.61 232.187C306.996 231.608 307.592 231.237 308.24 231.118C307.883 230.471 307.812 229.674 308.121 228.939L308.482 228.055C308.834 227.165 309.156 226.26 309.449 225.343L309.54 225.104C309.817 224.466 310.338 223.996 310.954 223.765C310.489 223.191 310.278 222.419 310.452 221.643L310.65 220.71C310.838 219.773 310.996 218.826 311.123 217.868L311.17 217.616C311.33 216.939 311.76 216.384 312.327 216.047C311.767 215.564 311.423 214.841 311.458 214.045M311.458 214.045L313.955 214.153L313.956 214.152L311.458 214.045ZM311.458 214.045C311.486 213.408 311.5 212.767 311.5 212.123C311.5 211.504 311.487 210.888 311.461 210.275M311.461 210.275L313.959 210.171V210.17L311.461 210.275ZM311.461 210.275C311.429 209.523 311.737 208.835 312.244 208.355C311.663 207.967 311.246 207.341 311.151 206.594C310.995 205.364 310.786 204.15 310.529 202.955C310.371 202.219 310.556 201.49 310.975 200.932C310.337 200.648 309.82 200.102 309.6 199.383C309.328 198.497 309.028 197.622 308.702 196.761L308.367 195.904C308.086 195.206 308.145 194.456 308.462 193.834C307.863 193.682 307.322 193.313 306.97 192.764L306.843 192.542C306.425 191.716 305.981 190.905 305.513 190.109L305.037 189.32C304.641 188.679 304.573 187.93 304.78 187.264C304.084 187.209 303.413 186.867 302.965 186.262C302.415 185.519 301.842 184.793 301.246 184.087L300.643 183.387C300.145 182.821 299.951 182.093 300.045 181.4C299.429 181.456 298.795 181.286 298.281 180.883L298.088 180.715C297.2 179.861 296.277 179.044 295.319 178.266M295.319 178.266L296.896 176.326H296.896L295.319 178.266ZM295.319 178.266C294.735 177.79 294.423 177.106 294.4 176.407C293.802 176.564 293.148 176.502 292.574 176.189L292.355 176.056C291.594 175.536 290.815 175.038 290.02 174.565L289.219 174.101C288.563 173.729 288.143 173.105 288.004 172.42C287.44 172.674 286.786 172.721 286.168 172.509L285.93 172.414C285.094 172.028 284.243 171.667 283.38 171.333L282.512 171.008C281.804 170.751 281.285 170.206 281.034 169.554C280.454 169.943 279.716 170.09 278.988 169.893M278.988 169.893L279.643 167.479H279.642L278.988 169.893ZM278.988 169.893C278.395 169.732 277.797 169.583 277.194 169.446L274.871 168.92L275.284 166.575L275.428 165.734C275.474 165.454 275.519 165.173 275.562 164.892L275.613 164.641C275.756 164.089 276.079 163.623 276.506 163.293C276.13 162.801 275.934 162.172 276.006 161.508L276.094 160.661C276.177 159.814 276.245 158.962 276.301 158.107L276.331 157.853C276.425 157.291 276.706 156.798 277.103 156.433C276.685 155.975 276.434 155.364 276.448 154.696L276.462 153.844L276.467 152.989C276.467 152.34 276.459 151.692 276.443 151.047C276.424 150.252 276.779 149.536 277.346 149.064C276.802 148.695 276.406 148.118 276.285 147.436L276.253 147.181C276.181 146.211 276.092 145.247 275.985 144.288L275.873 143.33C275.775 142.541 276.058 141.794 276.575 141.269C275.998 140.955 275.547 140.42 275.359 139.753L275.302 139.503C275.079 138.228 274.825 136.963 274.541 135.71C274.365 134.935 274.572 134.164 275.034 133.59C274.354 133.305 273.806 132.725 273.592 131.96C273.243 130.715 272.863 129.481 272.455 128.262C272.203 127.508 272.331 126.72 272.733 126.103C272.029 125.887 271.425 125.365 271.136 124.625C270.782 123.722 270.412 122.828 270.026 121.941L269.636 121.059C269.31 120.334 269.358 119.537 269.697 118.882C268.974 118.737 268.322 118.278 267.96 117.57C267.372 116.42 266.755 115.287 266.112 114.17M266.112 114.17L268.279 112.923H268.278L266.112 114.17ZM266.112 114.17C265.716 113.481 265.686 112.682 265.959 111.997C265.305 111.933 264.68 111.615 264.248 111.072L264.1 110.864C263.401 109.778 262.675 108.71 261.925 107.661C261.462 107.015 261.355 106.223 261.559 105.515C260.901 105.515 260.248 105.259 259.765 104.762L259.596 104.569C258.794 103.558 257.968 102.566 257.118 101.595C256.595 100.997 256.408 100.22 256.542 99.4941C255.808 99.5664 255.049 99.3168 254.497 98.7451C253.601 97.8169 252.681 96.9103 251.74 96.0264M251.74 96.0264L253.452 94.2041H253.451L251.74 96.0264Z" stroke="black" stroke-opacity="0.23" stroke-width="5" stroke-linecap="round" stroke-dasharray="4 4"/>
<defs>
<filter id="filter0_i_38_162" x="87" y="0" width="208" height="213" filterUnits="userSpaceOnUse" color-interpolation-filters="sRGB">
<feFlood flood-opacity="0" result="BackgroundImageFix"/>
<feBlend mode="normal" in="SourceGraphic" in2="BackgroundImageFix" result="shape"/>
<feColorMatrix in="SourceAlpha" type="matrix" values="0 0 0 0 0 0 0 0 0 0 0 0 0 0 0 0 0 0 127 0" result="hardAlpha"/>
<feOffset dy="5"/>
<feGaussianBlur stdDeviation="9"/>
<feComposite in2="hardAlpha" operator="arithmetic" k2="-1" k3="1"/>
<feColorMatrix type="matrix" values="0 0 0 0 1 0 0 0 0 1 0 0 0 0 1 0 0 0 0.81 0"/>
<feBlend mode="normal" in2="shape" result="effect1_innerShadow_38_162"/>
</filter>
<filter id="filter1_i_38_162" x="0" y="72" width="314" height="196.403" filterUnits="userSpaceOnUse" color-interpolation-filters="sRGB">
<feFlood flood-opacity="0" result="BackgroundImageFix"/>
<feBlend mode="normal" in="SourceGraphic" in2="BackgroundImageFix" result="shape"/>
<feColorMatrix in="SourceAlpha" type="matrix" values="0 0 0 0 0 0 0 0 0 0 0 0 0 0 0 0 0 0 127 0" result="hardAlpha"/>
<feOffset dy="11"/>
<feGaussianBlur stdDeviation="5"/>
<feComposite in2="hardAlpha" operator="arithmetic" k2="-1" k3="1"/>
<feColorMatrix type="matrix" values="0 0 0 0 1 0 0 0 0 1 0 0 0 0 1 0 0 0 1 0"/>
<feBlend mode="normal" in2="shape" result="effect1_innerShadow_38_162"/>
</filter>
<linearGradient id="paint0_linear_38_162" x1="175.203" y1="160.608" x2="260.772" y2="10.5316" gradientUnits="userSpaceOnUse">
<stop stop-color="#FF9900"/>
<stop offset="1" stop-color="#FFEE94"/>
</linearGradient>
<linearGradient id="paint1_linear_38_162" x1="19.9717" y1="241.76" x2="336.746" y2="4.87276" gradientUnits="userSpaceOnUse">
<stop stop-color="white"/>
<stop offset="1" stop-color="white" stop-opacity="0.58"/>
</linearGradient>
</defs>
</svg>
