<svg width="339" height="349" viewBox="0 0 339 349" fill="none" xmlns="http://www.w3.org/2000/svg">
<g filter="url(#filter0_i_740_1872)">
<path d="M296.747 95.0084C297.549 90.4546 297.967 85.7701 297.967 80.9888C297.967 36.2599 261.369 0 216.223 0C182.661 0 153.823 20.0397 141.234 48.7008C131.035 39.9768 117.801 34.7095 103.339 34.7095C71.0918 34.7095 44.9504 60.8972 44.9504 93.2014C44.9504 95.0003 45.0315 96.7801 45.1902 98.5376C29.6799 106.065 19 121.858 19 140.124C19 165.683 39.9131 186.403 65.7108 186.403H286.289C312.087 186.403 333 165.683 333 140.124C333 118.126 317.51 99.7132 296.747 95.0084Z" fill="url(#paint0_linear_740_1872)"/>
</g>
<path d="M191.771 6.30762C192.678 6.01642 193.592 5.74078 194.514 5.48145L195.437 5.22754C196.189 5.02553 196.769 4.50109 197.067 3.84277C197.571 4.24084 198.223 4.44452 198.896 4.36816L199.149 4.32617C200.389 4.05659 201.64 3.81585 202.9 3.60449C203.669 3.4756 204.298 3.00824 204.657 2.38086C205.178 2.8817 205.911 3.15434 206.685 3.0625C207.944 2.91289 209.213 2.79255 210.49 2.70215C211.268 2.64714 211.937 2.2421 212.354 1.65234C212.826 2.19997 213.529 2.54062 214.308 2.52246C214.944 2.50752 215.583 2.5 216.224 2.5C216.873 2.5 217.521 2.50805 218.167 2.52344C218.962 2.54228 219.678 2.18612 220.149 1.61816C220.565 2.22832 221.243 2.65104 222.036 2.70801L223.005 2.7832C223.972 2.86438 224.935 2.96286 225.892 3.07812C226.681 3.17322 227.428 2.88818 227.952 2.36816C228.307 3.01497 228.94 3.50053 229.724 3.63379C231.001 3.85093 232.269 4.09904 233.524 4.37598L233.776 4.41797C234.466 4.49824 235.133 4.2841 235.643 3.86816C235.932 4.54691 236.516 5.09272 237.283 5.30176L238.218 5.5625C239.15 5.8287 240.075 6.1113 240.993 6.41016L241.24 6.47656C241.918 6.62363 242.604 6.47645 243.151 6.1123C243.373 6.8157 243.901 7.41534 244.644 7.69824C245.853 8.15851 247.048 8.64759 248.228 9.16406L248.467 9.25488C249.127 9.46752 249.823 9.387 250.404 9.07812C250.557 9.8002 251.023 10.4486 251.735 10.8027C252.893 11.3785 254.035 11.9818 255.159 12.6113C255.853 12.9997 256.652 13.0196 257.334 12.7383C257.415 13.4718 257.816 14.1631 258.49 14.585L259.309 15.1035C260.123 15.6273 260.928 16.1655 261.722 16.7178L261.938 16.8535C262.545 17.1905 263.244 17.2471 263.874 17.0566C263.883 17.7945 264.216 18.5214 264.846 19.0068L265.609 19.6025C266.369 20.2029 267.117 20.8172 267.854 21.4443L268.057 21.6006C268.628 21.9949 269.318 22.1184 269.963 21.9902C269.9 22.7257 270.16 23.4818 270.74 24.0264M191.771 6.30762L191.008 3.92773V3.92871L191.771 6.30762ZM191.771 6.30762C191.029 6.54549 190.258 6.41778 189.651 6.02637C189.418 6.7105 188.892 7.28885 188.162 7.5625C186.967 8.01076 185.786 8.48715 184.619 8.99023C183.904 9.29857 183.125 9.24534 182.482 8.91406C182.317 9.61793 181.848 10.244 181.147 10.5869C180.002 11.1481 178.872 11.736 177.758 12.3496M177.758 12.3496L176.554 10.1621V10.1631L177.758 12.3496ZM177.758 12.3496C177.076 12.7254 176.295 12.7491 175.624 12.4814C175.526 13.1973 175.12 13.8651 174.457 14.2734C173.371 14.942 172.302 15.6362 171.252 16.3545C170.609 16.7943 169.833 16.8917 169.14 16.6895C169.112 17.4119 168.772 18.1165 168.15 18.5869C167.134 19.3563 166.137 20.1497 165.16 20.9658L164.956 21.1201C164.395 21.5 163.722 21.6215 163.091 21.502C163.132 22.2237 162.861 22.9575 162.287 23.4854L161.588 24.1367C160.893 24.7923 160.21 25.4607 159.539 26.1406M159.539 26.1406L157.762 24.3857V24.3867L159.539 26.1406ZM159.539 26.1406C158.992 26.6951 158.25 26.9389 157.53 26.873C157.641 27.5874 157.442 28.3433 156.922 28.9238M156.922 28.9238L155.062 27.2578V27.2588L156.922 28.9238ZM156.922 28.9238C156.072 29.8725 155.245 30.8422 154.442 31.8311C153.951 32.4354 153.237 32.7498 152.515 32.7539C152.693 33.4542 152.568 34.2266 152.106 34.8545C151.353 35.88 150.624 36.9242 149.92 37.9863C149.49 38.6353 148.809 39.0178 148.091 39.0918C148.336 39.7712 148.287 40.5512 147.889 41.2207C147.239 42.314 146.615 43.4245 146.018 44.5508C145.653 45.2383 145.013 45.6852 144.306 45.8291C144.616 46.4811 144.643 47.2619 144.312 47.9668C144.042 48.5428 143.779 49.1226 143.522 49.7061L142.168 52.79L139.608 50.6006C139.108 50.1729 138.601 49.7538 138.086 49.3438C137.44 48.829 137.119 48.0589 137.147 47.292C136.498 47.517 135.765 47.4758 135.13 47.1279L134.912 46.9941C133.829 46.2496 132.717 45.5421 131.581 44.874C130.869 44.4552 130.443 43.7379 130.364 42.9746C129.753 43.2888 129.023 43.3513 128.345 43.0967L128.109 42.9951C126.934 42.4117 125.734 41.8682 124.514 41.3672C123.75 41.0535 123.228 40.4041 123.041 39.6602C122.415 40.1041 121.596 40.2584 120.812 40M120.812 40L121.595 37.626H121.594L120.812 40ZM120.812 40C119.878 39.6925 118.934 39.4083 117.979 39.1494L117.022 38.8994C116.222 38.6976 115.613 38.1287 115.322 37.4189C114.824 37.8923 114.139 38.1575 113.417 38.1035L113.163 38.0713C112.197 37.8998 111.223 37.753 110.24 37.6318L109.255 37.5195C108.433 37.433 107.749 36.9553 107.361 36.293C106.885 36.8949 106.141 37.2728 105.315 37.2441C104.66 37.2213 104 37.21 103.339 37.21C102.669 37.21 102.001 37.2217 101.337 37.2451C100.497 37.2746 99.7419 36.8842 99.2666 36.2646C98.8833 36.945 98.1902 37.4373 97.3545 37.5264C96.0215 37.6685 94.7023 37.8576 93.3994 38.0918C92.5734 38.2402 91.7713 37.9623 91.2129 37.418C90.9307 38.1453 90.3145 38.7308 89.501 38.9385C88.2054 39.2691 86.9275 39.6449 85.6699 40.0645C84.8731 40.3303 84.0383 40.1702 83.4072 39.7109C83.2328 40.4719 82.7074 41.1402 81.9316 41.4629C80.6991 41.9754 79.4881 42.5313 78.3018 43.1279C77.551 43.5053 76.7022 43.466 76.0117 43.1016C75.9483 43.8803 75.5239 44.6183 74.8018 45.0488C73.6564 45.7317 72.537 46.4541 71.4463 47.2148M71.4463 47.2148L70.0176 45.1641H70.0166L71.4463 47.2148ZM71.4463 47.2148C70.7568 47.6956 69.9104 47.7782 69.1748 47.5156C69.2228 48.2955 68.9076 49.0864 68.2539 49.6152C67.2181 50.4532 66.2123 51.3276 65.2393 52.2363C64.6249 52.8099 63.7986 53.0121 63.0332 52.8564C63.1909 53.6215 62.9901 54.4485 62.418 55.0645L61.7451 55.8018C61.0785 56.5453 60.4313 57.3073 59.8047 58.0859C59.2779 58.7403 58.4893 59.0572 57.71 59.0117C57.9743 59.7466 57.892 60.5936 57.4131 61.2842C56.6551 62.3768 55.9352 63.4983 55.2549 64.6455C54.8262 65.3684 54.0897 65.7939 53.3115 65.8594C53.6776 66.5492 53.7177 67.3987 53.3418 68.1504C52.7477 69.338 52.1949 70.5503 51.6846 71.7842L51.5742 72.0146C51.2249 72.6645 50.6178 73.1037 49.9355 73.2617C50.3961 73.8921 50.5566 74.7279 50.292 75.5254C49.8744 76.7838 49.4999 78.062 49.1709 79.3584L49.0957 79.6035C48.843 80.2959 48.3051 80.8171 47.6533 81.0713C48.1986 81.6293 48.4759 82.4332 48.3281 83.2598C48.0951 84.5631 47.907 85.8825 47.7656 87.2158C47.677 88.0511 47.1855 88.7442 46.5059 89.1279C47.1255 89.6032 47.5148 90.3594 47.4854 91.1992C47.4621 91.8635 47.4502 92.5309 47.4502 93.2012L47.4648 94.4814C47.4753 94.9527 47.3522 95.3951 47.1338 95.7764C47.3857 96.1366 47.5473 96.5666 47.5791 97.0371L47.6797 98.3125L47.835 100.033L46.2812 100.787C45.6675 101.085 45.0613 101.397 44.4639 101.722C43.6912 102.142 42.7956 102.11 42.0762 101.72C42.0884 102.538 41.6996 103.346 40.9688 103.836C39.8348 104.596 38.7383 105.407 37.6826 106.265M37.6826 106.265L36.1084 104.325H36.1074L37.6826 106.265ZM37.6826 106.265C36.9997 106.82 36.1131 106.953 35.334 106.7C35.4964 107.503 35.2628 108.369 34.6338 108.984C33.66 109.937 32.731 110.935 31.8496 111.974C31.2805 112.644 30.4339 112.938 29.6221 112.833C29.9293 113.592 29.8582 114.486 29.3535 115.207C28.5737 116.321 27.8445 117.471 27.1699 118.656C26.7351 119.42 25.959 119.866 25.1426 119.914C25.5845 120.602 25.6806 121.493 25.3193 122.294C24.7621 123.53 24.2619 124.796 23.8203 126.089C23.5365 126.92 22.8576 127.502 22.0654 127.703C22.6283 128.296 22.8896 129.152 22.6855 130.007C22.3717 131.321 22.118 132.658 21.9268 134.016C21.8041 134.886 21.2462 135.587 20.5049 135.933C21.1696 136.41 21.5876 137.202 21.5469 138.08C21.5155 138.757 21.5 139.438 21.5 140.123C21.5 140.767 21.5142 141.408 21.542 142.045M21.542 142.045L19.0449 142.152L19.0459 142.153L21.542 142.045ZM21.542 142.045C21.5766 142.841 21.2337 143.564 20.6738 144.047C21.2405 144.384 21.6707 144.94 21.8311 145.616L21.877 145.868C22.0458 147.145 22.2705 148.404 22.5479 149.643C22.7217 150.419 22.5121 151.191 22.0469 151.765C22.663 151.996 23.1829 152.467 23.46 153.104L23.5508 153.343C23.9415 154.566 24.3852 155.765 24.8789 156.939C25.1875 157.673 25.1178 158.471 24.7607 159.118C25.4873 159.252 26.1483 159.703 26.5205 160.406C26.97 161.256 27.4471 162.089 27.9502 162.905L28.4619 163.716C28.8948 164.385 28.966 165.182 28.7275 165.882C29.4667 165.886 30.1969 166.215 30.6865 166.843M30.6865 166.843L28.7178 168.377V168.378L30.6865 166.843ZM30.6865 166.843C31.4735 167.853 32.3043 168.828 33.1758 169.766C33.7185 170.349 33.9274 171.124 33.8135 171.854C34.5425 171.731 35.3191 171.927 35.9102 172.462C36.8589 173.32 37.8455 174.138 38.8672 174.912M38.8672 174.912L37.3584 176.901H37.3594L38.8672 174.912ZM38.8672 174.912C39.5021 175.393 39.8404 176.119 39.8545 176.858C40.476 176.638 41.1785 176.662 41.8018 176.972L42.0244 177.097C42.8349 177.607 43.6637 178.092 44.5088 178.55L45.3594 179C46.0679 179.364 46.5274 180.02 46.6689 180.746C47.2427 180.421 47.9385 180.325 48.6055 180.521L48.8477 180.606C49.7323 180.968 50.6315 181.302 51.5439 181.607L52.4609 181.903C53.2216 182.14 53.7877 182.706 54.0527 183.396C54.6235 182.927 55.3947 182.712 56.1729 182.882C57.1044 183.085 58.0471 183.259 59 183.402L59.9561 183.536C60.7474 183.638 61.4035 184.1 61.7832 184.735C62.2651 184.173 62.9891 183.829 63.7861 183.862C64.424 183.889 65.066 183.903 65.7109 183.903H67.6797C68.4801 183.903 69.1918 184.28 69.6494 184.865C70.107 184.28 70.8186 183.903 71.6191 183.903H75.5576C76.3581 183.903 77.0698 184.28 77.5273 184.865C77.9849 184.28 78.6966 183.903 79.4971 183.903H83.4355C84.236 183.903 84.9477 184.28 85.4053 184.865C85.8628 184.28 86.5745 183.903 87.375 183.903H91.3135C92.1143 183.903 92.8257 184.281 93.2832 184.866C93.7408 184.281 94.4522 183.903 95.2529 183.903H99.1914C99.9922 183.903 100.704 184.281 101.161 184.866C101.619 184.281 102.329 183.903 103.13 183.903H107.069C107.87 183.903 108.582 184.281 109.039 184.866C109.497 184.281 110.207 183.903 111.008 183.903H114.947C115.748 183.903 116.46 184.281 116.917 184.866C117.375 184.281 118.085 183.903 118.886 183.903H122.825C123.626 183.903 124.337 184.281 124.795 184.866C125.252 184.281 125.963 183.903 126.764 183.903H130.702C131.503 183.903 132.214 184.28 132.672 184.865C133.129 184.28 133.841 183.903 134.642 183.903H138.58C139.381 183.903 140.092 184.28 140.55 184.865C141.007 184.28 141.719 183.903 142.52 183.903H146.458C147.259 183.903 147.97 184.28 148.428 184.865C148.885 184.28 149.597 183.903 150.397 183.903H154.336C155.137 183.903 155.848 184.281 156.306 184.866C156.763 184.281 157.475 183.903 158.275 183.903H162.214C163.015 183.903 163.726 184.281 164.184 184.866C164.641 184.281 165.352 183.903 166.152 183.903H170.092C170.893 183.903 171.604 184.281 172.062 184.866C172.519 184.281 173.23 183.903 174.03 183.903H177.97C178.77 183.903 179.482 184.281 179.939 184.866C180.397 184.281 181.108 183.903 181.908 183.903H185.848C186.648 183.903 187.36 184.281 187.817 184.866C188.275 184.281 188.986 183.903 189.786 183.903H193.725C194.525 183.903 195.237 184.28 195.694 184.865C196.152 184.28 196.864 183.903 197.664 183.903H201.603C202.403 183.903 203.115 184.28 203.572 184.865C204.03 184.28 204.742 183.903 205.542 183.903H209.48C210.281 183.903 210.993 184.28 211.45 184.865C211.908 184.28 212.619 183.903 213.42 183.903H217.358C218.159 183.903 218.871 184.281 219.328 184.866C219.786 184.281 220.497 183.903 221.298 183.903H225.236C226.037 183.903 226.749 184.281 227.206 184.866C227.664 184.281 228.374 183.903 229.175 183.903H233.114C233.915 183.903 234.626 184.281 235.084 184.866C235.541 184.281 236.252 183.903 237.053 183.903H240.992C241.793 183.903 242.504 184.281 242.962 184.866C243.419 184.281 244.13 183.903 244.931 183.903H248.87C249.671 183.903 250.382 184.281 250.84 184.866C251.297 184.281 252.008 183.903 252.809 183.903H256.747C257.548 183.903 258.259 184.28 258.717 184.865C259.174 184.28 259.886 183.903 260.687 183.903H264.625C265.425 183.903 266.137 184.28 266.595 184.865C267.052 184.28 267.764 183.903 268.564 183.903H272.503C273.303 183.903 274.015 184.28 274.473 184.865C274.93 184.28 275.642 183.903 276.442 183.903H280.381C281.182 183.903 281.893 184.281 282.351 184.866C282.808 184.281 283.519 183.903 284.319 183.903H286.289C286.934 183.903 287.576 183.889 288.214 183.862C289.011 183.829 289.736 184.173 290.218 184.735C290.598 184.1 291.253 183.638 292.044 183.536L293 183.402C293.953 183.259 294.896 183.085 295.827 182.882L296.08 182.84C296.771 182.761 297.439 182.978 297.948 183.396C298.213 182.707 298.779 182.14 299.539 181.903C300.768 181.522 301.974 181.089 303.153 180.606L303.395 180.521C304.062 180.325 304.758 180.421 305.332 180.746C305.474 180.02 305.932 179.364 306.641 179L307.491 178.55C308.336 178.092 309.165 177.607 309.976 177.097L310.198 176.972C310.822 176.662 311.525 176.637 312.146 176.858C312.161 176.119 312.498 175.393 313.133 174.912M313.133 174.912L314.642 176.901H314.643L313.133 174.912ZM313.133 174.912C314.155 174.138 315.141 173.32 316.09 172.462L316.288 172.301C316.849 171.888 317.537 171.744 318.188 171.854C318.074 171.124 318.281 170.349 318.824 169.766L319.471 169.056C320.109 168.339 320.723 167.6 321.313 166.843M321.313 166.843L323.283 168.378L323.284 168.377L321.313 166.843ZM321.313 166.843C321.803 166.214 322.534 165.886 323.273 165.882C323.035 165.182 323.105 164.385 323.538 163.716L324.05 162.905C324.553 162.089 325.03 161.256 325.479 160.406L325.61 160.187C325.996 159.608 326.592 159.237 327.24 159.118C326.883 158.471 326.812 157.674 327.121 156.939L327.482 156.055C327.834 155.165 328.156 154.26 328.449 153.343L328.54 153.104C328.817 152.466 329.338 151.996 329.954 151.765C329.489 151.191 329.278 150.419 329.452 149.643L329.65 148.71C329.838 147.773 329.996 146.826 330.123 145.868L330.17 145.616C330.33 144.939 330.76 144.384 331.327 144.047C330.767 143.564 330.423 142.841 330.458 142.045M330.458 142.045L332.955 142.153L332.956 142.152L330.458 142.045ZM330.458 142.045C330.486 141.408 330.5 140.767 330.5 140.123C330.5 139.504 330.487 138.888 330.461 138.275M330.461 138.275L332.959 138.171V138.17L330.461 138.275ZM330.461 138.275C330.429 137.523 330.737 136.835 331.244 136.355C330.663 135.967 330.246 135.341 330.151 134.594C329.995 133.364 329.786 132.15 329.529 130.955C329.371 130.219 329.556 129.49 329.975 128.932C329.337 128.648 328.82 128.102 328.6 127.383C328.328 126.497 328.028 125.622 327.702 124.761L327.367 123.904C327.086 123.206 327.145 122.456 327.462 121.834C326.863 121.682 326.322 121.313 325.97 120.764L325.843 120.542C325.425 119.716 324.981 118.905 324.513 118.109L324.037 117.32C323.641 116.679 323.573 115.93 323.78 115.264C323.084 115.209 322.413 114.867 321.965 114.262C321.415 113.519 320.842 112.793 320.246 112.087L319.643 111.387C319.145 110.821 318.951 110.093 319.045 109.4C318.429 109.456 317.795 109.286 317.281 108.883L317.088 108.715C316.2 107.861 315.277 107.044 314.319 106.266M314.319 106.266L315.896 104.326H315.896L314.319 106.266ZM314.319 106.266C313.735 105.79 313.423 105.106 313.4 104.407C312.802 104.564 312.148 104.502 311.574 104.189L311.355 104.056C310.594 103.536 309.815 103.038 309.02 102.565L308.219 102.101C307.563 101.729 307.143 101.105 307.004 100.42C306.44 100.674 305.786 100.721 305.168 100.509L304.93 100.414C304.094 100.028 303.243 99.6673 302.38 99.333L301.512 99.0078C300.804 98.7506 300.285 98.2057 300.034 97.5537C299.454 97.9429 298.716 98.0897 297.988 97.8926M297.988 97.8926L298.643 95.4795H298.642L297.988 97.8926ZM297.988 97.8926C297.395 97.7319 296.797 97.5829 296.194 97.4463L293.871 96.9199L294.284 94.5752L294.428 93.7344C294.474 93.4539 294.519 93.1731 294.562 92.8916L294.613 92.6406C294.756 92.089 295.079 91.6226 295.506 91.293C295.13 90.8011 294.934 90.1715 295.006 89.5078L295.094 88.6611C295.177 87.8139 295.245 86.9625 295.301 86.1074L295.331 85.8525C295.425 85.2906 295.706 84.7983 296.103 84.4326C295.685 83.975 295.434 83.3643 295.448 82.6963L295.462 81.8438L295.467 80.9893C295.467 80.3401 295.459 79.6922 295.443 79.0469C295.424 78.2521 295.779 77.5363 296.346 77.0645C295.802 76.6954 295.406 76.1183 295.285 75.4355L295.253 75.1807C295.181 74.2114 295.092 73.2471 294.985 72.2881L294.873 71.3301C294.775 70.5413 295.058 69.794 295.575 69.2686C294.998 68.9551 294.547 68.4202 294.359 67.7529L294.302 67.5029C294.079 66.2279 293.825 64.963 293.541 63.71C293.365 62.9352 293.572 62.1642 294.034 61.5898C293.354 61.3047 292.806 60.725 292.592 59.96C292.243 58.7145 291.863 57.4814 291.455 56.2617C291.203 55.5083 291.331 54.7202 291.733 54.1025C291.029 53.8867 290.425 53.3647 290.136 52.625C289.782 51.7223 289.412 50.8277 289.026 49.9414L288.636 49.0586C288.31 48.334 288.358 47.5367 288.697 46.8818C287.974 46.7372 287.322 46.2777 286.96 45.5703C286.372 44.4202 285.755 43.2867 285.112 42.1699M285.112 42.1699L287.279 40.9229H287.278L285.112 42.1699ZM285.112 42.1699C284.716 41.4809 284.686 40.6825 284.959 39.9971C284.305 39.9327 283.68 39.6148 283.248 39.0723L283.1 38.8643C282.401 37.7783 281.675 36.71 280.925 35.6611C280.462 35.0146 280.355 34.2234 280.559 33.5146C279.901 33.5151 279.248 33.2593 278.765 32.7617L278.596 32.5693C277.794 31.5577 276.968 30.5656 276.118 29.5947C275.595 28.9966 275.408 28.2196 275.542 27.4941C274.808 27.5664 274.049 27.3168 273.497 26.7451C272.601 25.8169 271.681 24.9103 270.74 24.0264M270.74 24.0264L272.452 22.2041H272.451L270.74 24.0264Z" stroke="black" stroke-opacity="0.23" stroke-width="5" stroke-linecap="round" stroke-dasharray="4 4"/>
<g filter="url(#filter1_di_740_1872)">
<path d="M103.5 136C85.0117 160.333 59.1281 209 103.5 209C147.872 209 121.988 160.333 103.5 136Z" fill="#00BCFF"/>
</g>
<g filter="url(#filter2_di_740_1872)">
<path d="M247.5 136C229.012 160.333 203.128 209 247.5 209C291.872 209 265.988 160.333 247.5 136Z" fill="#00BCFF"/>
</g>
<g filter="url(#filter3_di_740_1872)">
<path d="M178.5 237C160.012 261.333 134.128 310 178.5 310C222.872 310 196.988 261.333 178.5 237Z" fill="#00BCFF"/>
</g>
<g filter="url(#filter4_di_740_1872)">
<path d="M35.5 186C23.0487 202.333 5.61691 235 35.5 235C65.3831 235 47.9513 202.333 35.5 186Z" fill="#00BCFF"/>
</g>
<g filter="url(#filter5_di_740_1872)">
<path d="M159.5 192C147.049 208.333 129.617 241 159.5 241C189.383 241 171.951 208.333 159.5 192Z" fill="#00BCFF"/>
</g>
<g filter="url(#filter6_di_740_1872)">
<path d="M303.5 202C291.049 218.333 273.617 251 303.5 251C333.383 251 315.951 218.333 303.5 202Z" fill="#00BCFF"/>
</g>
<g filter="url(#filter7_di_740_1872)">
<path d="M231.5 225C219.049 241.333 201.617 274 231.5 274C261.383 274 243.951 241.333 231.5 225Z" fill="#00BCFF"/>
</g>
<g filter="url(#filter8_di_740_1872)">
<path d="M87.5 227C75.0487 243.333 57.6169 276 87.5 276C117.383 276 99.9513 243.333 87.5 227Z" fill="#00BCFF"/>
</g>
<defs>
<filter id="filter0_i_740_1872" x="19" y="0" width="314" height="196.403" filterUnits="userSpaceOnUse" color-interpolation-filters="sRGB">
<feFlood flood-opacity="0" result="BackgroundImageFix"/>
<feBlend mode="normal" in="SourceGraphic" in2="BackgroundImageFix" result="shape"/>
<feColorMatrix in="SourceAlpha" type="matrix" values="0 0 0 0 0 0 0 0 0 0 0 0 0 0 0 0 0 0 127 0" result="hardAlpha"/>
<feOffset dy="11"/>
<feGaussianBlur stdDeviation="5"/>
<feComposite in2="hardAlpha" operator="arithmetic" k2="-1" k3="1"/>
<feColorMatrix type="matrix" values="0 0 0 0 1 0 0 0 0 1 0 0 0 0 1 0 0 0 1 0"/>
<feBlend mode="normal" in2="shape" result="effect1_innerShadow_740_1872"/>
</filter>
<filter id="filter1_di_740_1872" x="60" y="136" width="87" height="112" filterUnits="userSpaceOnUse" color-interpolation-filters="sRGB">
<feFlood flood-opacity="0" result="BackgroundImageFix"/>
<feColorMatrix in="SourceAlpha" type="matrix" values="0 0 0 0 0 0 0 0 0 0 0 0 0 0 0 0 0 0 127 0" result="hardAlpha"/>
<feOffset dy="20"/>
<feGaussianBlur stdDeviation="9.5"/>
<feComposite in2="hardAlpha" operator="out"/>
<feColorMatrix type="matrix" values="0 0 0 0 0.283785 0 0 0 0 0.178889 0 0 0 0 0.933333 0 0 0 1 0"/>
<feBlend mode="normal" in2="BackgroundImageFix" result="effect1_dropShadow_740_1872"/>
<feBlend mode="normal" in="SourceGraphic" in2="effect1_dropShadow_740_1872" result="shape"/>
<feColorMatrix in="SourceAlpha" type="matrix" values="0 0 0 0 0 0 0 0 0 0 0 0 0 0 0 0 0 0 127 0" result="hardAlpha"/>
<feOffset dy="9"/>
<feGaussianBlur stdDeviation="1.5"/>
<feComposite in2="hardAlpha" operator="arithmetic" k2="-1" k3="1"/>
<feColorMatrix type="matrix" values="0 0 0 0 1 0 0 0 0 1 0 0 0 0 1 0 0 0 0.21 0"/>
<feBlend mode="normal" in2="shape" result="effect2_innerShadow_740_1872"/>
</filter>
<filter id="filter2_di_740_1872" x="204" y="136" width="87" height="112" filterUnits="userSpaceOnUse" color-interpolation-filters="sRGB">
<feFlood flood-opacity="0" result="BackgroundImageFix"/>
<feColorMatrix in="SourceAlpha" type="matrix" values="0 0 0 0 0 0 0 0 0 0 0 0 0 0 0 0 0 0 127 0" result="hardAlpha"/>
<feOffset dy="20"/>
<feGaussianBlur stdDeviation="9.5"/>
<feComposite in2="hardAlpha" operator="out"/>
<feColorMatrix type="matrix" values="0 0 0 0 0.283785 0 0 0 0 0.178889 0 0 0 0 0.933333 0 0 0 1 0"/>
<feBlend mode="normal" in2="BackgroundImageFix" result="effect1_dropShadow_740_1872"/>
<feBlend mode="normal" in="SourceGraphic" in2="effect1_dropShadow_740_1872" result="shape"/>
<feColorMatrix in="SourceAlpha" type="matrix" values="0 0 0 0 0 0 0 0 0 0 0 0 0 0 0 0 0 0 127 0" result="hardAlpha"/>
<feOffset dy="9"/>
<feGaussianBlur stdDeviation="1.5"/>
<feComposite in2="hardAlpha" operator="arithmetic" k2="-1" k3="1"/>
<feColorMatrix type="matrix" values="0 0 0 0 1 0 0 0 0 1 0 0 0 0 1 0 0 0 0.21 0"/>
<feBlend mode="normal" in2="shape" result="effect2_innerShadow_740_1872"/>
</filter>
<filter id="filter3_di_740_1872" x="135" y="237" width="87" height="112" filterUnits="userSpaceOnUse" color-interpolation-filters="sRGB">
<feFlood flood-opacity="0" result="BackgroundImageFix"/>
<feColorMatrix in="SourceAlpha" type="matrix" values="0 0 0 0 0 0 0 0 0 0 0 0 0 0 0 0 0 0 127 0" result="hardAlpha"/>
<feOffset dy="20"/>
<feGaussianBlur stdDeviation="9.5"/>
<feComposite in2="hardAlpha" operator="out"/>
<feColorMatrix type="matrix" values="0 0 0 0 0.283785 0 0 0 0 0.178889 0 0 0 0 0.933333 0 0 0 1 0"/>
<feBlend mode="normal" in2="BackgroundImageFix" result="effect1_dropShadow_740_1872"/>
<feBlend mode="normal" in="SourceGraphic" in2="effect1_dropShadow_740_1872" result="shape"/>
<feColorMatrix in="SourceAlpha" type="matrix" values="0 0 0 0 0 0 0 0 0 0 0 0 0 0 0 0 0 0 127 0" result="hardAlpha"/>
<feOffset dy="9"/>
<feGaussianBlur stdDeviation="1.5"/>
<feComposite in2="hardAlpha" operator="arithmetic" k2="-1" k3="1"/>
<feColorMatrix type="matrix" values="0 0 0 0 1 0 0 0 0 1 0 0 0 0 1 0 0 0 0.21 0"/>
<feBlend mode="normal" in2="shape" result="effect2_innerShadow_740_1872"/>
</filter>
<filter id="filter4_di_740_1872" x="0" y="186" width="71" height="88" filterUnits="userSpaceOnUse" color-interpolation-filters="sRGB">
<feFlood flood-opacity="0" result="BackgroundImageFix"/>
<feColorMatrix in="SourceAlpha" type="matrix" values="0 0 0 0 0 0 0 0 0 0 0 0 0 0 0 0 0 0 127 0" result="hardAlpha"/>
<feOffset dy="20"/>
<feGaussianBlur stdDeviation="9.5"/>
<feComposite in2="hardAlpha" operator="out"/>
<feColorMatrix type="matrix" values="0 0 0 0 0.283785 0 0 0 0 0.178889 0 0 0 0 0.933333 0 0 0 1 0"/>
<feBlend mode="normal" in2="BackgroundImageFix" result="effect1_dropShadow_740_1872"/>
<feBlend mode="normal" in="SourceGraphic" in2="effect1_dropShadow_740_1872" result="shape"/>
<feColorMatrix in="SourceAlpha" type="matrix" values="0 0 0 0 0 0 0 0 0 0 0 0 0 0 0 0 0 0 127 0" result="hardAlpha"/>
<feOffset dy="9"/>
<feGaussianBlur stdDeviation="1.5"/>
<feComposite in2="hardAlpha" operator="arithmetic" k2="-1" k3="1"/>
<feColorMatrix type="matrix" values="0 0 0 0 1 0 0 0 0 1 0 0 0 0 1 0 0 0 0.21 0"/>
<feBlend mode="normal" in2="shape" result="effect2_innerShadow_740_1872"/>
</filter>
<filter id="filter5_di_740_1872" x="124" y="192" width="71" height="88" filterUnits="userSpaceOnUse" color-interpolation-filters="sRGB">
<feFlood flood-opacity="0" result="BackgroundImageFix"/>
<feColorMatrix in="SourceAlpha" type="matrix" values="0 0 0 0 0 0 0 0 0 0 0 0 0 0 0 0 0 0 127 0" result="hardAlpha"/>
<feOffset dy="20"/>
<feGaussianBlur stdDeviation="9.5"/>
<feComposite in2="hardAlpha" operator="out"/>
<feColorMatrix type="matrix" values="0 0 0 0 0.283785 0 0 0 0 0.178889 0 0 0 0 0.933333 0 0 0 1 0"/>
<feBlend mode="normal" in2="BackgroundImageFix" result="effect1_dropShadow_740_1872"/>
<feBlend mode="normal" in="SourceGraphic" in2="effect1_dropShadow_740_1872" result="shape"/>
<feColorMatrix in="SourceAlpha" type="matrix" values="0 0 0 0 0 0 0 0 0 0 0 0 0 0 0 0 0 0 127 0" result="hardAlpha"/>
<feOffset dy="9"/>
<feGaussianBlur stdDeviation="1.5"/>
<feComposite in2="hardAlpha" operator="arithmetic" k2="-1" k3="1"/>
<feColorMatrix type="matrix" values="0 0 0 0 1 0 0 0 0 1 0 0 0 0 1 0 0 0 0.21 0"/>
<feBlend mode="normal" in2="shape" result="effect2_innerShadow_740_1872"/>
</filter>
<filter id="filter6_di_740_1872" x="268" y="202" width="71" height="88" filterUnits="userSpaceOnUse" color-interpolation-filters="sRGB">
<feFlood flood-opacity="0" result="BackgroundImageFix"/>
<feColorMatrix in="SourceAlpha" type="matrix" values="0 0 0 0 0 0 0 0 0 0 0 0 0 0 0 0 0 0 127 0" result="hardAlpha"/>
<feOffset dy="20"/>
<feGaussianBlur stdDeviation="9.5"/>
<feComposite in2="hardAlpha" operator="out"/>
<feColorMatrix type="matrix" values="0 0 0 0 0.283785 0 0 0 0 0.178889 0 0 0 0 0.933333 0 0 0 1 0"/>
<feBlend mode="normal" in2="BackgroundImageFix" result="effect1_dropShadow_740_1872"/>
<feBlend mode="normal" in="SourceGraphic" in2="effect1_dropShadow_740_1872" result="shape"/>
<feColorMatrix in="SourceAlpha" type="matrix" values="0 0 0 0 0 0 0 0 0 0 0 0 0 0 0 0 0 0 127 0" result="hardAlpha"/>
<feOffset dy="9"/>
<feGaussianBlur stdDeviation="1.5"/>
<feComposite in2="hardAlpha" operator="arithmetic" k2="-1" k3="1"/>
<feColorMatrix type="matrix" values="0 0 0 0 1 0 0 0 0 1 0 0 0 0 1 0 0 0 0.21 0"/>
<feBlend mode="normal" in2="shape" result="effect2_innerShadow_740_1872"/>
</filter>
<filter id="filter7_di_740_1872" x="196" y="225" width="71" height="88" filterUnits="userSpaceOnUse" color-interpolation-filters="sRGB">
<feFlood flood-opacity="0" result="BackgroundImageFix"/>
<feColorMatrix in="SourceAlpha" type="matrix" values="0 0 0 0 0 0 0 0 0 0 0 0 0 0 0 0 0 0 127 0" result="hardAlpha"/>
<feOffset dy="20"/>
<feGaussianBlur stdDeviation="9.5"/>
<feComposite in2="hardAlpha" operator="out"/>
<feColorMatrix type="matrix" values="0 0 0 0 0.283785 0 0 0 0 0.178889 0 0 0 0 0.933333 0 0 0 1 0"/>
<feBlend mode="normal" in2="BackgroundImageFix" result="effect1_dropShadow_740_1872"/>
<feBlend mode="normal" in="SourceGraphic" in2="effect1_dropShadow_740_1872" result="shape"/>
<feColorMatrix in="SourceAlpha" type="matrix" values="0 0 0 0 0 0 0 0 0 0 0 0 0 0 0 0 0 0 127 0" result="hardAlpha"/>
<feOffset dy="9"/>
<feGaussianBlur stdDeviation="1.5"/>
<feComposite in2="hardAlpha" operator="arithmetic" k2="-1" k3="1"/>
<feColorMatrix type="matrix" values="0 0 0 0 1 0 0 0 0 1 0 0 0 0 1 0 0 0 0.21 0"/>
<feBlend mode="normal" in2="shape" result="effect2_innerShadow_740_1872"/>
</filter>
<filter id="filter8_di_740_1872" x="52" y="227" width="71" height="88" filterUnits="userSpaceOnUse" color-interpolation-filters="sRGB">
<feFlood flood-opacity="0" result="BackgroundImageFix"/>
<feColorMatrix in="SourceAlpha" type="matrix" values="0 0 0 0 0 0 0 0 0 0 0 0 0 0 0 0 0 0 127 0" result="hardAlpha"/>
<feOffset dy="20"/>
<feGaussianBlur stdDeviation="9.5"/>
<feComposite in2="hardAlpha" operator="out"/>
<feColorMatrix type="matrix" values="0 0 0 0 0.283785 0 0 0 0 0.178889 0 0 0 0 0.933333 0 0 0 1 0"/>
<feBlend mode="normal" in2="BackgroundImageFix" result="effect1_dropShadow_740_1872"/>
<feBlend mode="normal" in="SourceGraphic" in2="effect1_dropShadow_740_1872" result="shape"/>
<feColorMatrix in="SourceAlpha" type="matrix" values="0 0 0 0 0 0 0 0 0 0 0 0 0 0 0 0 0 0 127 0" result="hardAlpha"/>
<feOffset dy="9"/>
<feGaussianBlur stdDeviation="1.5"/>
<feComposite in2="hardAlpha" operator="arithmetic" k2="-1" k3="1"/>
<feColorMatrix type="matrix" values="0 0 0 0 1 0 0 0 0 1 0 0 0 0 1 0 0 0 0.21 0"/>
<feBlend mode="normal" in2="shape" result="effect2_innerShadow_740_1872"/>
</filter>
<linearGradient id="paint0_linear_740_1872" x1="38.9717" y1="169.76" x2="355.746" y2="-67.1272" gradientUnits="userSpaceOnUse">
<stop stop-color="white"/>
<stop offset="1" stop-color="white" stop-opacity="0.58"/>
</linearGradient>
</defs>
</svg>
